<svg xmlns="http://www.w3.org/2000/svg" width="125" height="125" viewBox="0 0 125 125">
  <g id="Btn-2" transform="translate(-62 -674)">
    <g id="click" transform="translate(65 677)">
      <g id="Sizing_Rectangle" data-name="Sizing Rectangle" fill="rgba(0,0,0,0)" stroke="rgba(0,0,0,0)" stroke-width="1">
        <rect width="120" height="60" stroke="none"/>
        <rect x="0.5" y="0.5" width="119" height="59" fill="none"/>
      </g>
      <path id="rgba_127_0_0_1_" data-name="rgba(127,0,0,1)" d="M96.5,2Q101.3.3,100,4.5L99,10h9v3l-6.5,1-1.5-.5L98,19l15,5.5-2,.5q1.1,2.7-1.5,2-8.2-1.3-13-6L92,26.5l6,.5q2.1,5.2-2.5,4L94,34l8.5-1,2.5,1.5q-2.3,3.2-8.5,2.5L94,39.5v16L91.5,58Q88,56.7,89,52l2-.5V39L79.5,42,78,38.5,79.5,37q7.6,1.1,10.5-2.5L89.5,33H83V31l3-.5-2-1,4-7-1.5.5-2.5.5,1,3L72.5,33q-2.4-2.3-1.5-7-3.8,1.5-3-1.5l8-3-5-3-2-4q1.3-2.7,2.5-.5,5.4,1.9,4.5-1.5V9H72V7h3q-1.5-3.7,1.5-3,1.3-2.3,2.5.5L79.5,6l2-1q3,1.5,0,3Q78.2,6.9,79,9.5L80.5,9q3.8-.7,4.5,1.5l-3,10,1.5-.5q4.3-.7,5,2L94,21l-4-5.5V13l8-2.5Q95.2,9.4,96,6L93,4.5ZM75,16q-2,3,1,2Zm5,8v3Q83,26,80,24Zm-6,1-2,2,4,1-1-1Q76,24,74,25Z" fill="rgb(15, 15, 15)"/>
      <path id="rgba_127_0_0_1_2" data-name="rgba(127,0,0,1)" d="M88.5,5q4-.5,4.5,2.5L91.5,11l-2,1L89,10.5l1-2Z" fill="rgb(15, 15, 15)"/>
      <path id="rgba_127_0_0_1_3" data-name="rgba(127,0,0,1)" d="M27.5,6,33,8.5l-4,5v2q.9,6.8-1,9.5l-3.5-1L22,25q-1.2,3.7,4,2v3l-4,1.5q-1.1,3.3,1.5,2.5L29,33q1.5,3.7-1.5,3L20,40.5l3,.5q-1.1-2.7,1.5-2L28,41.5,26.5,44,23,41.5l1,3q-2,3.5-4-1L18.5,41,16,42.5l3,2,1,3q-2,3.5-4-1L13.5,42,10,40.5Q8.8,36.8,12.5,38h2L18,37V32H14.5L13,29l2.5,1L19,29q1.8-4.5-3.5-3-1.2,2.3-2.5-.5l-2-7L6,12l12,5-2-6.5q.8-3.2,5.5-2.5h2ZM23,12l1,2Q25,11,23,12Zm-4,5-1,4-2,1q2,3,3,0Zm3,2v2l3-1Z" fill="rgb(15, 15, 15)"/>
      <path id="rgba_127_0_0_1_4" data-name="rgba(127,0,0,1)" d="M35.5,9,41,12.5q-1.5,4.4,1.5,3.5,1.7-3.5,7.5-2,1.5,3.8-1.5,3-1.9,3.6-6.5,3l-1,9,10.5-1L53,31q-3-1.2-2,2.5l-1,1-1,11L47.5,47l-9-1-3,1L31,34.5,33.5,36,37,38.5,38,43q5,.8,7-2.5.6-5.4-1-7.5-5.4,1.5-7-1.5v-14Q33.6,15,35.5,9Z" fill="rgb(15, 15, 15)"/>
      <path id="rgba_127_0_0_1_5" data-name="rgba(127,0,0,1)" d="M7.5,43,13,46l1,5.5q-2,3.5-4-1l-3-5Z" fill="rgb(15, 15, 15)"/>
    </g>
    <rect id="bb" width="125" height="125" transform="translate(62 674)" fill="none"/>
  </g>
</svg>
