<svg xmlns="http://www.w3.org/2000/svg" width="125" height="125" viewBox="0 0 125 125">
  <g id="Btn-1" transform="translate(-62 -674)">
    <g id="home" transform="translate(64 676)">
      <g id="Sizing_Rectangle" data-name="Sizing Rectangle" fill="rgba(0,0,0,0)" stroke="rgba(0,0,0,0)" stroke-width="1">
        <rect width="120" height="60" stroke="none"/>
        <rect x="0.5" y="0.5" width="119" height="59" fill="none"/>
      </g>
      <path id="rgba_127_0_0_1_" data-name="rgba(127,0,0,1)" d="M97.5,5,107,6l1,4-20,.5,2,.5,1,2.5-4,3,3.5.5,4-2,7.5,4.5-2,8q2.2,1.3,1,6l-1,1V42q-5.4.9-7.5-3l-8,3H79l-1-3.5,2-4q-2.2-1.3-1-6l1-2-3-4V20l3.5,1q4.3-2.8,3.5-9l-7.5,1L71,10.5,76.5,8h7ZM85,20q-5,2-1,4l4-1q5,2,4-2Zm8,3-1,3-7,2v1l8-1Zm0,8L83,34l1,3,9-1Z" fill="rgb(15, 15, 15)"/>
      <path id="rgba_127_0_0_1_2" data-name="rgba(127,0,0,1)" d="M36,7h6v3.5L34.5,14l.5-1.5Z" fill="rgb(15, 15, 15)"/>
      <path id="rgba_127_0_0_1_3" data-name="rgba(127,0,0,1)" d="M18,11q4.3-1,5.5,2L26,12q.8,3.4-2,4.5l10.5.5,1-1h13L51,17l-1.5,3q-6.8,1.3-10-1h-2q-6.3-2.2-4.5,3.5L32,25l-5,1.5,3.5.5,1-1h10L43,28.5q-3.3,1.3-2,7v13L39.5,50l-7-1-1,1H22l-1-5.5q2.7-2.3,2-8l-4-7,1.5.5,2,1q4.2-1.7,1.5-3.5L26,21,14.5,24,10,22q-1.1-2.7,1.5-2l3-2,9.5-.5L19,16ZM32,29l-7,2,1,2,9-2Q36,28,32,29Zm4,3-5,3q-4-1-3,2l3-1q5-2,4,2l-6,2q-3-1-2,6v1q6,1,9-2Z" fill="rgb(15, 15, 15)"/>
      <path id="rgba_127_0_0_1_4" data-name="rgba(127,0,0,1)" d="M79,43h6v4.5L81.5,52,76,53l3-6.5Z" fill="rgb(15, 15, 15)"/>
      <path id="rgba_127_0_0_1_5" data-name="rgba(127,0,0,1)" d="M96,43q7.5-.2,11,4.5l1,4.5q-8.9-.2-12-7.5Z" fill="rgb(15, 15, 15)"/>
    </g>
    <rect id="bb" width="125" height="125" transform="translate(62 674)" fill="none"/>
  </g>
</svg>
