<svg xmlns="http://www.w3.org/2000/svg" xmlns:xlink="http://www.w3.org/1999/xlink" width="69.139" height="69.139" viewBox="0 0 69.139 69.139">
  <defs>
    <linearGradient id="linear-gradient" x1="0.5" x2="0.5" y2="1" gradientUnits="objectBoundingBox">
      <stop offset="0" stop-color="#bf6363"/>
      <stop offset="1" stop-color="#b9a8a8"/>
    </linearGradient>
  </defs>
  <g id="btn-3" transform="translate(-192.401 -674.369)">
    <g id="rect" transform="translate(192.401 674.369)">
      <g id="Rectangle_1" data-name="Rectangle 1" transform="translate(34.57) rotate(45)" stroke="#503939" stroke-width="2" fill="url(#linear-gradient)">
        <rect width="48.889" height="48.889" stroke="none"/>
        <rect x="1" y="1" width="46.889" height="46.889" fill="none"/>
      </g>
      <g id="Rectangle_7" data-name="Rectangle 7" transform="translate(13.344 30.444) rotate(135)" fill="#bf6363" stroke="#503939" stroke-width="2">
        <rect width="6.519" height="6.519" stroke="none"/>
        <rect x="1" y="1" width="4.519" height="4.519" fill="none"/>
      </g>
      <g id="Rectangle_9" data-name="Rectangle 9" transform="translate(64.579 30.444) rotate(135)" fill="#bf6363" stroke="#503939" stroke-width="2">
        <rect width="6.519" height="6.519" stroke="none"/>
        <rect x="1" y="1" width="4.519" height="4.519" fill="none"/>
      </g>
      <g id="Rectangle_8" data-name="Rectangle 8" transform="translate(13.344 38.745) rotate(135)" fill="#bf6363" stroke="#503939" stroke-width="2">
        <rect width="6.519" height="6.519" stroke="none"/>
        <rect x="1" y="1" width="4.519" height="4.519" fill="none"/>
      </g>
      <g id="Rectangle_10" data-name="Rectangle 10" transform="translate(64.579 38.745) rotate(135)" fill="#bf6363" stroke="#503939" stroke-width="2">
        <rect width="6.519" height="6.519" stroke="none"/>
        <rect x="1" y="1" width="4.519" height="4.519" fill="none"/>
      </g>
    </g>
    <g id="fall" transform="translate(197 679)">
      <path id="text-4" d="M21.5,7,27,8l1,2.5Q24.7,15,18,15q-1.2,3,2.5,2L23,23.5l-1,4,3,4L22,33l-1,3.5v14L20,56q-2.7,1.1-2-1.5l-2-4q3.7-4.3,2-14H17L12.5,44,10,43.5l5-14-1.5.5-7,2L3,29.5l14-8L16.5,16l-1.5.5v-2Z" fill="#503939"/>
      <path id="text-3" d="M33.5,7,39,9.5l2,7q-2.6,1.4-2,6Q40.9,32,45,38l11,8.5L57,50,45,45,38.5,33,37,39.5,32.5,46,29,47l5-12.5,1-8-1-3,1-1v-8Z" fill="#503939"/>
      <path id="text-2" d="M44.5,17l5,1L52,20.5,50.5,23,42,22.5Z" fill="#503939"/>
      <path id="text-1" d="M26,22l6,2.5,1,3q-1.3,2.8-2.5.5L27,25.5Z" fill="#503939"/>
    </g>
  </g>
</svg>
