<svg xmlns="http://www.w3.org/2000/svg" xmlns:xlink="http://www.w3.org/1999/xlink" width="125" height="125" viewBox="0 0 125 125">
  <defs>
    <linearGradient id="linear-gradient" x1="0.5" x2="0.5" y2="1" gradientUnits="objectBoundingBox">
      <stop offset="0" stop-color="#bf6363"/>
      <stop offset="1" stop-color="#b9a8a8"/>
    </linearGradient>
  </defs>
  <g id="Btn" transform="translate(-62 -674)">
    <g id="Group_129" data-name="Group 129" transform="translate(899.912 401.968) rotate(90)">
      <g id="Group_115" data-name="Group 115" transform="translate(274.401 715.369)">
        <g id="Rectangle_1" data-name="Rectangle 1" transform="translate(60.071) rotate(45)" stroke="#503939" stroke-width="2" fill="url(#linear-gradient)">
          <rect width="84.953" height="84.953" stroke="none"/>
          <rect x="1" y="1" width="82.953" height="82.953" fill="none"/>
        </g>
        <g id="Rectangle_7" data-name="Rectangle 7" transform="translate(23.188 52.901) rotate(135)" fill="#bf6363" stroke="#503939" stroke-width="2">
          <rect width="11.327" height="11.327" stroke="none"/>
          <rect x="1" y="1" width="9.327" height="9.327" fill="none"/>
        </g>
        <g id="Rectangle_9" data-name="Rectangle 9" transform="translate(112.217 52.901) rotate(135)" fill="#bf6363" stroke="#503939" stroke-width="2">
          <rect width="11.327" height="11.327" stroke="none"/>
          <rect x="1" y="1" width="9.327" height="9.327" fill="none"/>
        </g>
        <g id="Rectangle_8" data-name="Rectangle 8" transform="translate(23.188 67.326) rotate(135)" fill="#bf6363" stroke="#503939" stroke-width="2">
          <rect width="11.327" height="11.327" stroke="none"/>
          <rect x="1" y="1" width="9.327" height="9.327" fill="none"/>
        </g>
        <g id="Rectangle_10" data-name="Rectangle 10" transform="translate(112.217 67.326) rotate(135)" fill="#bf6363" stroke="#503939" stroke-width="2">
          <rect width="11.327" height="11.327" stroke="none"/>
          <rect x="1" y="1" width="9.327" height="9.327" fill="none"/>
        </g>
      </g>
    </g>
    <rect id="bb" width="125" height="125" transform="translate(62 674)" fill="none"/>
  </g>
</svg>
