<svg xmlns="http://www.w3.org/2000/svg" width="75" height="75" viewBox="0 0 75 75">
  <g id="btn-3" transform="translate(-110 -671)">
    <rect id="b" width="75" height="75" transform="translate(110 671)" fill="none"/>
    <g id="fall" transform="translate(118 680)">
      <path id="text-4" d="M21.5,7,27,8l1,2.5Q24.7,15,18,15q-1.2,3,2.5,2L23,23.5l-1,4,3,4L22,33l-1,3.5v14L20,56q-2.7,1.1-2-1.5l-2-4q3.7-4.3,2-14H17L12.5,44,10,43.5l5-14-1.5.5-7,2L3,29.5l14-8L16.5,16l-1.5.5v-2Z" fill="rgb(15, 15, 15)"/>
      <path id="text-3" d="M33.5,7,39,9.5l2,7q-2.6,1.4-2,6Q40.9,32,45,38l11,8.5L57,50,45,45,38.5,33,37,39.5,32.5,46,29,47l5-12.5,1-8-1-3,1-1v-8Z" fill="rgb(15, 15, 15)"/>
      <path id="text-2" d="M44.5,17l5,1L52,20.5,50.5,23,42,22.5Z" fill="rgb(15, 15, 15)"/>
      <path id="text-1" d="M26,22l6,2.5,1,3q-1.3,2.8-2.5.5L27,25.5Z" fill="rgb(15, 15, 15)"/>
    </g>
  </g>
</svg>
