<svg xmlns="http://www.w3.org/2000/svg" width="75" height="75" viewBox="0 0 75 75">
  <g id="btn1-1" transform="translate(-110 -671)">
    <g id="spring" transform="translate(124 680)">
      <path id="text" d="M20,4l4,2.5L25.5,10q6.1-1.1,8.5,1.5L33,14,23,16q-1.2,3,2.5,2,1.3-2.3,6-1L33,20l-7,1.5L28.5,24q6.7-1.7,8.5,1.5-1.6,2.9-7,2L34.5,33A65.286,65.286,0,0,0,55,44l1,2.5-4.5.5h-2L32,40V51.5L31,54l-9.5,1L17,51.5Q18,44,16,41L5.5,49,6,47.5l7-10L15,31,9,29q-1.1-2.7,1.5-2L18,23.5l-6-3q2.3-2.4,7-1.5,1.8-4.5-3.5-3L12,13.5q2.5-2.6,8-1.5Zm2,18,1,3V23h2Zm0,6L16,39q3-1,5,2,4,1,5-1-1-3-2-1l-4-1,6-4h3l-3-4Q27,26,22,28Zm1,16q-3,1-1,3v4h5V44Z" transform="translate(-1 -1)" fill="rgb(15, 15, 15)"/>
    </g>
    <rect id="b" width="75" height="75" transform="translate(110 671)" fill="none"/>
  </g>
</svg>
