<svg xmlns="http://www.w3.org/2000/svg" width="75" height="75" viewBox="0 0 75 75">
  <g id="btn1-2" transform="translate(-110 -671)">
    <rect id="b" width="75" height="75" transform="translate(110 671)" fill="none"/>
    <g id="summer" transform="translate(118 681)">
      <path id="texr-2" d="M37.5,5q1.5,2.5,7,1L48,8.5q.5,3-6.5,1.5-1.7-2.8-8-1L30,10.5l11,5L37,17l-2,8.5v5l1,3-3,7L39.5,45l11,2L57,50.5,46.5,51l-17-6L28,48l-3.5,2L24,48.5l4-7L23.5,39,19,45l-2-.5,3-10-3-1-1-2,2-.5,3-7.5L18.5,20,16,19.5l7.5-.5,3,1L31,18.5,27.5,17q-2.6.8-1.5-2.5L22.5,17,21,16.5,24,11,13.5,13,11,9,23.5,7h7ZM31,21l-5,2h5v2H25v3l7-2V21Zm1,7-7,4v1q5,0,7-3Zm-6,6q-1,3,2,2l1,1Q30,32,26,34Z" fill="rgb(15, 15, 15)"/>
      <path id="text-1" d="M13.5,49l.5,1.5L12,54,9.5,55,9,53.5Z" fill="rgb(15, 15, 15)"/>
    </g>
  </g>
</svg>
