<svg id="click60" xmlns="http://www.w3.org/2000/svg" width="60" height="132" viewBox="0 0 60 132">
  <g id="Sizing_Rectangle" data-name="Sizing Rectangle" fill="rgba(0,0,0,0)" stroke="rgba(0,0,0,0)" stroke-width="1">
    <rect width="60" height="132" stroke="none"/>
    <rect x="0.5" y="0.5" width="59" height="131" fill="none"/>
  </g>
  <path id="rgba_127_0_0_1_" data-name="rgba(127,0,0,1)" d="M27.5,6,33,8.5l-4,5v2q.9,6.8-1,9.5l-3.5-1L22,25q-1.2,3.7,4,2v3l-4,1.5q-1.1,3.3,1.5,2.5L29,33q1.5,3.7-1.5,3L20,40.5l3,.5q-1.1-2.7,1.5-2L28,41.5,26.5,44,23,41.5l1,3q-2,3.5-4-1L18.5,41,16,42.5l3,2,1,3q-2,3.5-4-1L13.5,42,10,40.5Q8.8,36.8,12.5,38h2L18,37V32H14.5L13,29l2.5,1L19,29q1.8-4.5-3.5-3-1.2,2.3-2.5-.5l-2-7L6,12l12,5-2-6.5q.8-3.2,5.5-2.5h2ZM23,12l1,2Q25,11,23,12Zm-4,5-1,4-2,1q2,3,3,0Zm3,2v2l3-1Z"/>
  <path id="rgba_127_0_0_1_2" data-name="rgba(127,0,0,1)" d="M35.5,9,41,12.5q-1.5,4.4,1.5,3.5,1.7-3.5,7.5-2,1.5,3.8-1.5,3-1.9,3.6-6.5,3l-1,9,10.5-1L53,31q-3-1.2-2,2.5l-1,1-1,11L47.5,47l-9-1-3,1L31,34.5,33.5,36,37,38.5,38,43q5,.8,7-2.5.6-5.4-1-7.5-5.4,1.5-7-1.5v-14Q33.6,15,35.5,9Z"/>
  <path id="rgba_127_0_0_1_3" data-name="rgba(127,0,0,1)" d="M7.5,43,13,46l1,5.5q-2,3.5-4-1l-3-5Z"/>
  <path id="rgba_127_0_0_1_4" data-name="rgba(127,0,0,1)" d="M36.5,74q4.8-1.7,3.5,2.5L39,82h9v3l-6.5,1L40,85.5,38,91l15,5.5L51,97q1.1,2.7-1.5,2-8.2-1.3-13-6L32,98.5l6,.5q2.1,5.2-2.5,4L34,106l8.5-1,2.5,1.5q-2.3,3.2-8.5,2.5L34,111.5v16L31.5,130q-3.5-1.3-2.5-6l2-.5V111l-11.5,3L18,110.5l1.5-1.5q7.6,1.1,10.5-2.5l-.5-1.5H23v-2l3-.5-2-1,4-7-1.5.5-2.5.5,1,3L12.5,105q-2.4-2.3-1.5-7-3.7,1.5-3-1.5l8-3-5-3-2-4q1.3-2.7,2.5-.5,5.4,1.9,4.5-1.5V81H12V79h3q-1.5-3.8,1.5-3,1.3-2.2,2.5.5l.5,1.5,2-1q3,1.5,0,3-3.3-1.1-2.5,1.5l1.5-.5q3.8-.7,4.5,1.5l-3,10,1.5-.5q4.3-.7,5,2L34,93l-4-5.5V85l8-2.5q-2.7-1.1-2-4.5l-3-1.5ZM15,88q-2,3,1,2Zm5,8v3Q23,98,20,96Zm-6,1-2,2,4,1-1-1Q16,96,14,97Z"/>
  <path id="rgba_127_0_0_1_5" data-name="rgba(127,0,0,1)" d="M28.5,77q4-.5,4.5,2.5L31.5,83l-2,1L29,82.5l1-2Z"/>
</svg>
