<svg id="click50" xmlns="http://www.w3.org/2000/svg" width="49" height="108" viewBox="0 0 49 108">
  <g id="Sizing_Rectangle" data-name="Sizing Rectangle" fill="rgba(0,0,0,0)" stroke="rgba(0,0,0,0)" stroke-width="1">
    <rect width="49" height="108" stroke="none"/>
    <rect x="0.5" y="0.5" width="48" height="107" fill="none"/>
  </g>
  <path id="rgba_127_0_0_1_" data-name="rgba(127,0,0,1)" d="M22.5,5q3.8-.7,4.5,1.5l-3,3L23,20l-2.5-1L18,20.5l4,2-4,3,.5,1.5,2-1L24,27q1.1,2.7-1.5,2L19,30.5l4,3q.8,2.3-1.5,1.5L19,33.5q1.3,4.8-2,3.5l-.5-2-1,5L12,34,8,32.5Q6.9,29.2,9.5,30l2,1L14,30l1-3.5L11,26l-1-2.5,1.5-.5h2q2.6.7,1.5-2-3.8,1-5-1.5-.4-7.1-5-10l1.5.5,8,3L14,11.5l-1-4L14.5,6Q20.8,7.8,22.5,5ZM18,15v2l2-1Zm1,16-3,2h3Zm-5,2q-1,3,2,2Q17,32,14,33Z"/>
  <path id="rgba_127_0_0_1_2" data-name="rgba(127,0,0,1)" d="M28,7l6,3.5q-.7,2.3,1.5,1.5L41,11l-2.5,4L34,16v7h3.5l4-1L43,24.5l-2,2q.9,7.9-2.5,11.5l-6-1-3,1L25,27.5,27.5,29,30,30.5,31,35l5-1,1-4.5L36,26l-4.5,1q-3.2-1.7-1.5-8.5l1-3Z"/>
  <path id="rgba_127_0_0_1_3" data-name="rgba(127,0,0,1)" d="M5.5,35,11,37v6H9Z"/>
  <path id="rgba_127_0_0_1_4" data-name="rgba(127,0,0,1)" d="M30.5,60q3.8-1.2,2.5,2.5l-1,3q1.3,2.8,2.5.5,6.3-1.9,4.5,3l-7,2.5-1,2,12,5Q42,81,37.5,80l-8-4L27,79.5,31,81v3q-4.1-1.3-3,2l6.5-1L37,86.5l-9,4v14L26.5,106,24,104.5l-1-2,2-2q-1.7-6.2,1-8L24.5,90l-6,3h-3L14,90.5l11-4q.8-2.2-1.5-1.5L19,86q-1.1-2.7,1.5-2l-1-2h-3l-6,3Q8,83.8,9,80l-3-.5,6-4-3-2-2-3q1.3-2.7,2.5-.5l3.5-.5-1-2,.5-1.5L9,64.5l3-.5,1.5-3L18,63q1.1,2.7-1.5,2v1q3.8-.7,4.5,1.5l-2,2-1,5,2.5.5,3,1L28,74.5l-4-3L25,69l5-2.5L29,63l-2-.5ZM21,77v3h1Q23,76,21,77Zm-6,1q-1,3,2,2Q18,77,15,78Zm-4,1v3l2-1Z"/>
  <path id="rgba_127_0_0_1_5" data-name="rgba(127,0,0,1)" d="M23.5,63,27,64.5,25.5,68q-3,.9-1.5-3.5Z"/>
</svg>
