<svg xmlns="http://www.w3.org/2000/svg" width="350" height="520" viewBox="0 0 350 520">
  <g id="rat" transform="translate(-30 -21)">
    <g id="Group_8" data-name="Group 8" transform="matrix(1, 0.017, -0.017, 1, 67.882, 316.541)">
      <path id="Path_60" data-name="Path 60" d="M1.384.408c-1.8,1.12-1.844,3.08-.14,7.957,2.17,6.254,4.084,9.1,9.078,13.558A33.242,33.242,0,0,0,22.2,29.087c1.89.583,1.773.583,1.773.163,0-.444-2.5-2.707-7-6.394C8.688,16.066,6.774,13.686,4.3,6.942c-.443-1.214-.887-2.567-.98-2.987-.14-.677-.093-.747.4-.747,1.33,0,6.837,2.24,12.135,4.924,8.191,4.177,13.021,9.8,13.418,15.658.187,2.66.77,2.24.77-.537,0-4.877-3.337-10.384-8.868-14.538a50.251,50.251,0,0,0-8.518-5.181C6.517.314,3.04-.642,1.384.408Z" transform="translate(33.96 0)"/>
      <path id="Path_61" data-name="Path 61" d="M6.1.168C3.187.751-.243,2.035.014,2.455a2.287,2.287,0,0,0,1.26,0,47.328,47.328,0,0,1,9.988-.443A27.015,27.015,0,0,1,25.239,6.8c1.027.653,2.8,1.774,3.92,2.474a13.806,13.806,0,0,1,4.55,4.037c.327.583.4,1.354.4,3.757,0,3.547-.14,4.434-.957,5.6-.653.98-.583,1.237.257.863,1.517-.7,2.707-4.131,2.754-7.934a5.372,5.372,0,0,0-.537-3.2,9.792,9.792,0,0,0-7.257-4.877c-1.493-.233-1.727-.35-2.287-1.05a21.16,21.16,0,0,0-5.927-4.457C16.909.471,15.252.1,11,0A41.02,41.02,0,0,0,6.1.168Z" transform="translate(65.246 23.132)"/>
      <path id="Path_62" data-name="Path 62" d="M19.585.213a23.566,23.566,0,0,0-18.225,10.9c-4.6,7.117,3.01,9.334,14.631,4.27a32.4,32.4,0,0,1,8.424-2.287c2.194-.35,4.13-.42,10.688-.42,4.387,0,7.981-.07,7.981-.163,0-.583-7.514-1.4-12.835-1.4-6.814-.023-10.431.607-15.192,2.614-4.644,1.96-6.441,2.4-9.568,2.427-2.38.023-2.8-.023-3.22-.42a1.636,1.636,0,0,1-.49-1.073c0-1.61,3.15-5.9,6.207-8.448a25.446,25.446,0,0,1,7.537-3.8C22.385.586,32.162,1.193,41.917,4.063c3.57,1.05,4.154,1.167,3.85.84-.373-.42-4.62-1.867-7.911-2.73A66.5,66.5,0,0,0,26.632.19,30.914,30.914,0,0,0,19.585.213Z" transform="translate(10.182 27.287)"/>
      <path id="Path_63" data-name="Path 63" d="M3.166.253C2.209.556-.218,2.82.016,3.193a10.217,10.217,0,0,0,3.92,1.8A3.55,3.55,0,0,0,7.67,1.326c.047-.887-.023-1-.537-1.167A9.9,9.9,0,0,0,3.166.253Z" transform="translate(66.667 35.462)"/>
      <path id="Path_64" data-name="Path 64" d="M0,1.237C0,6.114,3.524,11.411,7.887,13.091a16.184,16.184,0,0,0,8.307.233c2.264-.537,6.441-2.38,6.441-2.847,0-.14-.187-.21-.4-.14-8.121,2.38-12.251,2.217-16.172-.653C4.084,8.237,1.82,4.644.793,1.33.56.607.3,0,.187,0,.093,0,0,.56,0,1.237Z" transform="translate(55.832 44.512)"/>
      <path id="Path_65" data-name="Path 65" d="M8.688.654A5.313,5.313,0,0,1,6,4.341a18.662,18.662,0,0,1-3.127.91C-.88,6.068-.95,6.441,2.621,6.628c3.99.21,6.511-1.307,6.954-4.177C9.832.7,9.038-.956,8.688.654Z" transform="translate(86.231 46.705)"/>
      <path id="Path_66" data-name="Path 66" d="M.009.066C-.061.206.266.58.733.93a26.031,26.031,0,0,1,2.357,2.4c6.091,7.14,8,15.775,5.881,26.742-.233,1.284-.443,2.544-.443,2.8,0,1.4,1.54-2.217,2.5-5.881.607-2.333.653-2.847.653-6.837,0-3.781-.07-4.55-.537-6.3A24.707,24.707,0,0,0,5.867,4.127C4.07,2.12.336-.447.009.066Z" transform="translate(91.876 61.924)"/>
      <path id="Path_67" data-name="Path 67" d="M42.94.759c0,2.124-1.47,5.74-3.547,8.681C35.472,14.993,28.075,21.6,18.437,28.108A38.816,38.816,0,0,0,4.319,44.63c-2.5,5.11-5.04,13.418-4.13,13.418a5.145,5.145,0,0,0,.84-1.7A91.971,91.971,0,0,1,6.4,45.61,42.468,42.468,0,0,1,20.327,30.838C31.785,23.3,40.419,13.99,42.846,6.523A11.149,11.149,0,0,0,43.523,2.3c0-1.54-.093-2.217-.28-2.287C43.033-.058,42.94.175,42.94.759Z" transform="translate(21.993 62.072)"/>
      <path id="Path_68" data-name="Path 68" d="M4.532.747c.187.42.863,2.007,1.517,3.524C8.5,9.918,9.83,14.608,9.48,16.428c-.513,2.66-4.6,4.457-7.234,3.174a3.9,3.9,0,0,1-1.47-1.19c-.723-1.213-1.1-.583-.42.7.863,1.68,2.614,2.474,5.111,2.31a5.627,5.627,0,0,0,3.99-1.634c2.754-2.4,2.5-6.091-.933-13.138C6.936,3.43,4.859,0,4.439,0,4.3,0,4.322.28,4.532.747Z" transform="translate(103.431 96.784)"/>
      <path id="Path_69" data-name="Path 69" d="M8.167.3c0,.163.49,1.983,1.05,4.037,2.124,7.514,2.4,9.988,1.4,13.045-1.4,4.27-3.01,5.974-5.647,5.974-3.407,0-4.644-1.634-3.687-4.807.42-1.377.4-1.26.117-1.26-.467,0-1.4,2.4-1.4,3.57,0,2.1,1,3.174,3.594,3.827,3.967.98,7-1.26,8.681-6.394a14.486,14.486,0,0,0-.093-9.054C10.688,4.247,8.167-1.377,8.167.3Z" transform="translate(88.268 98.627)"/>
      <path id="Path_70" data-name="Path 70" d="M0,.124A27.454,27.454,0,0,0,2.637,1.548c1.423.723,3.5,1.89,4.6,2.614a34.312,34.312,0,0,1,8.1,8.144c2.847,4.83,4.037,10.1,4.037,17.712a9.655,9.655,0,0,0,.233,3.127c.233,0,1.167-2.8,1.657-5.017a29.769,29.769,0,0,0,.327-5.017,18.29,18.29,0,0,0-.56-5.717A22.54,22.54,0,0,0,8.751,2.458,25.568,25.568,0,0,0,3.874.591C1.774.054,0-.156,0,.124Z" transform="translate(53.265 107.044)"/>
      <path id="Path_71" data-name="Path 71" d="M7.048.5a10.906,10.906,0,0,0-3.9,3.43A21.131,21.131,0,0,0,.071,9.248c-.3.98.4.56,1.61-.91.653-.793,2.567-2.894,4.27-4.667A36.729,36.729,0,0,0,9.031.217C9.031-.156,8.051-.039,7.048.5Z" transform="translate(78.304 116.402)"/>
      <path id="Path_72" data-name="Path 72" d="M8.787.456A10.876,10.876,0,0,0,.41,8.623,20.078,20.078,0,0,0,.5,17.117c1.727,6.511,6.557,11.131,11.691,11.2a5.557,5.557,0,0,0,3.337-.747,4.415,4.415,0,0,0,1.563-1c0-.28-.093-.28-1.937.163a4.5,4.5,0,0,1-3.127,0,9.75,9.75,0,0,1-5.087-3.22A17.409,17.409,0,0,1,2.837,10.163C3.42,5.94,5.614,3.419,9.861,2.019a26.668,26.668,0,0,1,7.071-1.1c1.563,0,1.353-.373-.373-.677A22.061,22.061,0,0,0,8.787.456Z" transform="translate(0 121.997)"/>
      <path id="Path_73" data-name="Path 73" d="M6.713.21c-.047.163-.163,1.657-.233,3.337-.3,6.277-1.517,9.638-5.2,14.165-.817.98-1.377,1.844-1.26,1.937.4.233,2.777-.817,4.177-1.844a13.174,13.174,0,0,0,4.5-6.791,20.071,20.071,0,0,0-.07-7.467A13.416,13.416,0,0,0,7.016.023C6.9-.046,6.759.047,6.713.21Z" transform="translate(77.029 123.69)"/>
      <path id="Path_74" data-name="Path 74" d="M6.383.256A25.309,25.309,0,0,0,.269,2.122c-.233.163-.327.4-.233.49a23,23,0,0,0,4.084.373c11.248.513,14.3,1.1,15.728,2.987.817,1.1,1.19.933,1.073-.49-.21-2.17-2.194-4.084-5.2-5.017A30.621,30.621,0,0,0,6.383.256Z" transform="translate(77.102 141.683)"/>
      <path id="Path_75" data-name="Path 75" d="M6.534.056C2.264.826,0,1.409,0,1.783c0,.187,1.75.327,7.117.583,8.868.42,14.095,1.634,15.565,3.64.7.933,1.213.91,1.027-.093-.443-2.194-2.66-4.177-5.834-5.227-1.75-.56-2.24-.63-6.324-.677C9.124-.014,6.861.009,6.534.056Z" transform="translate(65.166 147.273)"/>
      <path id="Path_76" data-name="Path 76" d="M0,.126c0,.327,2.264,1.307,4.434,1.96,1.587.49,2.264.537,7.467.56,5.577.023,5.811.047,9.1.793,6.207,1.4,8.121,1.68,12.275,1.82a29.061,29.061,0,0,0,10.2-1.1c1.96-.607,2.077-1.027.233-.793a64.807,64.807,0,0,1-10.8-.14c-1.213-.14-4.27-.7-6.767-1.19C16.568.1,15.682-.014,12.485.57a27.878,27.878,0,0,1-9.451,0C2.077.36,1,.126.653.033.28-.037,0,.01,0,.126Z" transform="translate(33.43 153.993)"/>
    </g>
    <rect id="box" width="350" height="520" transform="translate(30 21)" fill="none"/>
  </g>
</svg>
