<svg xmlns="http://www.w3.org/2000/svg" width="350" height="520" viewBox="0 0 350 520">
  <g id="clound" transform="translate(-30 -21)">
    <g id="Group_7" data-name="Group 7" transform="translate(230.771 141.831) rotate(180)">
      <rect id="Rectangle_12" data-name="Rectangle 12" width="168" height="24" rx="12" transform="translate(18.771 -0.169)" fill="#e88e84"/>
      <rect id="Rectangle_13" data-name="Rectangle 13" width="122" height="24" rx="12" transform="translate(1.771 22.831)" fill="#e88e84"/>
      <rect id="Rectangle_15" data-name="Rectangle 15" width="131" height="24" rx="12" transform="translate(13.771 69.831)" fill="#e88e84"/>
      <path id="Path_2" data-name="Path 2" d="M0,0H33.386s-8.94,5.688-8.94,11.65,8.94,12.2,8.94,12.2H0s10.733-6.236,10.733-12.2S0,0,0,0Z" transform="translate(62.996 46.689)" fill="#e88e84"/>
    </g>
    <g id="Group_130" data-name="Group 130" transform="translate(323.771 396.831) rotate(180)">
      <rect id="Rectangle_13-2" data-name="Rectangle 13" width="122" height="24" rx="12" transform="translate(18.771 22.831)" fill="#e88e84"/>
      <rect id="Rectangle_15-2" data-name="Rectangle 15" width="131" height="24" rx="12" transform="translate(-9.229 69.831)" fill="#e88e84"/>
      <path id="Path_2-2" data-name="Path 2" d="M0,0H33.386s-8.94,5.688-8.94,11.65,8.94,12.2,8.94,12.2H0s10.733-6.236,10.733-12.2S0,0,0,0Z" transform="translate(62.996 46.689)" fill="#e88e84"/>
    </g>
    <rect id="box" width="350" height="520" transform="translate(30 21)" fill="none"/>
  </g>
</svg>
