<svg xmlns="http://www.w3.org/2000/svg" xmlns:xlink="http://www.w3.org/1999/xlink" width="120.141" height="120.141" viewBox="0 0 120.141 120.141">
  <defs>
    <linearGradient id="linear-gradient" x1="0.5" x2="0.5" y2="1" gradientUnits="objectBoundingBox">
      <stop offset="0" stop-color="#bf6363"/>
      <stop offset="1" stop-color="#b9a8a8"/>
    </linearGradient>
  </defs>
  <g id="home" transform="translate(-127.401 -752.369)">
    <g id="rect" transform="translate(-147 37)">
      <g id="Group_115" data-name="Group 115" transform="translate(274.401 715.369)">
        <g id="Rectangle_1" data-name="Rectangle 1" transform="translate(60.071) rotate(45)" stroke="#503939" stroke-width="2" fill="url(#linear-gradient)">
          <rect width="84.953" height="84.953" stroke="none"/>
          <rect x="1" y="1" width="82.953" height="82.953" fill="none"/>
        </g>
        <g id="Rectangle_7" data-name="Rectangle 7" transform="translate(23.188 52.901) rotate(135)" fill="#bf6363" stroke="#503939" stroke-width="2">
          <rect width="11.327" height="11.327" stroke="none"/>
          <rect x="1" y="1" width="9.327" height="9.327" fill="none"/>
        </g>
        <g id="Rectangle_9" data-name="Rectangle 9" transform="translate(112.217 52.901) rotate(135)" fill="#bf6363" stroke="#503939" stroke-width="2">
          <rect width="11.327" height="11.327" stroke="none"/>
          <rect x="1" y="1" width="9.327" height="9.327" fill="none"/>
        </g>
        <g id="Rectangle_8" data-name="Rectangle 8" transform="translate(23.188 67.326) rotate(135)" fill="#bf6363" stroke="#503939" stroke-width="2">
          <rect width="11.327" height="11.327" stroke="none"/>
          <rect x="1" y="1" width="9.327" height="9.327" fill="none"/>
        </g>
        <g id="Rectangle_10" data-name="Rectangle 10" transform="translate(112.217 67.326) rotate(135)" fill="#bf6363" stroke="#503939" stroke-width="2">
          <rect width="11.327" height="11.327" stroke="none"/>
          <rect x="1" y="1" width="9.327" height="9.327" fill="none"/>
        </g>
      </g>
    </g>
    <g id="home-2" data-name="home" transform="translate(128 752)">
      <path id="t-5" d="M97.5,5,107,6l1,4-20,.5,2,.5,1,2.5-4,3,3.5.5,4-2,7.5,4.5-2,8q2.2,1.3,1,6l-1,1V42q-5.4.9-7.5-3l-8,3H79l-1-3.5,2-4q-2.2-1.3-1-6l1-2-3-4V20l3.5,1q4.3-2.8,3.5-9l-7.5,1L71,10.5,76.5,8h7ZM85,20q-5,2-1,4l4-1q5,2,4-2Zm8,3-1,3-7,2v1l8-1Zm0,8L83,34l1,3,9-1Z" fill="#503939"/>
      <path id="t-4" d="M36,7h6v3.5L34.5,14l.5-1.5Z" fill="#503939"/>
      <path id="t-3" d="M18,11q4.3-1,5.5,2L26,12q.8,3.4-2,4.5l10.5.5,1-1h13L51,17l-1.5,3q-6.8,1.3-10-1h-2q-6.3-2.2-4.5,3.5L32,25l-5,1.5,3.5.5,1-1h10L43,28.5q-3.3,1.3-2,7v13L39.5,50l-7-1-1,1H22l-1-5.5q2.7-2.3,2-8l-4-7,1.5.5,2,1q4.2-1.7,1.5-3.5L26,21,14.5,24,10,22q-1.1-2.7,1.5-2l3-2,9.5-.5L19,16ZM32,29l-7,2,1,2,9-2Q36,28,32,29Zm4,3-5,3q-4-1-3,2l3-1q5-2,4,2l-6,2q-3-1-2,6v1q6,1,9-2Z" fill="#503939"/>
      <path id="t-2" d="M79,43h6v4.5L81.5,52,76,53l3-6.5Z" fill="#503939"/>
      <path id="t-1" d="M96,43q7.5-.2,11,4.5l1,4.5q-8.9-.2-12-7.5Z" fill="#503939"/>
    </g>
  </g>
</svg>
