<svg xmlns="http://www.w3.org/2000/svg" xmlns:xlink="http://www.w3.org/1999/xlink" width="350" height="520" viewBox="0 0 350 520">
  <defs>
    <linearGradient id="linear-gradient" x1="0.153" y1="0.153" x2="0.965" y2="0.965" gradientUnits="objectBoundingBox">
      <stop offset="0" stop-color="#bf6363"/>
      <stop offset="1" stop-color="#b91717"/>
    </linearGradient>
    <linearGradient id="linear-gradient-2" x1="0.5" y1="0.901" x2="0.5" y2="0.322" gradientUnits="objectBoundingBox">
      <stop offset="0" stop-color="#c54b4b"/>
      <stop offset="1" stop-color="#de8282"/>
    </linearGradient>
    <linearGradient id="linear-gradient-3" x1="0.885" y1="0.885" x2="0.086" y2="0.086" gradientUnits="objectBoundingBox">
      <stop offset="0" stop-color="#bf6363"/>
      <stop offset="1" stop-color="#dc4a4a"/>
    </linearGradient>
    <linearGradient id="linear-gradient-4" x1="0.12" y1="0.12" x2="0.884" y2="0.884" gradientUnits="objectBoundingBox">
      <stop offset="0" stop-color="#bf6363"/>
      <stop offset="1" stop-color="#cb3737"/>
    </linearGradient>
  </defs>
  <g id="main-back" transform="translate(-12 -95)">
    <g id="Bigrect" transform="translate(-10)">
      <g id="Rectangle_1" data-name="Rectangle 1" transform="translate(197.5 196.401) rotate(45)" stroke="#503939" stroke-width="10" fill="url(#linear-gradient)">
        <rect width="225" height="225" stroke="none"/>
        <rect x="5" y="5" width="215" height="215" fill="none"/>
      </g>
      <g id="Rectangle_3" data-name="Rectangle 3" transform="translate(183.5 457.401) rotate(45)" fill="#bf6363" stroke="#503939" stroke-width="10">
        <rect width="30" height="30" stroke="none"/>
        <rect x="5" y="5" width="20" height="20" fill="none"/>
      </g>
      <g id="Rectangle_5" data-name="Rectangle 5" transform="translate(183.5 214.401) rotate(45)" fill="#bf6363" stroke="#503939" stroke-width="10">
        <rect width="30" height="30" stroke="none"/>
        <rect x="5" y="5" width="20" height="20" fill="none"/>
      </g>
      <g id="Rectangle_7" data-name="Rectangle 7" transform="translate(95.213 341.114) rotate(135)" fill="#bf6363" stroke="#503939" stroke-width="10">
        <rect width="30" height="30" stroke="none"/>
        <rect x="5" y="5" width="20" height="20" fill="none"/>
      </g>
      <g id="Rectangle_9" data-name="Rectangle 9" transform="translate(340.213 341.114) rotate(135)" fill="#bf6363" stroke="#503939" stroke-width="10">
        <rect width="30" height="30" stroke="none"/>
        <rect x="5" y="5" width="20" height="20" fill="none"/>
      </g>
      <g id="Rectangle_4" data-name="Rectangle 4" transform="translate(212.5 457.401) rotate(45)" fill="#bf6363" stroke="#503939" stroke-width="10">
        <rect width="30" height="30" stroke="none"/>
        <rect x="5" y="5" width="20" height="20" fill="none"/>
      </g>
      <g id="Rectangle_6" data-name="Rectangle 6" transform="translate(212.5 214.401) rotate(45)" fill="#bf6363" stroke="#503939" stroke-width="10">
        <rect width="30" height="30" stroke="none"/>
        <rect x="5" y="5" width="20" height="20" fill="none"/>
      </g>
      <g id="Rectangle_8" data-name="Rectangle 8" transform="translate(95.213 370.114) rotate(135)" fill="#bf6363" stroke="#503939" stroke-width="10">
        <rect width="30" height="30" stroke="none"/>
        <rect x="5" y="5" width="20" height="20" fill="none"/>
      </g>
      <g id="Rectangle_10" data-name="Rectangle 10" transform="translate(340.213 370.114) rotate(135)" fill="#bf6363" stroke="#503939" stroke-width="10">
        <rect width="30" height="30" stroke="none"/>
        <rect x="5" y="5" width="20" height="20" fill="none"/>
      </g>
    </g>
    <g id="rect" transform="translate(111.099 279.023)" fill="url(#linear-gradient-2)">
      <path d="M 148 148 L 4 148 L 4 4 L 148 4 L 148 148 Z" stroke="none"/>
      <path d="M 8 8 L 8 144 L 144 144 L 144 8 L 8 8 M 0 0 L 152 0 L 152 152 L 0 152 L 0 0 Z" stroke="none" fill="#503939"/>
    </g>
    <g id="Rectangle_1-2" data-name="Rectangle 1" transform="translate(187.451 96.401) rotate(45)" stroke="#503939" stroke-width="10" fill="url(#linear-gradient-3)">
      <rect width="70.781" height="70.781" stroke="none"/>
      <rect x="5" y="5" width="60.781" height="60.781" fill="none"/>
    </g>
    <g id="Rectangle_1-3" data-name="Rectangle 1" transform="translate(187.451 514.401) rotate(45)" stroke="#503939" stroke-width="10" fill="url(#linear-gradient-4)">
      <rect width="70.781" height="70.781" stroke="none"/>
      <rect x="5" y="5" width="60.781" height="60.781" fill="none"/>
    </g>
    <rect id="box" width="350" height="520" transform="translate(12 95)" fill="none"/>
  </g>
</svg>
