<svg xmlns="http://www.w3.org/2000/svg" width="350" height="520" viewBox="0 0 350 520">
  <g id="main-text" transform="translate(-12 -95)">
    <g id="four" transform="translate(138 245)">
      <path id="four-3" d="M62.5,33h7L84,38q-1,3,2,2v2.5l-7,6L76,62l-3,1.5L71.5,67q-2.3-3.2-9-2l-12,4h-16l-8,2L12,43.5l1.5.5,7,2L23,45l-1,3.5A18.632,18.632,0,0,1,29,61l5.5,1,2,2h6L64,59l-.5-5h-15L44,50.5,41.5,43,39,44.5l2,.5v9.5L37.5,58q-3.7,1.3-2.5-2.5l1-5L35,46l-3.5,1L27,39.5l2.5-.5h2l11-3,19-2ZM64,36a33.261,33.261,0,0,1-18,5q-1,4,4,2v6l5,1,7-2,3,1V37Z" fill="#fff"/>
      <path id="four-2" d="M40.5,126l9.5,2,1,3.5q-1.3,3.5-6,2.5,1.3,3.3-3.5,2l-10,4,5.5-6.5,1-6.5Z" fill="#fff"/>
      <path id="four-1" d="M39,139h7.5l.5,3h3.5l2-2h11l3.5,1q1.5,3.7-1.5,3-2.3,3.2-9,2l-2-1L49,146.5,63.5,159,87,168q2.3,6.4-5.5,4l-12-3-8-4-2,3L56,169l-2,5-6,2.5q3,3,10.5,1.5l3-1,10,2,3.5,2.5-.5,2.5h-12q-3.2-3-9.5-2l-1,4.5,1,4L50,209l-6-2.5-3-5,5-1.5V184.5l-1.5-.5-16,6h-4L18,187.5q-.7-2.2,1.5-1.5l2.5-1,.5-2h8L43,179.5,40,178v-3h6.5l.5-1.5,1-3-1.5.5q-2.3,3.2-9,2L32,170q1.1-2.7-1.5-2l-10,7,2.5-3.5,7-12,1-5.5H27.5L19,150.5l7.5-3.5,10-1,2.5-2.5Zm2,14-8,14v1l8-1,1-1-3-8,3-1Q43,152,41,153Zm7,0-2,11,6-2,6,2h1l-6-5Z" fill="#fff"/>
    </g>
    <rect id="box" width="350" height="520" transform="translate(12 95)" fill="none"/>
  </g>
</svg>
