<svg xmlns="http://www.w3.org/2000/svg" xmlns:xlink="http://www.w3.org/1999/xlink" width="318.198" height="518.099" viewBox="0 0 318.198 518.099">
  <defs>
    <linearGradient id="linear-gradient" x1="0.153" y1="0.153" x2="0.965" y2="0.965" gradientUnits="objectBoundingBox">
      <stop offset="0" stop-color="#bf6363"/>
      <stop offset="1" stop-color="#b91717"/>
    </linearGradient>
    <linearGradient id="linear-gradient-2" x1="0.5" y1="0.901" x2="0.5" y2="0.322" gradientUnits="objectBoundingBox">
      <stop offset="0" stop-color="#c54b4b"/>
      <stop offset="1" stop-color="#de8282"/>
    </linearGradient>
    <linearGradient id="linear-gradient-3" x1="0.885" y1="0.885" x2="0.086" y2="0.086" gradientUnits="objectBoundingBox">
      <stop offset="0" stop-color="#bf6363"/>
      <stop offset="1" stop-color="#dc4a4a"/>
    </linearGradient>
    <linearGradient id="linear-gradient-4" x1="0.12" y1="0.12" x2="0.884" y2="0.884" gradientUnits="objectBoundingBox">
      <stop offset="0" stop-color="#bf6363"/>
      <stop offset="1" stop-color="#cb3737"/>
    </linearGradient>
  </defs>
  <g id="main" transform="translate(-28.401 -96.401)">
    <g id="Bigrect" transform="translate(-10)">
      <g id="Rectangle_1" data-name="Rectangle 1" transform="translate(197.5 196.401) rotate(45)" stroke="#503939" stroke-width="10" fill="url(#linear-gradient)">
        <rect width="225" height="225" stroke="none"/>
        <rect x="5" y="5" width="215" height="215" fill="none"/>
      </g>
      <g id="Rectangle_3" data-name="Rectangle 3" transform="translate(183.5 457.401) rotate(45)" fill="#bf6363" stroke="#503939" stroke-width="10">
        <rect width="30" height="30" stroke="none"/>
        <rect x="5" y="5" width="20" height="20" fill="none"/>
      </g>
      <g id="Rectangle_5" data-name="Rectangle 5" transform="translate(183.5 214.401) rotate(45)" fill="#bf6363" stroke="#503939" stroke-width="10">
        <rect width="30" height="30" stroke="none"/>
        <rect x="5" y="5" width="20" height="20" fill="none"/>
      </g>
      <g id="Rectangle_7" data-name="Rectangle 7" transform="translate(95.213 341.114) rotate(135)" fill="#bf6363" stroke="#503939" stroke-width="10">
        <rect width="30" height="30" stroke="none"/>
        <rect x="5" y="5" width="20" height="20" fill="none"/>
      </g>
      <g id="Rectangle_9" data-name="Rectangle 9" transform="translate(340.213 341.114) rotate(135)" fill="#bf6363" stroke="#503939" stroke-width="10">
        <rect width="30" height="30" stroke="none"/>
        <rect x="5" y="5" width="20" height="20" fill="none"/>
      </g>
      <g id="Rectangle_4" data-name="Rectangle 4" transform="translate(212.5 457.401) rotate(45)" fill="#bf6363" stroke="#503939" stroke-width="10">
        <rect width="30" height="30" stroke="none"/>
        <rect x="5" y="5" width="20" height="20" fill="none"/>
      </g>
      <g id="Rectangle_6" data-name="Rectangle 6" transform="translate(212.5 214.401) rotate(45)" fill="#bf6363" stroke="#503939" stroke-width="10">
        <rect width="30" height="30" stroke="none"/>
        <rect x="5" y="5" width="20" height="20" fill="none"/>
      </g>
      <g id="Rectangle_8" data-name="Rectangle 8" transform="translate(95.213 370.114) rotate(135)" fill="#bf6363" stroke="#503939" stroke-width="10">
        <rect width="30" height="30" stroke="none"/>
        <rect x="5" y="5" width="20" height="20" fill="none"/>
      </g>
      <g id="Rectangle_10" data-name="Rectangle 10" transform="translate(340.213 370.114) rotate(135)" fill="#bf6363" stroke="#503939" stroke-width="10">
        <rect width="30" height="30" stroke="none"/>
        <rect x="5" y="5" width="20" height="20" fill="none"/>
      </g>
    </g>
    <g id="rect" transform="translate(111.099 279.023)" fill="url(#linear-gradient-2)">
      <path d="M 148 148 L 4 148 L 4 4 L 148 4 L 148 148 Z" stroke="none"/>
      <path d="M 8 8 L 8 144 L 144 144 L 144 8 L 8 8 M 0 0 L 152 0 L 152 152 L 0 152 L 0 0 Z" stroke="none" fill="#503939"/>
    </g>
    <g id="four" transform="translate(138 245)">
      <path id="four-3" d="M62.5,33h7L84,38q-1,3,2,2v2.5l-7,6L76,62l-3,1.5L71.5,67q-2.3-3.2-9-2l-12,4h-16l-8,2L12,43.5l1.5.5,7,2L23,45l-1,3.5A18.632,18.632,0,0,1,29,61l5.5,1,2,2h6L64,59l-.5-5h-15L44,50.5,41.5,43,39,44.5l2,.5v9.5L37.5,58q-3.7,1.3-2.5-2.5l1-5L35,46l-3.5,1L27,39.5l2.5-.5h2l11-3,19-2ZM64,36a33.261,33.261,0,0,1-18,5q-1,4,4,2v6l5,1,7-2,3,1V37Z" fill="#fff"/>
      <path id="four-2" d="M40.5,126l9.5,2,1,3.5q-1.3,3.5-6,2.5,1.3,3.3-3.5,2l-10,4,5.5-6.5,1-6.5Z" fill="#fff"/>
      <path id="four-1" d="M39,139h7.5l.5,3h3.5l2-2h11l3.5,1q1.5,3.7-1.5,3-2.3,3.2-9,2l-2-1L49,146.5,63.5,159,87,168q2.3,6.4-5.5,4l-12-3-8-4-2,3L56,169l-2,5-6,2.5q3,3,10.5,1.5l3-1,10,2,3.5,2.5-.5,2.5h-12q-3.2-3-9.5-2l-1,4.5,1,4L50,209l-6-2.5-3-5,5-1.5V184.5l-1.5-.5-16,6h-4L18,187.5q-.7-2.2,1.5-1.5l2.5-1,.5-2h8L43,179.5,40,178v-3h6.5l.5-1.5,1-3-1.5.5q-2.3,3.2-9,2L32,170q1.1-2.7-1.5-2l-10,7,2.5-3.5,7-12,1-5.5H27.5L19,150.5l7.5-3.5,10-1,2.5-2.5Zm2,14-8,14v1l8-1,1-1-3-8,3-1Q43,152,41,153Zm7,0-2,11,6-2,6,2h1l-6-5Z" fill="#fff"/>
    </g>
    <g id="Rectangle_1-2" data-name="Rectangle 1" transform="translate(187.451 96.401) rotate(45)" stroke="#503939" stroke-width="10" fill="url(#linear-gradient-3)">
      <rect width="70.781" height="70.781" stroke="none"/>
      <rect x="5" y="5" width="60.781" height="60.781" fill="none"/>
    </g>
    <g id="Rectangle_1-3" data-name="Rectangle 1" transform="translate(187.451 514.401) rotate(45)" stroke="#503939" stroke-width="10" fill="url(#linear-gradient-4)">
      <rect width="70.781" height="70.781" stroke="none"/>
      <rect x="5" y="5" width="60.781" height="60.781" fill="none"/>
    </g>
  </g>
</svg>
