<svg xmlns="http://www.w3.org/2000/svg" width="800" height="800" viewBox="0 0 800 800">
  <g id="pngegg" transform="translate(-6.901)">
    <g id="Sizing_Rectangle" data-name="Sizing Rectangle" transform="translate(6.901)" fill="rgba(0,0,0,0)" stroke="rgba(0,0,0,0)" stroke-width="1">
      <rect width="800" height="800" stroke="none"/>
      <rect x="0.5" y="0.5" width="799" height="799" fill="none"/>
    </g>
    <g id="cloud">
      <path id="red-08" d="M420.5,88l20,1,13,3.987,11,5.981L480,112.422l6,10.965,2,7.975v24.921q-3.6,14.853-12,24.921l11,8.971,4,6.978,1,13.956q-2.7,1.794-1,7.975l-3,5.981-1,6.978L480,245v2.99l-2.5,2.492q-2.2-.7-1.5,1.5l-7.5,10.467q-2.2-.7-1.5,1.5l-4,2.99-1.5,2.492-4,1.994-1.5-.5-1,3.489-7,1,1,4.486-1,3.489-11,2.99-1.5-3.987-.5,4.984-2.5-1-5.5,4.486,2.5.5q2.1-3.888,7.5-2.99l-3.5,4.984q-3.3-1.1-2.5,1.5l-14.5,8.473-11,1.994-4,2.99h-5l-2,1.994-7,1-5,2.99-1.5-2.492,13-4.984-5.5-.5-5,1.994-2-1L375,309.3l.5,2.99,4.5-1v2.99h-3q1.7,4.087-2.5,2.99l-4.5,1,1.5-2.99,2.5-1.5-1.5-.5-6.5,3.489q3.7,1.794.5,3.489l-4.5,1,1.5-2.99,2.5-.5q-1.2-2.691-2.5-.5l-9.5,4.486,2,.5-1.5,2.99q-6.1,1.3-5.5-1.5l-1.5.5-14,3.987-25,11.962-3,2.99-10,3.987-5,4.984-7,1.994-7,5.981-4,1L260,369.6l-4.5,5.483q-2.6-.8-1.5,2.492l-11,8.473-1,4.984-5,1.994-12.5,16.946q-2.2-.7-1.5,1.5l-1,2.492q-2.7-1.1-2,1.5l-4,7.975-5,4.984-1,4.984-10,16.946-3,9.968,1,2.99-3,2.99-3,16.946v1.994l-1,16.946-1,1v17.943l1,1.994v11.962l3,11.962v1.994l4,19.937,6,16.946,3.5,5.482.5-2.492-1-4.984-3-4.984v-4.984l-2-1.994-4-35.886,1-2.99-1-1.994,2-10.965-1-2.99,1-1V502.181l2-8.971-1-1.994,4-17.943,2-1.994,1-7.975,4-9.47,2-.5-2-.5,6-12.46,13.5-20.435q2.6-.7,1.5,1.994h2l2-3.489-3-1.994,4-2.492.5,2.99,1.5-3.489-1-2.99,6-3.489q-1.2,2.99,2.5,1.994,3-1.5,0-2.99-2.2.8-1.5-1.5l5.5-8.473q2.3-.7,1.5,1.5h1l3.5-4.486,4.5-3.489,2.5-3.489,4.5-1.994v-1.994h4q-1.2-2.99,2.5-1.994,1.3-2.99,5.5-1.994l.5,1.994,1-1.994q1.3,2.293,2.5-.5-.7-5.682,3.5-6.479l.5,1.994,3.5,1,2-2.99h2l3-1h2l2.5-.5-3-1,6-2.492q-1.1-2.691,1.5-1.994l3.5,2.492.5,1.5,2-3.987,2,1,5-1.994,4.5,1q1.1,2.691-1.5,1.994l-2,1h-2l-3-1-.5,1.994-9,1.994q1.1-2.691-1.5-1.994l.5,1.5q1.3,3.788-2.5,2.492l1,1.994,5-1,2-1.994h7q1.4-2.592,6-1.994l2.5,1.5.5-1.5,2,1q2.3-2.691,7.5-2.492l-5.5-1.5-2,1-3.5-1q-1.1-2.691,1.5-1.994l2-1,3,1,6-1,20,4.984A68.922,68.922,0,0,1,383,385.552l6,10.965,1,12.959-2,6.978-2,1.994,9.5,1.5,6.5,3.987,7,12.46,2,10.965v11.962l-2,10.965-7,14.454q-2.7-1.1-2,1.5l-4,5.483-13.5,8.971-13,1.994-4.5-1-2,9.47-10.5,11.463-7,3.987-10,2.99h-25l-5-1.994-13-1.994L278,518.629q1.1-2.691-1.5-1.994A43.051,43.051,0,0,1,262,497.2l-2-7.975V472.276l2-8.971,7.5-11.464q2.3.8,1.5-1.5l12.5-8.473,9-1.994h7l10,2.99,9.5,8.473,4,9.968v7.975l-4.5,7.476-6.5,1.994.5,1.994h10l5.5-1.994q-1.1-2.691,1.5-1.994l4.5-5.483,4-8.971V447.356l-4-12.46q-3,1.3-2-2.492l-5-7.476h-2.5l-5.5-3.489.5-1.5q-6.8.7-9-2.99h-14l-5,2.99-6,1-3-1-6.5,5.483-1.5,2.492-5.5,1.994-1.5,3.987q-2.6-.8-1.5,2.492l-4,2.99q.8,2.293-1.5,1.5L257,445.86q-2.7-1.1-2,1.5l-3,2.99-4,10.965-11,14.952,1,1.994-4,8.971-2,9.968-2,2.99-1,8.971-2,3.987-3,35.886,1,1v17.943l4,21.93,8,22.927,7,13.956,3.5,3.489.5-1.5-5-14.952-1-17.943,1-1,1-14.952,6-13.956,4-5.483q2.7,1.1,2-1.5l11.5-7.476,8-1,5,1,4,2.99a18.6,18.6,0,0,1,9-10.965l7-1.994h10q1.3,2.293,6,1l9.5,6.479q-.7,2.592,2,1.5v2.492q3,2.99,3,8.971l-1,3.489h5.5l7.5,6.479,3,7.975V589.9q-2.8,13.358-10,21.432l-12.5,6.978-13,1-7-1.994-4.5-3.489-2-2.99q-5.3-3.688-4-13.956l5.5-8.473q2.7-2.791,9-1.994l5.5,2.99,1,3.987q4,1.4,2-5.482l-3.5-5.483q-2.6.7-1.5-1.994h-2.5q-4.7-3.788-15-1.994l-5,1.994L278,589.9l-5,10.965-1,15.949,1,1v8.971l5,8.971,2,8.971,14,23.425,3,1.5q-.7,2.293,1.5,1.5l5,5.981,3,1.994L311,685.1l16.5,12.959,12.5,6.978q-1.1,2.691,1.5,1.994l7.5,3.987q-1.1,2.691,1.5,1.994,3,1.5,0,2.99l-10-4.984-5-1-4-2.99-9-1.994-15-5.981h-2L288,691.079q1.3-2.99-2.5-1.994L272,681.111l-4.5-5.981-23-10.965L229,651.7q.8-2.193-1.5-1.5l-10-10.965-2.5-1.5-1.5-2.492q-2.6.8-1.5-2.492l-1-2.492q-3,1-2-1.994h-3v-1.5l-2-4.486-3-1.5-1.5-3.489q-2.2-.7-1.5,1.5l13,18.94q-1.5,2.99-3,0,.8-2.193-1.5-1.5l-9.5-8.473q.8-2.193-1.5-1.5L193,622.3q-2.7,1.1-2-1.5l-5-8.473q-2.7,1.1-2-1.5l-5-6.978v-2.492q-2.7,1.1-2-1.5l-22-38.876-11-28.908V528.1l-2-2.99-2-14.952-2-4.984V476.263l2-6.978,1-21.93a11.644,11.644,0,0,0-6.5-8.473l-9-1-5.5,4.486-2,6.479q3,1.3,2-2.492,3-3.489,9.5-3.489l7.5,3.489q2.9,3.589,2,10.965-1.7,9.27-8.5,13.457-3.7,3.289-12,1.994A26.658,26.658,0,0,1,105,462.308l-4-10.965V438.384l5-10.467,7.5-3.987H120v-7.476l4-6.479q6-5.682,19.5-4.984l4,1,4.5,3.489,3,6.978v3.987l-2,5.483q7-1,10,3.489-.7,2.592,2,1.5V433.4l1,1v8.971l-6,11.962-2,13.956-2,4.984-1,32.9,1,1v8.971l2,4.984,2,14.952,2,2.99,1,6.978,7,19.937,14,28.908,11.5,18.441.5-1.5-3.5-8.473-2.5-1.5-13-26.914L173,560.5q3.8,1.5,3-1.5l-3-6.978,1-1.994q-2.9-3.888-2-10.467-3.7,1.5-3-1.5l-2-2.99q2.8-1.794,1-7.975l-1-1.994,1-2.492q-2.7,1.1-2-1.5l1-4.984-1-1V497.2l1-1V485.235l-1-4.984,3-15.949V448.352l1-2.492q3.3,1.3,2-3.489l5-16.946,3-3.987-1-2.99,2-6.978,2.5-2.492,1.5-.5q-2.5-1.5,1-2.99l8-14.952,1-4.984,7-8.971v-2.99l2-3.489h4q-1.1-2.691,1.5-1.994l2.5-1.5-1-3.987v-1.994q-.7-2.193,1.5-1.5l2-1h2q2.6.8,1.5-2.492l8-12.46,4-.5-.5-1.5,3.5,1v-4.984h1.5l1.5.5q-.7-2.592,2-1.5-1.5,3.688,1.5,2.99l2.5-1q1.3-2.99-2.5-1.994l-1.5-2.99q2.7,1.1,2-1.5,1.2-2.492,5-1.5l1.5-2.99q2.3-.7,1.5,1.5l-1,2.492h2.5l8.5-5.981,1.5-2.99,5.5-3.489-1.5-.5-8,5.981H253q1.3,2.99-2.5,1.994l1.5-2.492q-.7-2.193,1.5-1.5l3.5-1,1.5-2.99,5.5-1v-1.994q3.8,1.5,3-1.5l1.5-3.489,2,1,1.5-.5q-1.2,3.788,2.5,2.492l2.5-1-.5-1.994h-2q-3,.7-1.5-2.99l8.5-1L289,308.3q-1.1-2.691,1.5-1.994h2l1.5-.5-1-2.492q3.8,1.5,3-1.5l19-8.971-1.5-.5L296,298.33q1.1,2.691-1.5,1.994l-3.5,1q1.1,3.289-3,1.994l2.5-3.987,5.5-1q-1.1-2.691,1.5-1.994l5-3.987,7.5-1.994v-1.994h3q-1.1-2.691,1.5-1.994l2-1,2.5,1q-1.1-2.691,1.5-1.994l6-2.99h3l31-16.946h3l7-5.981,1,1,8-5.981,3-1.994,4.5-1.994,18-23.425,7-23.924v-7.975q-3.2-13.258-11.5-21.432l-3-1.994-14-6.978-12-1-13,3.987L346,177.216l-4,7.975-1,11.962,1.5,3.489q2.1-10.367,9-15.949l9-3.987h7l9,2.99,5.5,5.483q-.7,2.592,2,1.5v2.492l4,10.965V212.1l-4,13.956-12.5,15.451a50.767,50.767,0,0,1-19,9.968l-7,1.994-18,1-17-3.987L299,243.5q1.1-2.691-1.5-1.994A52.739,52.739,0,0,1,282,218.086l-1-8.971-2-4.984V180.206l2-4.984,2-14.952,5-9.968,1-4.984a92.724,92.724,0,0,1,15.5-22.429q2.3.8,1.5-1.5l8-5.483q-1.1-2.691,1.5-1.994l15-8.971,15-4.984,5-1h22l8,2.99,6,5.981,8-9.968,10-5.981Zm4.5,82.736-1,1.994,6,7.975,4,8.971,1,10.965,1,1L435,213.6l-2,6.978a74.067,74.067,0,0,1-13,20.933,129.98,129.98,0,0,1-33,26.914l-2,2.99,8-3.987,23-16.946,1-2.99,7-4.984q-1-2.99,2-1.994l12-18.94,3-11.962-1-12.959-3-7.975ZM381,272.413l-3,1.994v1q4,0,4-1.994Zm-5,2.99-5,2.99v1l6-2.99Zm-7,3.987-2,1-1,1.994,4-1.994Zm-8,3.987-1,1.994,3-1Zm-6,2.99-15,7.975,1,1.994,16-8.971Zm-33,1-2,2.99,4-1.994Zm-4,2.99-2,1v1l3-1Zm101,0-2,1.994q1,1.994-2,1l-3,3.987,4-1q1-3.987,3-1l7-1.994v-2.99Zm-13,6.978-1,2.99,4,1,2-1V298.33Zm-3,3.987-2,1.994q-7-1-6,1.994v1h4q-1-2.99,4-1.994ZM272,313.283l-3,1.994h3Zm-27,17.943v1.994l-3,1,1,1.994,2-1,2-2.99Zm-9,7.975q-1,2.99,2,1.994Q239,338.2,236,339.2Zm12,13.956v1.994l2-1Zm-6,4.984v1.994l2-1ZM228,371.1l-2,1.994h2Zm72,2.99,1,1.994Q302,373.092,300,374.089Zm8,22.927-1,1h-9l-8,1.994-8,3.987q-4-1-3,1.994l-4,1-2,2.99L289,403a21.031,21.031,0,0,0,11-2.99h18L326,402l9,3.987,8,5.981q9,5.981,13,18.94h1q-1-8.971-5-13.956l-11-10.965q-3,1-2-1.994l-12-4.984ZM254,401,252,403h3Q256,400.006,254,401Zm50,7.975v1.994l2-1Zm-33,1-2,1-2,2.99,5-2.99Zm-30,1v1.994l2-1Zm-57,2.99-1,2.99h1Zm78,2.99-2,1.994h2Zm-80,3.987q-1,3.987,2,2.99Q185,419.943,182,420.94Zm51,1.994-1,2.99h1Zm-2,1.994-1,3.987h1Zm19,4.984-2,2.99,2-1Zm-57,1-2,3.987,2-1Zm34,2.99-2,2.99,2-1Zm19,1.994-2,1.994h2Zm-3,3.987-2,2.99,2-1Zm-24,6.978-2,2.99,2-1Zm-8,13.956-1,4.984,1,1.994,2-5.981Zm6,40.87-1,2.99h1Zm-3,2.99-1,4.984h1Zm-4,37.879-1,2.99h1Zm0,53.829-2,1.994q-1,2.99,3,1Zm168,5.981-2,2.99h2Zm-164,4.984-1,2.99h1Zm150,2.99-1,2.99h1Zm71,1.994-1,1-20,1.994L397,622.3a36.3,36.3,0,0,0-12,15.949V654.2l2,3.987,1-13.956,6-9.968,14-9.968,20-5.981q5,1.994,7-1h43l-11-2.99-15-1-1-1Zm47,4.984v1h2ZM249,630.273l-1,2.99,2,1Z" fill="#7f0000"/>
      <path id="red-07" d="M473,97l15.5,2,3,2,20,6,8,5h3l11,9,7.5,4,1.5,3,5.5,3,1.5,3,6.5,5.5q-.7,2.3,1.5,1.5l1.5,4,3.5,1-1.5-2.5-5.5-8.5-2.5-1.5.5-1.5,9.5,7.5q-.7,2.3,1.5,1.5l1.5,3h1.5L580,156.5l3,5.5q2.7-1.1,2,1.5l11,17,10,25,7,32,1,32,1,1v7l2,5,1,11,4,13,7.5,8.5,7,4,8,1,4-1,5.5-5.5q.8-2.2-1.5-1.5l-3,2-7,1-10-3-4.5-4.5q-6-6-4-20a38.329,38.329,0,0,1,8-15.5l11.5-7,14-1,8,2,8.5,5.5,7,14v13L678,310l8,2q-1.1,2.7,1.5,2l5.5,7.5,2,8v8l-3,12L683.5,361q-5.6,6.4-19,5l-10-3a13.63,13.63,0,0,0-10.5-8l-3.5,6-11,6-10,1-10-4-6.5-5.5q.8-2.2-1.5-1.5L590,339.5l-2-11-2-3-1-15,1-2-1-5,1-2-1-2v-2l1-2-1-3,4-15-1-2,5-14,1-22,2-5-1-4,1-3-2-4v-2l-1-16q-3-2-2-8A98.944,98.944,0,0,0,578.5,170l-.5,2.5,7,15,2,11,2,4,1,29-1,1v10l-2,4-1,8A32.151,32.151,0,0,1,575.5,268L562,271q-1.2,11-9.5,16l-6,3h-15l-8-3-9.5-8.5-5-9v-11l5-10.5a23.691,23.691,0,0,1-13-9.5l-6-14v-12q3-4,3-11l7.5-10.5,9-6,14-1,14.5,7,5,10.5v12q-1.6,6.9-7.5,9.5l-9,1-3.5-1,2,6,4.5,3,8,1q8.1-1.4,11.5-7.5l4-8,1-19-1-1-1-12-2-3-2-10-5-8v-4l-2-3.5-3-1.5v-2l-7-9V142l-4-2.5-1.5-2.5-4.5-2-5.5-7L504,115.5q.8-2.2-1.5-1.5l-9.5-5q1.3-3.3-3.5-2L473,98.5Zm100,63q-2,3,1,2Zm1,14-1,3h1Zm4,30-2,15-5,11-2,3a21.118,21.118,0,0,1-10,7v1q6,1,8-3l7-8,4-13Zm-24,37v1h3Z" transform="translate(-0.099)" fill="#7f0000"/>
      <path id="red-06" d="M292.5,114q4.4-1.5,3.5,1.5L277.5,127l-12,10-3.5,1v3q-2.7-1.1-2,1.5l-4.5,5.5q-2.2-.7-1.5,1.5l-4.5,5.5-3.5,2.5a13.972,13.972,0,0,0-6,9.5l-6,4.5q-16.2,17.8-25,43l-4,19v19q2.2,12.2,8,19.5l3,1.5q-.7,2.3,1.5,1.5l6,4,11,2,8-2,8.5-6.5q5-6.5,6-17a12.773,12.773,0,0,0-5.5-8.5l-8-2-2.5,1.5q5.9.1,8,4l1,8-7.5,9.5-6,1q-7.8-1.2-11.5-6.5-6-7-4-22,1.6-9.4,7.5-14.5,4.3-5.2,15-4l4,1,9-7h13l10.5,7.5,3,5,1,10-3,7,6,3q-.7,2.3,1.5,1.5l4.5,9.5v9q-5.9,19.6-19.5,31.5l-9,7-16,7-5,1h-17l-18-7L198,300l-8-10.5-6-13-3-26,2-5,1-16.5q3,1.3,2-2.5l-1-2.5q3.3,1.3,2-3.5l3-5,1-6,2-2,2-7.5,2.5,1,.5-7q2.7,1.1,2-1.5l7.5-9.5,1,2,10-13q2.3.8,1.5-1.5l3-4-2-1,2.5-3.5,2.5-1.5.5-1.5,1.5.5,1-3.5,8-5,3.5-5,9-5,12-10,3.5-1q-1.1-2.7,1.5-2l13-8H285l1.5-4ZM277,309v2l4-1Z" transform="translate(-0.027)" fill="#7f0000"/>
      <path id="red-05" d="M573,145l10,4q-1.1,2.7,1.5,2l4.5,2q-1.1,2.7,1.5,2l7.5,5q-1.1,2.7,1.5,2l7.5,7.5,1,3.5,3,1.5,9,13V190h2v4h1.5l5.5,12.5,4,15.5q2.7-1.1,2,1.5l5.5,6.5,5,3h7l6.5-4,2-9.5-2-6.5-4.5-3h-5l-2,3q5-.5,5.5,3.5,1.5,6-1.5,7.5-2.3,3.2-9,2l-5.5-3-4-8.5v-9l3-7.5,9.5-6,14-1,4,1,10.5,7.5q5.1,4.4,3,16l-3,5.5-2,.5,3,2q3.3,3.7,2,12L669.5,249l-3,2q-4.3,6.2-17,4l-4-3q-3.8,4.7-14,3l-7.5-4.5-3-4-4-12-2-24-3-9q2.5-1.5-1-3l-6-15L592,164q-2.7,1.1-2-1.5L579.5,152H578q1.1-2.7-1.5-2Zm4,22-1,2,2,1Zm0,22-1,3h1Zm1,3-1,9h1Z" transform="translate(-0.082 -0.419)" fill="#7f0000"/>
      <path id="red-04" d="M198.5,186l1.5,1.5-3.5,3.5-9.5,8.5-10,15-3,6-1,6-3,4-1,19v2l3,23,6,18q-2.5,1.5,1,3l9,22.5q3-1.2,2,2.5l4,7,1,7,2,3,1,14-4,11-4.5,4.5-2.5,1.5,2,9q-2.1,12.9-10.5,19.5l-12,7h-11l-3-1-7.5-7.5-1-4.5-8.5,3h-6L119,389q1.1-2.7-1.5-2L109,373.5q0-7-3-11v-13l4-11,8.5-9.5,8-3h8l9,3,5.5,4.5q5.3,4.8,3,17l-3.5,4.5q-2.9,3.6-11,2l-2.5-1.5,5.5,7.5,7,1,4.5-3.5,4-7,2-15-2-7-1-20-1-2v-2l-1-22v-2l1-9-1-4v-2l2-11-1-2,2-10,2-3,1-9,3-4v-3L175.5,206H177v-4h1.5l3.5-2.5,1.5-2.5q2.3.8,1.5-1.5a12.619,12.619,0,0,1,9-5.5q-1.2-3,2.5-2ZM167,273v13l2,4,8,39v19q-2,1-1,6l-6,12q-5,9-19,9v1h8l9-4,7-8,5-15-1-26-2-4v-5a61.552,61.552,0,0,1-5-19l-2-3Zm25,127q-2,3,1,2Z" transform="translate(0 -0.637)" fill="#7f0000"/>
      <path id="red-03" d="M460.5,298h11l12,3A30.356,30.356,0,0,1,499,312.5l1.5,2.5,9-2h13l13,5,8.5,8.5,2,3,7,12,4,14,1,32-1,1v49l1,1,1,14,2,7,3,4,2,9,4,8L580.5,493H583v2q2.7-1.1,2,1.5l1,2.5,4,1.5q-.8,2.6,2.5,1.5l1.5,3,5.5,1,5,4,10,3,11,1,7,2,5-1,5,1q3.3-3,9.5-2l-.5-2-1,1h-12l-2,1-1-1h-8l-2-2h-7l-8-2-20-13-8.5-8.5-2.5-3.5-3.5-2.5-2-6.5q-3,1.3-2-2.5l-4-6q.7-6.7-2-10v-7l-1-2.5,2-.5v-19l2-10,7-13.5q2.7,1.1,2-1.5l7.5-5.5,10.5-1q-1.2-12.5,6.5-17l10-5,20-1,10,2,6,3,8.5,7.5,6,11V403l9.5,1,8.5,7.5,4,7,3,12v15l-4,12A46.91,46.91,0,0,1,671.5,474l-10,5-15,1-11-3-8.5-7.5-2-3-3-5-1-14,4.5-9.5q3.4-5.1,14-3l3,1-.5-1.5q.8-2.2-1.5-1.5l-6-4-8-1-14,5-6.5,6.5-5,9v13L612,480l19.5,11,8,2h10l10-2q1.8-3.2,7-3A79.939,79.939,0,0,0,688,471.5l3-5.5q2.7,1.1,2-1.5l3-5v-2l4-11,2-2v-4l3-7v-5l2-6v-2l1-19-1-4v-2q-1.7-7.2,2-9v-2l-2-11,1-2L700,336h3q-1.3,4.1,2,3v3.5l2,2,1,6-1,2,3,3,1,10,3,4v9l2,7v32l1,1-1,1v12l-2,4-1,10-7,18-6,11V482q-2.7-1.1-2,1.5,3.5,1.5,1,3l-2,9.5q-2.7-1.1-2,1.5l-.5,2.5q-2.2-.7-1.5,1.5l-2,5.5h-2.5l-4.5,4.5q.8,2.3-1.5,1.5l-9,8-11,6-8,2-2,2h-4l-7,3-7,1-3-1q-1.7,2.8-8,1h-2l-11-2h-2l-18-3q-5.2-5.3-15-6l-8.5-5.5-1.5-3.5-2,1q-1.3-3.8-5.5-3l-2-6q-2.7,1.1-2-1.5l-7-9-1-3.5h-2v-4h-1.5L538,478h-2v-3q-3,1.3-2-2.5l-7-17,1-2-2-5v-2q1.8-6.2-1-8v-2q1-6-2-8l-2-20-6-19-4-7.5q-2.7,1.1-2-1.5A35.434,35.434,0,0,0,494.5,369l-13-2-11,2-7.5,4q1.1,2.7-1.5,2l-5.5,7.5-1,10,1,4,3.5,4.5q3.2,3.3,10,3l-1-2-5.5-4.5-1-7,5.5-8.5,7-4,13-1q12,2,17.5,10.5,6.1,8.4,5,24l-2,9L501,433h-2q1.1,2.7-1.5,2-13,15-42,14l-20-7A75.218,75.218,0,0,1,416,425.5l-9-17v-19l7-17,6-7-6-8-1-12,4-16,4-8.5q2.7,1.1,2-1.5l7.5-8.5,17-10ZM510,344q0,3,5,4l7,8,7,12,4,15,1,16,2,6v9l2,11h1v-6l-2-6-1-22-2-6-1-12q-2-11-8-17,1-3-1-2l-2-2A23.982,23.982,0,0,0,510,344Zm30,82-1,4h1Zm1,6-1,3h1Zm1,3v6h1Zm65,54v2l6,3h2Zm-57,6,1,4q2-1,0-2Q552,494,550,495Zm69,1,1,2h4Zm6,2v1h5Zm32,13v1h2Z" transform="translate(-0.099 -1.056)" fill="#7f0000"/>
      <path id="red-02" d="M284.5,304q2.3-.7,1.5,1.5l-3,1.5Z" transform="translate(-0.036 -0.761)" fill="#7f0000"/>
      <path id="red-01" d="M462.5,471l11,1,6,2,11.5,8.5,2,3,2,6.5,7.5-3h8l11,4,8.5,7.5,8,16,1,13-1,3-2,10L527.5,553l-3,2-6,4-12,1-8-3-5.5-5.5-2-5v-5q.9-6.6,5.5-9.5,3.2-2.3,10-1l2.5,1q.8-3.8-2.5-5l-4-2h-6l-9.5,5.5-6,12v7l7.5,13.5q2.3-.7,1.5,1.5A57.48,57.48,0,0,0,508.5,576l22,7,13,1,1,1h36l29-5,2-2q8.5-.5,13-5h4a24.262,24.262,0,0,1,13.5-7q-1.1-2.7,1.5-2L662,551l1.5-3,6.5-4,1.5-3,3.5-1q-1.2-3,2.5-2l-.5,1.5-17,37L642,603q-2.7-1.1-2,1.5l-4,2.5-1.5,3q-2.2-.7-1.5,1.5L618.5,623l-3.5,1q1.1,2.7-1.5,2l-14,9-21,10-47,13A34.8,34.8,0,0,0,516,669.5l-3,5-1,7q1.6,6.9,7.5,9.5,9.6,1.6,13.5-2.5l-7-2.5-3-5.5v-7l5.5-7.5q5.2-4.8,17-3l8.5,6.5q4.7,4.8,3,16L549.5,699l-3,2-2.5,1q1.1,2.7-1.5,2l-16,7h-12l-6.5-3q1.1-2.7-1.5-2l-3.5-6-6.5,2h-12l-7.5-5.5q-5.8-5.7-4-19l4-7.5,6-3-2-5.5v-8l3-5.5,10.5-6,27.5-4.5L439.5,636l-1,1-16,1-10,4L402,649.5a32.676,32.676,0,0,0-7,15v14a17.323,17.323,0,0,0,6.5,10.5l9,4h5a12.469,12.469,0,0,0,8.5-5.5l2-5-1.5.5-9,1-7.5-5.5-1-9a17.739,17.739,0,0,1,8.5-11.5q6-6,20-4l9.5,5.5q8.5,7.5,8,24-2.5,1.5-1,7l-4,9-8.5,9.5-9,6-8,3-12,1-1,1h-9l-1-1-11-1-9-5-5.5-5.5-3-5-1-8.5-17.5-1A25.217,25.217,0,0,1,338,682.5l-6-14-1-13q2.7-1.7,1-8a37.9,37.9,0,0,1,9.5-14.5l3-2,12.5-5.5-2-7,2-8,7-8.5,4-1q-1.2-3,2.5-2l6-4,8-1,2-2H395l.5,2,.5-2,5.5-1h17q1.5,2.5,7,1l3,2,18,2,3,2,9,1,3,2h4l19,5h6l5,2,27,1,1,1h34q4.6-2.9,13-2l6.5-2.5-5.5-.5-17,3h-25l-1-1-17-1-12-3-12-1-28-8-2-2-5-1L438,584q1.1-2.7-1.5-2L422,569.5l-9-17q-2.4-7.1-1-18l6.5-10.5,8.5-5.5-1-1v-16l2-7,8-12.5h2q-1.1-2.7,1.5-2l9-6ZM477,517l-5,3-5,5-4,9v15q3,2,3,9l6,10a59.034,59.034,0,0,0,20,16q2,1,1-2l-3-1-17-18-6-16v-9l5-12,9-8h3Zm168,68-2,2h2Zm-3,3-2,2h2Zm-5,4-4,4q-3-1-2,2l-10,4-4,4-25,13-18,7-25,7-26,3v1h12l8-2,14-1,13-4,8-1,2-2h3l13-5,14-7,14-9,9-8q2,1,1-1l4-3Q639,591,637,592Zm-56,11-3,1v1q4,1,6-1Zm-6,6v1h2Zm-37,13v1h6Zm-18,2,1,2h8Z" transform="translate(-0.073 -2)" fill="#7f0000"/>
    </g>
  </g>
</svg>
