<svg xmlns="http://www.w3.org/2000/svg" width="350" height="520" viewBox="0 0 350 520">
  <g id="blow1" transform="matrix(1, -0.017, 0.017, 1, 18.269, 290.909)">
    <path id="Path_84" data-name="Path 84" d="M19.043,0C29.561,0,38.086,14.2,38.086,31.711S19.043,63.423,19.043,63.423,0,49.225,0,31.711,8.526,0,19.043,0Z" transform="matrix(-0.809, -0.588, 0.588, -0.809, 30.813, 73.697)" fill="#fff"/>
    <path id="Path_256" data-name="Path 256" d="M4.571,0c.612,0-1.986,10.36-1.986,16.682s1.528,10.9.917,10.9S0,22.263,0,15.941,3.959,0,4.571,0Z" transform="translate(48.241 12.999) rotate(74)" fill="#efcdcd"/>
    <path id="Path_257" data-name="Path 257" d="M4.146,0c.555,0-1.8,13.113-1.8,21.114s1.386,13.8.831,13.8S0,28.178,0,20.176,3.591,0,4.146,0Z" transform="translate(48.64 15.043) rotate(59)" fill="#efcdcd"/>
    <path id="Path_258" data-name="Path 258" d="M2.968,19.743c.4,0-1.289-7.416-1.289-11.941S2.67,0,2.273,0,0,3.807,0,8.332,2.57,19.743,2.968,19.743Z" transform="translate(47.296 39.079) rotate(-158)" fill="#efcdcd"/>
    <path id="Path_259" data-name="Path 259" d="M2.968,19.743c.4,0-1.289-7.416-1.289-11.941S2.67,0,2.273,0,0,3.807,0,8.332,2.57,19.743,2.968,19.743Z" transform="translate(36.225 36.01) rotate(-129)" fill="#efcdcd"/>
    <rect id="box" width="350" height="520" transform="translate(-13.189 -291.184) rotate(1)" fill="none"/>
  </g>
</svg>
