<svg xmlns="http://www.w3.org/2000/svg" width="350" height="520" viewBox="0 0 350 520">
  <g id="springday1" transform="translate(145 74)">
    <g id="montain" transform="translate(-143 87.155)">
      <g id="grass" transform="translate(0 86.462)">
        <path id="Path_97" data-name="Path 97" d="M42.284,113.4c38.177,5.968,126.5-66.2,126.5-85.213S97.707,1.143,74.473,1.143,0-5.551,0,13.458C0,23.685-6.444,61.4,10.613,70.035,24.988,77.312,31.55,113.4,42.284,113.4Z" transform="translate(0 46.523) rotate(-16)" fill="#106e91"/>
        <path id="Path_101" data-name="Path 101" d="M148.078,151.13c32.357,0,26.578-65.988,26.578-85S124.167,16.115,91.81,16.115,0,47.493,0,66.5C0,76.73,72.755,146.34,96.509,154.975,116.529,162.253,133.129,151.13,148.078,151.13Z" transform="translate(151.84 30.202) rotate(-8)" fill="#106e91"/>
        <path id="Path_102" data-name="Path 102" d="M97.481,190.066c23.234,0,39.7-122.571,39.7-153.937S119.883,1.887,96.649,1.887,22.176-9.16,22.176,22.206c0,16.875-76.687,45.335-59.63,59.583,7.259,6.064,7.5,45.355,38.534,71.271C31.209,178.216,92.168,190.066,97.481,190.066Z" transform="matrix(0.934, -0.358, 0.358, 0.934, 79.101, 43.109)" fill="#106e91"/>
      </g>
      <g id="snow" transform="translate(90.722 34.952)">
        <path id="Path_94" data-name="Path 94" d="M72.936,56.316C96.17,56.316,115,40.906,115,21.9S97.707,1.143,74.473,1.143,0-5.551,0,13.458c0,10.227,18.279,3.775,35.337,12.411C49.712,33.146,62.2,56.316,72.936,56.316Z" transform="translate(0 72.375) rotate(-39)" fill="#fff"/>
        <path id="Path_96" data-name="Path 96" d="M50.968,0C61.983,0,63.261,18.662,63.261,41.349c0,5.6-8.379,18.061-8.594,26.2,29.465,24.8,5.393,48.393-2.9,48.393C40.752,115.941,0,106.637,0,83.95,0,71.744,23.212,25.066,31.3,14.761,38.113,6.075,45.88,0,50.968,0Z" transform="matrix(-0.242, 0.97, -0.97, -0.242, 187.101, 46.347)" fill="#fff"/>
      </g>
      <path id="Path_89" data-name="Path 89" d="M.494,51.966s10.43-9.177,10.43-23.527S3.285,0,.494,0,7.647,11.927,7.647,26.277A53.245,53.245,0,0,1,.494,51.966Z" transform="matrix(0.53, -0.848, 0.848, 0.53, 186.031, 115.882)" fill="#6d5b5b"/>
      <path id="Path_85" data-name="Path 85" d="M3.236,207.911s37.013-3.968,37.013-61.381S14.4,0,3.236,0,13.388,9.643,13.388,67.056,3.236,207.911,3.236,207.911Z" transform="translate(333.564 147.015) rotate(135)" fill="#6d5b5b"/>
      <path id="Path_77" data-name="Path 77" d="M1.977,0S38.99,3.968,38.99,61.381,13.143,207.911,1.977,207.911s28.617-47.719,28.617-105.132S1.977,0,1.977,0Z" transform="matrix(0.53, 0.848, -0.848, 0.53, 179.272, 16.562)" fill="#6d5b5b"/>
      <path id="Path_86" data-name="Path 86" d="M.494,0S11.077,13.482,11.077,27.832,3.285,51.966.494,51.966,7.647,40.039,7.647,25.689A53.245,53.245,0,0,0,.494,0Z" transform="translate(139.892 92.613) rotate(71)" fill="#6d5b5b"/>
      <path id="Path_90" data-name="Path 90" d="M.494,0S11.077,13.482,11.077,27.832,3.285,51.966.494,51.966,7.647,40.039,7.647,25.689A53.245,53.245,0,0,0,.494,0Z" transform="translate(270.619 116.255) rotate(71)" fill="#6d5b5b"/>
      <path id="Path_87" data-name="Path 87" d="M.494,0s10.43,9.177,10.43,23.527S3.285,51.966.494,51.966,7.647,40.039,7.647,25.689A53.245,53.245,0,0,0,.494,0Z" transform="matrix(0.53, 0.848, -0.848, 0.53, 195.333, 101.75)" fill="#6d5b5b"/>
      <path id="Path_88" data-name="Path 88" d="M.494,51.966s10.43-9.177,10.43-23.527S3.285,0,.494,0,7.647,11.927,7.647,26.277A53.245,53.245,0,0,1,.494,51.966Z" transform="matrix(0.53, -0.848, 0.848, 0.53, 126.23, 101.975)" fill="#6d5b5b"/>
    </g>
    <g id="blow-1" transform="translate(-109.656 77.155)">
      <g id="bloom-1" transform="matrix(-0.407, -0.914, 0.914, -0.407, 10.13, 69.306)">
        <path id="Path_84" data-name="Path 84" d="M6.965,0c3.847,0,6.965,5.193,6.965,11.6S6.965,23.2,6.965,23.2,0,18,0,11.6,3.118,0,6.965,0Z" transform="matrix(-0.809, -0.588, 0.588, -0.809, 11.27, 26.956)" fill="#f89f9f"/>
        <path id="Path_256" data-name="Path 256" d="M1.672,0C1.9,0,.945,3.789.945,6.1s.559,3.987.335,3.987S0,8.143,0,5.831A13.543,13.543,0,0,1,1.672,0Z" transform="translate(17.645 4.755) rotate(74)" fill="#efcdcd"/>
        <path id="Path_257" data-name="Path 257" d="M1.516,0c.2,0-.659,4.8-.659,7.723s.507,5.046.3,5.046S0,10.306,0,7.38A22.286,22.286,0,0,1,1.516,0Z" transform="translate(17.791 5.502) rotate(59)" fill="#efcdcd"/>
        <path id="Path_258" data-name="Path 258" d="M1.085,7.221c.145,0-.472-2.712-.472-4.368S.977,0,.831,0A5.128,5.128,0,0,0,0,3.048,10.421,10.421,0,0,0,1.085,7.221Z" transform="translate(17.299 14.294) rotate(-158)" fill="#efcdcd"/>
        <path id="Path_259" data-name="Path 259" d="M1.085,7.221c.145,0-.472-2.712-.472-4.368S.977,0,.831,0A5.128,5.128,0,0,0,0,3.048,10.421,10.421,0,0,0,1.085,7.221Z" transform="translate(13.25 13.171) rotate(-129)" fill="#efcdcd"/>
      </g>
      <g id="bloom-2" transform="matrix(0.643, 0.766, -0.766, 0.643, 66.31, 0)">
        <path id="Path_84-2" data-name="Path 84" d="M6.965,0c3.847,0,6.965,5.193,6.965,11.6S6.965,23.2,6.965,23.2,0,18,0,11.6,3.118,0,6.965,0Z" transform="matrix(-0.809, -0.588, 0.588, -0.809, 11.27, 26.956)" fill="#f89f9f"/>
        <path id="Path_256-2" data-name="Path 256" d="M1.672,0C1.9,0,.945,3.789.945,6.1s.559,3.987.335,3.987S0,8.143,0,5.831A13.543,13.543,0,0,1,1.672,0Z" transform="translate(17.645 4.755) rotate(74)" fill="#efcdcd"/>
        <path id="Path_257-2" data-name="Path 257" d="M1.516,0c.2,0-.659,4.8-.659,7.723s.507,5.046.3,5.046S0,10.306,0,7.38A22.286,22.286,0,0,1,1.516,0Z" transform="translate(17.791 5.502) rotate(59)" fill="#efcdcd"/>
        <path id="Path_258-2" data-name="Path 258" d="M1.085,7.221c.145,0-.472-2.712-.472-4.368S.977,0,.831,0A5.128,5.128,0,0,0,0,3.048,10.421,10.421,0,0,0,1.085,7.221Z" transform="translate(17.299 14.294) rotate(-158)" fill="#efcdcd"/>
        <path id="Path_259-2" data-name="Path 259" d="M1.085,7.221c.145,0-.472-2.712-.472-4.368S.977,0,.831,0A5.128,5.128,0,0,0,0,3.048,10.421,10.421,0,0,0,1.085,7.221Z" transform="translate(13.25 13.171) rotate(-129)" fill="#efcdcd"/>
      </g>
      <g id="bloom-3" transform="matrix(-0.407, -0.914, 0.914, -0.407, 66.255, 86.429)">
        <path id="Path_84-3" data-name="Path 84" d="M6.965,0c3.847,0,6.965,5.193,6.965,11.6S6.965,23.2,6.965,23.2,0,18,0,11.6,3.118,0,6.965,0Z" transform="matrix(-0.809, -0.588, 0.588, -0.809, 11.27, 26.956)" fill="#f89f9f"/>
        <path id="Path_256-3" data-name="Path 256" d="M1.672,0C1.9,0,.945,3.789.945,6.1s.559,3.987.335,3.987S0,8.143,0,5.831A13.543,13.543,0,0,1,1.672,0Z" transform="translate(17.645 4.755) rotate(74)" fill="#efcdcd"/>
        <path id="Path_257-3" data-name="Path 257" d="M1.516,0c.2,0-.659,4.8-.659,7.723s.507,5.046.3,5.046S0,10.306,0,7.38A22.286,22.286,0,0,1,1.516,0Z" transform="translate(17.791 5.502) rotate(59)" fill="#efcdcd"/>
        <path id="Path_258-3" data-name="Path 258" d="M1.085,7.221c.145,0-.472-2.712-.472-4.368S.977,0,.831,0A5.128,5.128,0,0,0,0,3.048,10.421,10.421,0,0,0,1.085,7.221Z" transform="translate(17.299 14.294) rotate(-158)" fill="#efcdcd"/>
        <path id="Path_259-3" data-name="Path 259" d="M1.085,7.221c.145,0-.472-2.712-.472-4.368S.977,0,.831,0A5.128,5.128,0,0,0,0,3.048,10.421,10.421,0,0,0,1.085,7.221Z" transform="translate(13.25 13.171) rotate(-129)" fill="#efcdcd"/>
      </g>
    </g>
    <g id="blow-2" transform="translate(104.394 247.915)">
      <g id="bloom-4" transform="translate(0 32.392) rotate(-79)">
        <path id="Path_84-4" data-name="Path 84" d="M5.8,0c3.205,0,5.8,4.327,5.8,9.664s-5.8,9.664-5.8,9.664S0,15,0,9.664,2.6,0,5.8,0Z" transform="matrix(-0.809, -0.588, 0.588, -0.809, 9.39, 22.459)" fill="#f89f9f"/>
        <path id="Path_256-4" data-name="Path 256" d="M1.393,0C1.579,0,.788,3.157.788,5.084s.466,3.322.279,3.322A5.594,5.594,0,0,1,0,4.858,11.284,11.284,0,0,1,1.393,0Z" transform="translate(14.702 3.962) rotate(74)" fill="#efcdcd"/>
        <path id="Path_257-4" data-name="Path 257" d="M1.263,0c.169,0-.549,4-.549,6.435s.422,4.2.253,4.2A9,9,0,0,1,0,6.149,18.568,18.568,0,0,1,1.263,0Z" transform="translate(14.823 4.584) rotate(59)" fill="#efcdcd"/>
        <path id="Path_258-4" data-name="Path 258" d="M.9,6.017c.121,0-.393-2.26-.393-3.639S.814,0,.693,0A4.272,4.272,0,0,0,0,2.539,8.683,8.683,0,0,0,.9,6.017Z" transform="translate(14.414 11.91) rotate(-158)" fill="#efcdcd"/>
        <path id="Path_259-4" data-name="Path 259" d="M.9,6.017c.121,0-.393-2.26-.393-3.639S.814,0,.693,0A4.272,4.272,0,0,0,0,2.539,8.683,8.683,0,0,0,.9,6.017Z" transform="translate(11.04 10.974) rotate(-129)" fill="#efcdcd"/>
      </g>
      <g id="bloom-5" transform="matrix(-0.407, -0.914, 0.914, -0.407, 50.054, 40.325)">
        <path id="Path_84-5" data-name="Path 84" d="M8.331,0c4.6,0,8.331,6.211,8.331,13.873S8.331,27.745,8.331,27.745,0,21.534,0,13.873,3.73,0,8.331,0Z" transform="matrix(-0.809, -0.588, 0.588, -0.809, 13.479, 32.24)" fill="#f89f9f"/>
        <path id="Path_256-5" data-name="Path 256" d="M2,0c.268,0-.869,4.532-.869,7.3s.669,4.768.4,4.768S0,9.739,0,6.974,1.732,0,2,0Z" transform="translate(21.103 5.687) rotate(74)" fill="#efcdcd"/>
        <path id="Path_257-5" data-name="Path 257" d="M1.814,0c.243,0-.788,5.736-.788,9.237s.606,6.035.364,6.035S0,12.327,0,8.826,1.571,0,1.814,0Z" transform="translate(21.278 6.581) rotate(59)" fill="#efcdcd"/>
        <path id="Path_258-5" data-name="Path 258" d="M1.3,8.637c.174,0-.564-3.244-.564-5.224S1.168,0,.994,0A6.133,6.133,0,0,0,0,3.645,12.464,12.464,0,0,0,1.3,8.637Z" transform="translate(20.69 17.096) rotate(-158)" fill="#efcdcd"/>
        <path id="Path_259-5" data-name="Path 259" d="M1.3,8.637c.174,0-.564-3.244-.564-5.224S1.168,0,.994,0A6.133,6.133,0,0,0,0,3.645,12.464,12.464,0,0,0,1.3,8.637Z" transform="translate(15.847 15.753) rotate(-129)" fill="#efcdcd"/>
      </g>
    </g>
    <rect id="box" width="350" height="520" transform="translate(-145 -74)" fill="none"/>
  </g>
</svg>
