<svg xmlns="http://www.w3.org/2000/svg" width="350" height="520" viewBox="0 0 350 520">
  <g id="springday2" transform="translate(145 74)">
    <g id="tree" transform="translate(-143.841 196.534)">
      <g id="wood" transform="translate(0 124.189)">
        <path id="Path_77" data-name="Path 77" d="M1.4,0S27.586,2.807,27.586,43.428,9.3,147.1,1.4,147.1s20.247-33.762,20.247-74.383S1.4,0,1.4,0Z" transform="translate(142.731 0) rotate(76)" fill="#6d5b5b"/>
        <path id="Path_79" data-name="Path 79" d="M1.154,0S20.722,25.37,20.722,65.991,7.675,147.1,1.154,147.1s16.712-33.762,16.712-74.383S1.154,0,1.154,0Z" transform="translate(64.62 50.437) rotate(-95)" fill="#6d5b5b"/>
      </g>
      <g id="flower-2" transform="translate(126.714 168.541) rotate(-39)">
        <g id="Group_84" data-name="Group 84" transform="translate(15.337 56.718)">
          <path id="Path_84" data-name="Path 84" d="M16.028,0C24.88,0,32.056,11.95,32.056,26.691S16.028,53.381,16.028,53.381,0,41.431,0,26.691,7.176,0,16.028,0Z" transform="matrix(-0.809, -0.588, 0.588, -0.809, 25.934, 62.028)" fill="#fff"/>
          <path id="Path_256" data-name="Path 256" d="M3.847,0c.515,0-1.672,8.72-1.672,14.041s1.286,9.174.771,9.174S0,18.738,0,13.417,3.332,0,3.847,0Z" transform="translate(40.603 10.941) rotate(74)" fill="#efcdcd"/>
          <path id="Path_257" data-name="Path 257" d="M3.489,0c.467,0-1.516,11.037-1.516,17.771s1.167,11.611.7,11.611S0,23.716,0,16.982,3.022,0,3.489,0Z" transform="translate(40.939 12.661) rotate(59)" fill="#efcdcd"/>
          <path id="Path_258" data-name="Path 258" d="M2.5,16.617c.334,0-1.085-6.242-1.085-10.05S2.248,0,1.913,0,0,3.2,0,7.013,2.163,16.617,2.5,16.617Z" transform="translate(39.808 32.892) rotate(-158)" fill="#efcdcd"/>
          <path id="Path_259" data-name="Path 259" d="M2.5,16.617c.334,0-1.085-6.242-1.085-10.05S2.248,0,1.913,0,0,3.2,0,7.013,2.163,16.617,2.5,16.617Z" transform="translate(30.489 30.309) rotate(-129)" fill="#efcdcd"/>
        </g>
        <g id="Group_85" data-name="Group 85" transform="translate(44.526 108.044) rotate(-83)">
          <path id="Path_84-2" data-name="Path 84" d="M16.028,0C24.88,0,32.056,11.95,32.056,26.691S16.028,53.381,16.028,53.381,0,41.431,0,26.691,7.176,0,16.028,0Z" transform="matrix(-0.809, -0.588, 0.588, -0.809, 25.934, 62.028)" fill="#fff"/>
          <path id="Path_256-2" data-name="Path 256" d="M3.847,0c.515,0-1.672,8.72-1.672,14.041s1.286,9.174.771,9.174S0,18.738,0,13.417,3.332,0,3.847,0Z" transform="translate(40.603 10.941) rotate(74)" fill="#efcdcd"/>
          <path id="Path_257-2" data-name="Path 257" d="M3.489,0c.467,0-1.516,11.037-1.516,17.771s1.167,11.611.7,11.611S0,23.716,0,16.982,3.022,0,3.489,0Z" transform="translate(40.939 12.661) rotate(59)" fill="#efcdcd"/>
          <path id="Path_258-2" data-name="Path 258" d="M2.5,16.617c.334,0-1.085-6.242-1.085-10.05S2.248,0,1.913,0,0,3.2,0,7.013,2.163,16.617,2.5,16.617Z" transform="translate(39.808 32.892) rotate(-158)" fill="#efcdcd"/>
          <path id="Path_259-2" data-name="Path 259" d="M2.5,16.617c.334,0-1.085-6.242-1.085-10.05S2.248,0,1.913,0,0,3.2,0,7.013,2.163,16.617,2.5,16.617Z" transform="translate(30.489 30.309) rotate(-129)" fill="#efcdcd"/>
        </g>
        <g id="Group_83" data-name="Group 83" transform="matrix(-0.891, -0.454, 0.454, -0.891, 92.739, 94.189)">
          <path id="Path_84-3" data-name="Path 84" d="M16.028,0C24.88,0,32.056,11.95,32.056,26.691S16.028,53.381,16.028,53.381,0,41.431,0,26.691,7.176,0,16.028,0Z" transform="matrix(-0.809, -0.588, 0.588, -0.809, 25.934, 62.028)" fill="#fff"/>
          <path id="Path_256-3" data-name="Path 256" d="M3.847,0c.515,0-1.672,8.72-1.672,14.041s1.286,9.174.771,9.174S0,18.738,0,13.417,3.332,0,3.847,0Z" transform="translate(40.603 10.941) rotate(74)" fill="#efcdcd"/>
          <path id="Path_257-3" data-name="Path 257" d="M3.489,0c.467,0-1.516,11.037-1.516,17.771s1.167,11.611.7,11.611S0,23.716,0,16.982,3.022,0,3.489,0Z" transform="translate(40.939 12.661) rotate(59)" fill="#efcdcd"/>
          <path id="Path_258-3" data-name="Path 258" d="M2.5,16.617c.334,0-1.085-6.242-1.085-10.05S2.248,0,1.913,0,0,3.2,0,7.013,2.163,16.617,2.5,16.617Z" transform="translate(39.808 32.892) rotate(-158)" fill="#efcdcd"/>
          <path id="Path_259-3" data-name="Path 259" d="M2.5,16.617c.334,0-1.085-6.242-1.085-10.05S2.248,0,1.913,0,0,3.2,0,7.013,2.163,16.617,2.5,16.617Z" transform="translate(30.489 30.309) rotate(-129)" fill="#efcdcd"/>
        </g>
        <g id="Group_82" data-name="Group 82" transform="translate(100.631 51.424) rotate(146)">
          <path id="Path_84-4" data-name="Path 84" d="M16.028,0C24.88,0,32.056,11.95,32.056,26.691S16.028,53.381,16.028,53.381,0,41.431,0,26.691,7.176,0,16.028,0Z" transform="matrix(-0.809, -0.588, 0.588, -0.809, 25.934, 62.028)" fill="#fff"/>
          <path id="Path_256-4" data-name="Path 256" d="M3.847,0c.515,0-1.672,8.72-1.672,14.041s1.286,9.174.771,9.174S0,18.738,0,13.417,3.332,0,3.847,0Z" transform="translate(40.603 10.941) rotate(74)" fill="#efcdcd"/>
          <path id="Path_257-4" data-name="Path 257" d="M3.489,0c.467,0-1.516,11.037-1.516,17.771s1.167,11.611.7,11.611S0,23.716,0,16.982,3.022,0,3.489,0Z" transform="translate(40.939 12.661) rotate(59)" fill="#efcdcd"/>
          <path id="Path_258-4" data-name="Path 258" d="M2.5,16.617c.334,0-1.085-6.242-1.085-10.05S2.248,0,1.913,0,0,3.2,0,7.013,2.163,16.617,2.5,16.617Z" transform="translate(39.808 32.892) rotate(-158)" fill="#efcdcd"/>
          <path id="Path_259-4" data-name="Path 259" d="M2.5,16.617c.334,0-1.085-6.242-1.085-10.05S2.248,0,1.913,0,0,3.2,0,7.013,2.163,16.617,2.5,16.617Z" transform="translate(30.489 30.309) rotate(-129)" fill="#efcdcd"/>
        </g>
        <g id="Group_81" data-name="Group 81" transform="translate(60.889 22.607) rotate(79)">
          <path id="Path_84-5" data-name="Path 84" d="M16.028,0C24.88,0,32.056,11.95,32.056,26.691S16.028,53.381,16.028,53.381,0,41.431,0,26.691,7.176,0,16.028,0Z" transform="matrix(-0.809, -0.588, 0.588, -0.809, 25.934, 62.028)" fill="#fff"/>
          <path id="Path_256-5" data-name="Path 256" d="M3.847,0c.515,0-1.672,8.72-1.672,14.041s1.286,9.174.771,9.174S0,18.738,0,13.417,3.332,0,3.847,0Z" transform="translate(40.603 10.941) rotate(74)" fill="#efcdcd"/>
          <path id="Path_257-5" data-name="Path 257" d="M3.489,0c.467,0-1.516,11.037-1.516,17.771s1.167,11.611.7,11.611S0,23.716,0,16.982,3.022,0,3.489,0Z" transform="translate(40.939 12.661) rotate(59)" fill="#efcdcd"/>
          <path id="Path_258-5" data-name="Path 258" d="M2.5,16.617c.334,0-1.085-6.242-1.085-10.05S2.248,0,1.913,0,0,3.2,0,7.013,2.163,16.617,2.5,16.617Z" transform="translate(39.808 32.892) rotate(-158)" fill="#efcdcd"/>
          <path id="Path_259-5" data-name="Path 259" d="M2.5,16.617c.334,0-1.085-6.242-1.085-10.05S2.248,0,1.913,0,0,3.2,0,7.013,2.163,16.617,2.5,16.617Z" transform="translate(30.489 30.309) rotate(-129)" fill="#efcdcd"/>
        </g>
        <ellipse id="Ellipse_41" data-name="Ellipse 41" cx="5.211" cy="3.474" rx="5.211" ry="3.474" transform="translate(51.999 63.43)" fill="#bf8d8d"/>
      </g>
      <g id="flower-1" transform="matrix(0.087, -0.996, 0.996, 0.087, 4.295, 213.644)">
        <g id="Group_84-2" data-name="Group 84" transform="translate(10.29 38.053)">
          <path id="Path_84-6" data-name="Path 84" d="M10.753,0c5.939,0,10.753,8.017,10.753,17.907S10.753,35.814,10.753,35.814,0,27.8,0,17.907,4.814,0,10.753,0Z" transform="matrix(-0.809, -0.588, 0.588, -0.809, 17.399, 41.615)" fill="#fff"/>
          <path id="Path_256-6" data-name="Path 256" d="M2.581,0C2.927,0,1.46,5.85,1.46,9.42s.863,6.155.518,6.155S0,12.571,0,9,2.236,0,2.581,0Z" transform="translate(27.241 7.34) rotate(74)" fill="#efcdcd"/>
          <path id="Path_257-6" data-name="Path 257" d="M2.341,0c.313,0-1.017,7.4-1.017,11.923s.783,7.79.469,7.79S0,15.911,0,11.393,2.028,0,2.341,0Z" transform="translate(27.466 8.494) rotate(59)" fill="#efcdcd"/>
          <path id="Path_258-6" data-name="Path 258" d="M1.676,11.148c.224,0-.728-4.188-.728-6.743S1.508,0,1.284,0,0,2.15,0,4.705,1.451,11.148,1.676,11.148Z" transform="translate(26.707 22.068) rotate(-158)" fill="#efcdcd"/>
          <path id="Path_259-6" data-name="Path 259" d="M1.676,11.148c.224,0-.728-4.188-.728-6.743S1.508,0,1.284,0,0,2.15,0,4.705,1.451,11.148,1.676,11.148Z" transform="translate(20.456 20.334) rotate(-129)" fill="#efcdcd"/>
        </g>
        <g id="Group_85-2" data-name="Group 85" transform="translate(29.873 72.488) rotate(-83)">
          <path id="Path_84-7" data-name="Path 84" d="M10.753,0c5.939,0,10.753,8.017,10.753,17.907S10.753,35.814,10.753,35.814,0,27.8,0,17.907,4.814,0,10.753,0Z" transform="matrix(-0.809, -0.588, 0.588, -0.809, 17.399, 41.615)" fill="#fff"/>
          <path id="Path_256-7" data-name="Path 256" d="M2.581,0C2.927,0,1.46,5.85,1.46,9.42s.863,6.155.518,6.155S0,12.571,0,9,2.236,0,2.581,0Z" transform="translate(27.241 7.34) rotate(74)" fill="#efcdcd"/>
          <path id="Path_257-7" data-name="Path 257" d="M2.341,0c.313,0-1.017,7.4-1.017,11.923s.783,7.79.469,7.79S0,15.911,0,11.393,2.028,0,2.341,0Z" transform="translate(27.466 8.494) rotate(59)" fill="#efcdcd"/>
          <path id="Path_258-7" data-name="Path 258" d="M1.676,11.148c.224,0-.728-4.188-.728-6.743S1.508,0,1.284,0,0,2.15,0,4.705,1.451,11.148,1.676,11.148Z" transform="translate(26.707 22.068) rotate(-158)" fill="#efcdcd"/>
          <path id="Path_259-7" data-name="Path 259" d="M1.676,11.148c.224,0-.728-4.188-.728-6.743S1.508,0,1.284,0,0,2.15,0,4.705,1.451,11.148,1.676,11.148Z" transform="translate(20.456 20.334) rotate(-129)" fill="#efcdcd"/>
        </g>
        <g id="Group_83-2" data-name="Group 83" transform="matrix(-0.891, -0.454, 0.454, -0.891, 62.22, 63.192)">
          <path id="Path_84-8" data-name="Path 84" d="M10.753,0c5.939,0,10.753,8.017,10.753,17.907S10.753,35.814,10.753,35.814,0,27.8,0,17.907,4.814,0,10.753,0Z" transform="matrix(-0.809, -0.588, 0.588, -0.809, 17.399, 41.615)" fill="#fff"/>
          <path id="Path_256-8" data-name="Path 256" d="M2.581,0C2.927,0,1.46,5.85,1.46,9.42s.863,6.155.518,6.155S0,12.571,0,9,2.236,0,2.581,0Z" transform="translate(27.241 7.34) rotate(74)" fill="#efcdcd"/>
          <path id="Path_257-8" data-name="Path 257" d="M2.341,0c.313,0-1.017,7.4-1.017,11.923s.783,7.79.469,7.79S0,15.911,0,11.393,2.028,0,2.341,0Z" transform="translate(27.466 8.494) rotate(59)" fill="#efcdcd"/>
          <path id="Path_258-8" data-name="Path 258" d="M1.676,11.148c.224,0-.728-4.188-.728-6.743S1.508,0,1.284,0,0,2.15,0,4.705,1.451,11.148,1.676,11.148Z" transform="translate(26.707 22.068) rotate(-158)" fill="#efcdcd"/>
          <path id="Path_259-8" data-name="Path 259" d="M1.676,11.148c.224,0-.728-4.188-.728-6.743S1.508,0,1.284,0,0,2.15,0,4.705,1.451,11.148,1.676,11.148Z" transform="translate(20.456 20.334) rotate(-129)" fill="#efcdcd"/>
        </g>
        <g id="Group_82-2" data-name="Group 82" transform="translate(67.514 34.501) rotate(146)">
          <path id="Path_84-9" data-name="Path 84" d="M10.753,0c5.939,0,10.753,8.017,10.753,17.907S10.753,35.814,10.753,35.814,0,27.8,0,17.907,4.814,0,10.753,0Z" transform="matrix(-0.809, -0.588, 0.588, -0.809, 17.399, 41.615)" fill="#fff"/>
          <path id="Path_256-9" data-name="Path 256" d="M2.581,0C2.927,0,1.46,5.85,1.46,9.42s.863,6.155.518,6.155S0,12.571,0,9,2.236,0,2.581,0Z" transform="translate(27.241 7.34) rotate(74)" fill="#efcdcd"/>
          <path id="Path_257-9" data-name="Path 257" d="M2.341,0c.313,0-1.017,7.4-1.017,11.923s.783,7.79.469,7.79S0,15.911,0,11.393,2.028,0,2.341,0Z" transform="translate(27.466 8.494) rotate(59)" fill="#efcdcd"/>
          <path id="Path_258-9" data-name="Path 258" d="M1.676,11.148c.224,0-.728-4.188-.728-6.743S1.508,0,1.284,0,0,2.15,0,4.705,1.451,11.148,1.676,11.148Z" transform="translate(26.707 22.068) rotate(-158)" fill="#efcdcd"/>
          <path id="Path_259-9" data-name="Path 259" d="M1.676,11.148c.224,0-.728-4.188-.728-6.743S1.508,0,1.284,0,0,2.15,0,4.705,1.451,11.148,1.676,11.148Z" transform="translate(20.456 20.334) rotate(-129)" fill="#efcdcd"/>
        </g>
        <g id="Group_81-2" data-name="Group 81" transform="translate(40.851 15.167) rotate(79)">
          <path id="Path_84-10" data-name="Path 84" d="M10.753,0c5.939,0,10.753,8.017,10.753,17.907S10.753,35.814,10.753,35.814,0,27.8,0,17.907,4.814,0,10.753,0Z" transform="matrix(-0.809, -0.588, 0.588, -0.809, 17.399, 41.615)" fill="#fff"/>
          <path id="Path_256-10" data-name="Path 256" d="M2.581,0C2.927,0,1.46,5.85,1.46,9.42s.863,6.155.518,6.155S0,12.571,0,9,2.236,0,2.581,0Z" transform="translate(27.241 7.34) rotate(74)" fill="#efcdcd"/>
          <path id="Path_257-10" data-name="Path 257" d="M2.341,0c.313,0-1.017,7.4-1.017,11.923s.783,7.79.469,7.79S0,15.911,0,11.393,2.028,0,2.341,0Z" transform="translate(27.466 8.494) rotate(59)" fill="#efcdcd"/>
          <path id="Path_258-10" data-name="Path 258" d="M1.676,11.148c.224,0-.728-4.188-.728-6.743S1.508,0,1.284,0,0,2.15,0,4.705,1.451,11.148,1.676,11.148Z" transform="translate(26.707 22.068) rotate(-158)" fill="#efcdcd"/>
          <path id="Path_259-10" data-name="Path 259" d="M1.676,11.148c.224,0-.728-4.188-.728-6.743S1.508,0,1.284,0,0,2.15,0,4.705,1.451,11.148,1.676,11.148Z" transform="translate(20.456 20.334) rotate(-129)" fill="#efcdcd"/>
        </g>
        <ellipse id="Ellipse_41-2" data-name="Ellipse 41" cx="3.496" cy="2.331" rx="3.496" ry="2.331" transform="translate(34.887 42.556)" fill="#bf8d8d"/>
      </g>
      <g id="flower-3" transform="matrix(-0.174, 0.985, -0.985, -0.174, 230.443, 46.315)">
        <g id="Group_84-3" data-name="Group 84" transform="translate(18.101 66.939)">
          <path id="Path_84-11" data-name="Path 84" d="M18.916,0C29.364,0,37.833,14.1,37.833,31.5S18.916,63,18.916,63,0,48.9,0,31.5,8.469,0,18.916,0Z" transform="matrix(-0.809, -0.588, 0.588, -0.809, 30.608, 73.206)" fill="#f89f9f"/>
          <path id="Path_256-11" data-name="Path 256" d="M4.541,0c.608,0-1.973,10.291-1.973,16.571S4.086,27.4,3.478,27.4,0,22.114,0,15.835,3.933,0,4.541,0Z" transform="translate(47.919 12.913) rotate(74)" fill="#fff"/>
          <path id="Path_257-11" data-name="Path 257" d="M4.118,0c.551,0-1.789,13.025-1.789,20.974s1.377,13.7.826,13.7S0,27.99,0,20.042,3.567,0,4.118,0Z" transform="translate(48.316 14.943) rotate(59)" fill="#fff"/>
          <path id="Path_258-11" data-name="Path 258" d="M2.948,19.611c.395,0-1.281-7.366-1.281-11.862S2.653,0,2.258,0,0,3.782,0,8.277,2.553,19.611,2.948,19.611Z" transform="translate(46.981 38.819) rotate(-158)" fill="#fff"/>
          <path id="Path_259-11" data-name="Path 259" d="M2.948,19.611c.395,0-1.281-7.366-1.281-11.862S2.653,0,2.258,0,0,3.782,0,8.277,2.553,19.611,2.948,19.611Z" transform="translate(35.984 35.77) rotate(-129)" fill="#fff"/>
        </g>
        <g id="Group_85-3" data-name="Group 85" transform="translate(52.549 127.513) rotate(-83)">
          <path id="Path_84-12" data-name="Path 84" d="M18.916,0C29.364,0,37.833,14.1,37.833,31.5S18.916,63,18.916,63,0,48.9,0,31.5,8.469,0,18.916,0Z" transform="matrix(-0.809, -0.588, 0.588, -0.809, 30.608, 73.206)" fill="#f89f9f"/>
          <path id="Path_256-12" data-name="Path 256" d="M4.541,0c.608,0-1.973,10.291-1.973,16.571S4.086,27.4,3.478,27.4,0,22.115,0,15.835,3.933,0,4.541,0Z" transform="translate(47.919 12.913) rotate(74)" fill="#fff"/>
          <path id="Path_257-12" data-name="Path 257" d="M4.118,0c.551,0-1.789,13.025-1.789,20.974s1.377,13.7.826,13.7S0,27.99,0,20.042,3.567,0,4.118,0Z" transform="translate(48.316 14.943) rotate(59)" fill="#fff"/>
          <path id="Path_258-12" data-name="Path 258" d="M2.948,19.611c.395,0-1.281-7.366-1.281-11.862S2.653,0,2.258,0,0,3.782,0,8.277,2.553,19.611,2.948,19.611Z" transform="translate(46.981 38.819) rotate(-158)" fill="#fff"/>
          <path id="Path_259-12" data-name="Path 259" d="M2.948,19.611c.395,0-1.281-7.366-1.281-11.862S2.653,0,2.258,0,0,3.782,0,8.277,2.553,19.611,2.948,19.611Z" transform="translate(35.984 35.77) rotate(-129)" fill="#fff"/>
        </g>
        <g id="Group_83-3" data-name="Group 83" transform="matrix(-0.891, -0.454, 0.454, -0.891, 109.451, 111.162)">
          <path id="Path_84-13" data-name="Path 84" d="M18.916,0C29.364,0,37.833,14.1,37.833,31.5S18.916,63,18.916,63,0,48.9,0,31.5,8.469,0,18.916,0Z" transform="matrix(-0.809, -0.588, 0.588, -0.809, 30.608, 73.206)" fill="#f89f9f"/>
          <path id="Path_256-13" data-name="Path 256" d="M4.541,0c.608,0-1.973,10.291-1.973,16.571S4.086,27.4,3.478,27.4,0,22.114,0,15.835,3.933,0,4.541,0Z" transform="translate(47.919 12.913) rotate(74)" fill="#fff"/>
          <path id="Path_257-13" data-name="Path 257" d="M4.118,0c.551,0-1.789,13.025-1.789,20.974s1.377,13.7.826,13.7S0,27.99,0,20.042,3.567,0,4.118,0Z" transform="translate(48.316 14.943) rotate(59)" fill="#fff"/>
          <path id="Path_258-13" data-name="Path 258" d="M2.948,19.611c.395,0-1.281-7.366-1.281-11.862S2.653,0,2.258,0,0,3.782,0,8.277,2.553,19.611,2.948,19.611Z" transform="translate(46.981 38.819) rotate(-158)" fill="#fff"/>
          <path id="Path_259-13" data-name="Path 259" d="M2.948,19.611c.395,0-1.281-7.366-1.281-11.862S2.653,0,2.258,0,0,3.782,0,8.277,2.553,19.611,2.948,19.611Z" transform="translate(35.984 35.77) rotate(-129)" fill="#fff"/>
        </g>
        <g id="Group_82-3" data-name="Group 82" transform="translate(118.765 60.691) rotate(146)">
          <path id="Path_84-14" data-name="Path 84" d="M18.916,0C29.364,0,37.833,14.1,37.833,31.5S18.916,63,18.916,63,0,48.9,0,31.5,8.469,0,18.916,0Z" transform="matrix(-0.809, -0.588, 0.588, -0.809, 30.608, 73.206)" fill="#f89f9f"/>
          <path id="Path_256-14" data-name="Path 256" d="M4.541,0c.608,0-1.973,10.291-1.973,16.571S4.086,27.4,3.478,27.4,0,22.114,0,15.835,3.933,0,4.541,0Z" transform="translate(47.919 12.913) rotate(74)" fill="#efcdcd"/>
          <path id="Path_257-14" data-name="Path 257" d="M4.118,0c.551,0-1.789,13.025-1.789,20.974s1.377,13.7.826,13.7S0,27.99,0,20.042,3.567,0,4.118,0Z" transform="translate(48.316 14.943) rotate(59)" fill="#efcdcd"/>
          <path id="Path_258-14" data-name="Path 258" d="M2.948,19.611c.395,0-1.281-7.366-1.281-11.862S2.653,0,2.258,0,0,3.782,0,8.277,2.553,19.611,2.948,19.611Z" transform="translate(46.981 38.819) rotate(-158)" fill="#efcdcd"/>
          <path id="Path_259-14" data-name="Path 259" d="M2.948,19.611c.395,0-1.281-7.366-1.281-11.862S2.653,0,2.258,0,0,3.782,0,8.277,2.553,19.611,2.948,19.611Z" transform="translate(35.984 35.77) rotate(-129)" fill="#efcdcd"/>
        </g>
        <g id="Group_81-3" data-name="Group 81" transform="translate(71.861 26.681) rotate(79)">
          <path id="Path_84-15" data-name="Path 84" d="M18.916,0C29.364,0,37.833,14.1,37.833,31.5S18.916,63,18.916,63,0,48.9,0,31.5,8.469,0,18.916,0Z" transform="matrix(-0.809, -0.588, 0.588, -0.809, 30.608, 73.206)" fill="#f89f9f"/>
          <path id="Path_256-15" data-name="Path 256" d="M4.541,0c.608,0-1.973,10.291-1.973,16.571S4.086,27.4,3.478,27.4,0,22.115,0,15.835,3.933,0,4.541,0Z" transform="translate(47.919 12.913) rotate(74)" fill="#fff"/>
          <path id="Path_257-15" data-name="Path 257" d="M4.118,0c.551,0-1.789,13.025-1.789,20.974s1.377,13.7.826,13.7S0,27.99,0,20.042,3.567,0,4.118,0Z" transform="translate(48.316 14.943) rotate(59)" fill="#fff"/>
          <path id="Path_258-15" data-name="Path 258" d="M2.948,19.611c.395,0-1.281-7.366-1.281-11.862S2.653,0,2.258,0,0,3.782,0,8.277,2.553,19.611,2.948,19.611Z" transform="translate(46.981 38.819) rotate(-158)" fill="#fff"/>
          <path id="Path_259-15" data-name="Path 259" d="M2.948,19.611c.395,0-1.281-7.366-1.281-11.862S2.653,0,2.258,0,0,3.782,0,8.277,2.553,19.611,2.948,19.611Z" transform="translate(35.984 35.77) rotate(-129)" fill="#fff"/>
        </g>
        <ellipse id="Ellipse_41-3" data-name="Ellipse 41" cx="6.15" cy="4.1" rx="6.15" ry="4.1" transform="translate(61.37 74.86)" fill="#bf8d8d"/>
      </g>
    </g>
    <rect id="box" width="350" height="520" transform="translate(-145 -74)" fill="none"/>
  </g>
</svg>
