<svg xmlns="http://www.w3.org/2000/svg" width="350" height="520" viewBox="0 0 350 520">
  <g id="flower-3" transform="translate(63.025 101.126)">
    <g id="Group_84" data-name="Group 84" transform="translate(30.177 111.596)">
      <path id="Path_84" data-name="Path 84" d="M31.536,0C48.953,0,63.072,23.512,63.072,52.515S31.536,105.03,31.536,105.03,0,81.518,0,52.515,14.119,0,31.536,0Z" transform="matrix(-0.809, -0.588, 0.588, -0.809, 51.027, 122.044)" fill="#f89f9f"/>
      <path id="Path_256" data-name="Path 256" d="M7.57,0C8.583,0,4.281,17.157,4.281,27.626S6.812,45.676,5.8,45.676,0,36.868,0,26.4,6.556,0,7.57,0Z" transform="translate(79.888 21.527) rotate(74)" fill="#fff"/>
      <path id="Path_257" data-name="Path 257" d="M6.866,0c.919,0-2.983,21.715-2.983,34.966s2.3,22.845,1.377,22.845S0,46.663,0,33.412,5.947,0,6.866,0Z" transform="translate(80.549 24.911) rotate(59)" fill="#fff"/>
      <path id="Path_258" data-name="Path 258" d="M4.914,32.695c.658,0-2.135-12.281-2.135-19.775S4.422,0,3.765,0,0,6.3,0,13.8,4.257,32.695,4.914,32.695Z" transform="translate(78.323 64.717) rotate(-158)" fill="#fff"/>
      <path id="Path_259" data-name="Path 259" d="M4.914,32.695c.658,0-2.135-12.281-2.135-19.775S4.422,0,3.765,0,0,6.3,0,13.8,4.257,32.695,4.914,32.695Z" transform="translate(59.989 59.634) rotate(-129)" fill="#fff"/>
    </g>
    <g id="Group_85" data-name="Group 85" transform="translate(87.607 212.582) rotate(-83)">
      <path id="Path_84-2" data-name="Path 84" d="M31.536,0C48.953,0,63.072,23.512,63.072,52.515S31.536,105.03,31.536,105.03,0,81.518,0,52.515,14.119,0,31.536,0Z" transform="matrix(-0.809, -0.588, 0.588, -0.809, 51.027, 122.044)" fill="#f89f9f"/>
      <path id="Path_256-2" data-name="Path 256" d="M7.57,0C8.583,0,4.281,17.157,4.281,27.626S6.812,45.676,5.8,45.676,0,36.868,0,26.4,6.556,0,7.57,0Z" transform="translate(79.888 21.527) rotate(74)" fill="#fff"/>
      <path id="Path_257-2" data-name="Path 257" d="M6.866,0c.919,0-2.983,21.715-2.983,34.966s2.3,22.845,1.377,22.845S0,46.663,0,33.412,5.947,0,6.866,0Z" transform="translate(80.549 24.911) rotate(59)" fill="#fff"/>
      <path id="Path_258-2" data-name="Path 258" d="M4.914,32.695c.658,0-2.135-12.281-2.135-19.775S4.422,0,3.765,0,0,6.3,0,13.8,4.257,32.695,4.914,32.695Z" transform="translate(78.323 64.717) rotate(-158)" fill="#fff"/>
      <path id="Path_259-2" data-name="Path 259" d="M4.914,32.695c.658,0-2.135-12.281-2.135-19.775S4.422,0,3.765,0,0,6.3,0,13.8,4.257,32.695,4.914,32.695Z" transform="translate(59.989 59.634) rotate(-129)" fill="#fff"/>
    </g>
    <g id="Group_83" data-name="Group 83" transform="matrix(-0.891, -0.454, 0.454, -0.891, 182.469, 185.322)">
      <path id="Path_84-3" data-name="Path 84" d="M31.536,0C48.953,0,63.072,23.512,63.072,52.515S31.536,105.03,31.536,105.03,0,81.518,0,52.515,14.119,0,31.536,0Z" transform="matrix(-0.809, -0.588, 0.588, -0.809, 51.027, 122.044)" fill="#f89f9f"/>
      <path id="Path_256-3" data-name="Path 256" d="M7.57,0C8.583,0,4.281,17.157,4.281,27.626S6.812,45.676,5.8,45.676,0,36.868,0,26.4,6.556,0,7.57,0Z" transform="translate(79.888 21.527) rotate(74)" fill="#fff"/>
      <path id="Path_257-3" data-name="Path 257" d="M6.866,0c.919,0-2.983,21.715-2.983,34.966s2.3,22.845,1.377,22.845S0,46.663,0,33.412,5.947,0,6.866,0Z" transform="translate(80.549 24.911) rotate(59)" fill="#fff"/>
      <path id="Path_258-3" data-name="Path 258" d="M4.914,32.695c.658,0-2.135-12.281-2.135-19.775S4.422,0,3.765,0,0,6.3,0,13.8,4.257,32.695,4.914,32.695Z" transform="translate(78.323 64.717) rotate(-158)" fill="#fff"/>
      <path id="Path_259-3" data-name="Path 259" d="M4.914,32.695c.658,0-2.135-12.281-2.135-19.775S4.422,0,3.765,0,0,6.3,0,13.8,4.257,32.695,4.914,32.695Z" transform="translate(59.989 59.634) rotate(-129)" fill="#fff"/>
    </g>
    <g id="Group_82" data-name="Group 82" transform="translate(197.997 101.179) rotate(146)">
      <path id="Path_84-4" data-name="Path 84" d="M31.536,0C48.953,0,63.072,23.512,63.072,52.515S31.536,105.03,31.536,105.03,0,81.518,0,52.515,14.119,0,31.536,0Z" transform="matrix(-0.809, -0.588, 0.588, -0.809, 51.027, 122.044)" fill="#f89f9f"/>
      <path id="Path_256-4" data-name="Path 256" d="M7.57,0C8.583,0,4.281,17.157,4.281,27.626S6.812,45.676,5.8,45.676,0,36.868,0,26.4,6.556,0,7.57,0Z" transform="translate(79.888 21.527) rotate(74)" fill="#fff"/>
      <path id="Path_257-4" data-name="Path 257" d="M6.866,0c.919,0-2.983,21.715-2.983,34.966s2.3,22.845,1.377,22.845S0,46.663,0,33.412,5.947,0,6.866,0Z" transform="translate(80.549 24.911) rotate(59)" fill="#fff"/>
      <path id="Path_258-4" data-name="Path 258" d="M4.914,32.695c.658,0-2.135-12.281-2.135-19.775S4.422,0,3.765,0,0,6.3,0,13.8,4.257,32.695,4.914,32.695Z" transform="translate(78.323 64.717) rotate(-158)" fill="#fff"/>
      <path id="Path_259-4" data-name="Path 259" d="M4.914,32.695c.658,0-2.135-12.281-2.135-19.775S4.422,0,3.765,0,0,6.3,0,13.8,4.257,32.695,4.914,32.695Z" transform="translate(59.989 59.634) rotate(-129)" fill="#fff"/>
    </g>
    <g id="Group_81" data-name="Group 81" transform="translate(119.802 44.481) rotate(79)">
      <path id="Path_84-5" data-name="Path 84" d="M31.536,0C48.953,0,63.072,23.512,63.072,52.515S31.536,105.03,31.536,105.03,0,81.518,0,52.515,14.119,0,31.536,0Z" transform="matrix(-0.809, -0.588, 0.588, -0.809, 51.027, 122.044)" fill="#f89f9f"/>
      <path id="Path_256-5" data-name="Path 256" d="M7.57,0C8.583,0,4.281,17.157,4.281,27.626S6.812,45.676,5.8,45.676,0,36.868,0,26.4,6.556,0,7.57,0Z" transform="translate(79.888 21.527) rotate(74)" fill="#fff"/>
      <path id="Path_257-5" data-name="Path 257" d="M6.866,0c.919,0-2.983,21.715-2.983,34.966s2.3,22.845,1.377,22.845S0,46.663,0,33.412,5.947,0,6.866,0Z" transform="translate(80.549 24.911) rotate(59)" fill="#fff"/>
      <path id="Path_258-5" data-name="Path 258" d="M4.914,32.695c.658,0-2.135-12.281-2.135-19.775S4.422,0,3.765,0,0,6.3,0,13.8,4.257,32.695,4.914,32.695Z" transform="translate(78.323 64.717) rotate(-158)" fill="#fff"/>
      <path id="Path_259-5" data-name="Path 259" d="M4.914,32.695c.658,0-2.135-12.281-2.135-19.775S4.422,0,3.765,0,0,6.3,0,13.8,4.257,32.695,4.914,32.695Z" transform="translate(59.989 59.634) rotate(-129)" fill="#fff"/>
    </g>
    <ellipse id="Ellipse_41" data-name="Ellipse 41" cx="10.253" cy="6.835" rx="10.253" ry="6.835" transform="translate(102.311 124.801)" fill="#bf8d8d"/>
    <rect id="box" width="350" height="520" transform="translate(-63.025 -101.126)" fill="none"/>
  </g>
</svg>
