<svg xmlns="http://www.w3.org/2000/svg" width="350" height="520" viewBox="0 0 350 520">
  <g id="summernight1" transform="translate(-12 -29)">
    <g id="fire-2" transform="matrix(0.985, -0.174, 0.174, 0.985, -43.317, 81.284)">
      <g id="Group_54" data-name="Group 54" transform="translate(149.123 102.954)">
        <path id="Path_234" data-name="Path 234" d="M4.55,0V24.933c0,13.77,2.513,24.933,0,24.933S0,38.7,0,24.933A73.333,73.333,0,0,1,4.55,0Z" transform="translate(55.457 26.102) rotate(21)" fill="#e57070"/>
        <path id="Path_235" data-name="Path 235" d="M6.571,0S3.538,6.582,3.538,17.289s1.954,19.388,0,19.388S0,28,0,17.289A26.024,26.024,0,0,1,6.571,0Z" transform="matrix(0.695, 0.719, -0.719, 0.695, 52.086, 12.563)" fill="#e57070"/>
        <path id="Path_236" data-name="Path 236" d="M12.7,0A38.54,38.54,0,0,0,3.285,25.72c0,16.21,1.814,29.352,0,29.352S0,41.93,0,25.72,12.7,0,12.7,0Z" transform="translate(54.862 0) rotate(85)" fill="#e57070"/>
      </g>
      <g id="Group_57" data-name="Group 57" transform="matrix(0.978, -0.208, 0.208, 0.978, 212.268, 99.759)">
        <path id="Path_234-2" data-name="Path 234" d="M4.55,49.867s0-11.163,0-24.933S7.064,0,4.55,0,0,11.163,0,24.933A73.333,73.333,0,0,0,4.55,49.867Z" transform="translate(23.162 72.656) rotate(159)" fill="#fff"/>
        <path id="Path_235-2" data-name="Path 235" d="M6.571,36.677S3.538,30.1,3.538,19.388,5.493,0,3.538,0,0,8.68,0,19.388A26.023,26.023,0,0,0,6.571,36.677Z" transform="matrix(-0.695, 0.719, -0.719, -0.695, 35.045, 38.041)" fill="#fbffbc"/>
        <path id="Path_236-2" data-name="Path 236" d="M12.7,55.071A38.539,38.539,0,0,1,3.285,29.351C3.285,13.141,5.1,0,3.285,0S0,13.141,0,29.351,12.7,55.071,12.7,55.071Z" transform="matrix(-0.087, 0.996, -0.996, -0.087, 60.748, 4.8)" fill="#e57070"/>
      </g>
      <g id="Group_55" data-name="Group 55" transform="translate(111.723 88.707)">
        <path id="Path_234-3" data-name="Path 234" d="M6.64,0V36.383c0,20.094,3.667,36.383,0,36.383S0,56.477,0,36.383A107.009,107.009,0,0,1,6.64,0Z" transform="translate(80.924 38.088) rotate(21)" fill="#fff"/>
        <path id="Path_235-3" data-name="Path 235" d="M9.588,0S5.163,9.6,5.163,25.229s2.852,28.291,0,28.291S0,40.853,0,25.229A37.974,37.974,0,0,1,9.588,0Z" transform="matrix(0.695, 0.719, -0.719, 0.695, 76.005, 18.332)" fill="#fff"/>
        <path id="Path_236-3" data-name="Path 236" d="M18.536,0S4.794,13.876,4.794,37.531s2.647,42.83,0,42.83S0,61.185,0,37.531,18.536,0,18.536,0Z" transform="translate(80.055 0) rotate(85)" fill="#fff"/>
      </g>
      <g id="Group_56" data-name="Group 56" transform="matrix(0.985, 0.174, -0.174, 0.985, 222.118, 93.349)">
        <path id="Path_234-4" data-name="Path 234" d="M6.64,72.766s0-16.289,0-36.383S10.307,0,6.64,0,0,16.289,0,36.383A107.009,107.009,0,0,0,6.64,72.766Z" transform="translate(33.798 106.022) rotate(159)" fill="#fff"/>
        <path id="Path_235-4" data-name="Path 235" d="M9.588,53.519s-4.425-9.6-4.425-25.229S8.015,0,5.163,0,0,12.666,0,28.291A37.974,37.974,0,0,0,9.588,53.519Z" transform="matrix(-0.695, 0.719, -0.719, -0.695, 51.138, 55.51)" fill="#fff"/>
        <path id="Path_236-4" data-name="Path 236" d="M18.536,80.36S4.794,66.484,4.794,42.83,7.441,0,4.794,0,0,19.176,0,42.83,18.536,80.36,18.536,80.36Z" transform="matrix(-0.087, 0.996, -0.996, -0.087, 88.644, 7.004)" fill="#fff"/>
      </g>
      <path id="Path_237" data-name="Path 237" d="M6.233,0C9.676,0,3.212,14.345,3.212,26.64S6.233,44.524,6.233,44.524A46.644,46.644,0,0,1,0,22.262C0,9.967,2.791,0,6.233,0Z" transform="matrix(0.883, 0.469, -0.469, 0.883, 229.949, 71.756)" fill="#e57070"/>
      <path id="Path_238" data-name="Path 238" d="M6.233,44.523c3.442,0-3.021-14.345-3.02-26.64S6.234,0,6.234,0A46.646,46.646,0,0,0,0,22.262C0,34.557,2.79,44.524,6.233,44.523Z" transform="matrix(-0.883, 0.469, -0.469, -0.883, 216.753, 118.192)" fill="#fff"/>
      <path id="Path_239" data-name="Path 239" d="M6.233,44.523c3.442,0-3.021-14.345-3.02-26.64S6.234,0,6.234,0A46.646,46.646,0,0,0,0,22.262C0,34.557,2.79,44.524,6.233,44.523Z" transform="matrix(-0.883, 0.469, -0.469, -0.883, 216.753, 96.82)" fill="#e57070"/>
      <path id="Path_241" data-name="Path 241" d="M6.233,0C9.676,0,3.212,14.345,3.212,26.639S6.233,44.522,6.233,44.522A46.643,46.643,0,0,1,0,22.261C0,9.967,2.791,0,6.233,0Z" transform="translate(270.438 62.816) rotate(60)" fill="#fbffbc"/>
      <path id="Path_240" data-name="Path 240" d="M6.233,44.523c3.442,0-3.021-14.345-3.02-26.64S6.234,0,6.234,0A46.646,46.646,0,0,0,0,22.262C0,34.557,2.79,44.524,6.233,44.523Z" transform="matrix(-0.629, 0.777, -0.777, -0.629, 194.188, 93.622)" fill="#fff"/>
      <path id="Path_242" data-name="Path 242" d="M2.671,0V7.124c0,3.934,1.475,7.124,0,7.124S0,11.058,0,7.124A12.461,12.461,0,0,1,2.671,0Z" transform="matrix(0.883, 0.469, -0.469, 0.883, 154.936, 156.389)" fill="#fff"/>
      <path id="Path_243" data-name="Path 243" d="M2.671,0V7.124c0,3.934,1.475,7.124,0,7.124S0,11.058,0,7.124A12.461,12.461,0,0,1,2.671,0Z" transform="matrix(0.695, 0.719, -0.719, 0.695, 146.343, 125.258)" fill="#fbffbc"/>
      <path id="Path_253" data-name="Path 253" d="M2.671,0V7.124c0,3.934,1.475,7.124,0,7.124S0,11.058,0,7.124A12.461,12.461,0,0,1,2.671,0Z" transform="translate(204.72 129.175) rotate(19)" fill="#fbffbc"/>
      <path id="Path_244" data-name="Path 244" d="M2.671,0V7.124c0,3.934,1.475,7.124,0,7.124S0,11.058,0,7.124A12.461,12.461,0,0,1,2.671,0Z" transform="translate(144.567 103.732) rotate(65)" fill="#fbffbc"/>
      <path id="Path_254" data-name="Path 254" d="M2.671,0V7.124c0,3.934,1.475,7.124,0,7.124S0,11.058,0,7.124A12.461,12.461,0,0,1,2.671,0Z" transform="translate(201.01 113.601) rotate(115)" fill="#fbffbc"/>
      <path id="Path_245" data-name="Path 245" d="M2.671,0V7.124c0,3.934,1.475,7.124,0,7.124S0,11.058,0,7.124A12.461,12.461,0,0,1,2.671,0Z" transform="matrix(-0.208, 0.978, -0.978, -0.208, 158.594, 81.39)" fill="#fff"/>
      <path id="Path_246" data-name="Path 246" d="M2.671,0V7.124c0,3.934,1.475,7.124,0,7.124S0,11.058,0,7.124A12.461,12.461,0,0,1,2.671,0Z" transform="matrix(-0.629, 0.777, -0.777, -0.629, 193.483, 72.26)" fill="#fff"/>
      <path id="Path_247" data-name="Path 247" d="M2.672,14.248s0-3.189,0-7.124S4.147,0,2.671,0,0,3.189,0,7.124A12.462,12.462,0,0,0,2.672,14.248Z" transform="translate(219.419 58.544) rotate(31)" fill="#fff"/>
      <path id="Path_248" data-name="Path 248" d="M2.672,14.248s0-3.189,0-7.124S4.147,0,2.671,0,0,3.189,0,7.124A12.462,12.462,0,0,0,2.672,14.248Z" transform="matrix(0.105, 0.995, -0.995, 0.105, 281.078, 80.917)" fill="#fff"/>
      <path id="Path_249" data-name="Path 249" d="M2.672,14.248s0-3.189,0-7.124S4.147,0,2.671,0,0,3.189,0,7.124A12.462,12.462,0,0,0,2.672,14.248Z" transform="translate(280.574 127.809) rotate(132)" fill="#fff"/>
      <path id="Path_250" data-name="Path 250" d="M2.672,14.248s0-3.189,0-7.124S4.147,0,2.671,0,0,3.189,0,7.124A12.462,12.462,0,0,0,2.672,14.248Z" transform="matrix(-0.97, 0.242, -0.242, -0.97, 273.942, 171.75)" fill="#fbffbc"/>
      <path id="Path_251" data-name="Path 251" d="M2.672,14.248s0-3.189,0-7.124S4.147,0,2.671,0,0,3.189,0,7.124A12.462,12.462,0,0,0,2.672,14.248Z" transform="matrix(-0.951, 0.309, -0.309, -0.951, 245.892, 185.749)" fill="#fbffbc"/>
      <path id="Path_252" data-name="Path 252" d="M2.672,14.248s0-3.189,0-7.124S4.147,0,2.671,0,0,3.189,0,7.124A12.462,12.462,0,0,0,2.672,14.248Z" transform="matrix(-0.883, -0.469, 0.469, -0.883, 215.299, 211.492)" fill="#fff"/>
    </g>
    <rect id="box" width="350" height="520" transform="translate(12 29)" fill="none"/>
  </g>
</svg>
