<svg xmlns="http://www.w3.org/2000/svg" width="350" height="520" viewBox="0 0 350 520">
  <g id="summernightfl" transform="translate(-12 -29)">
    <g id="flower-2" transform="matrix(1, 0.017, -0.017, 1, 97.316, 287.122)">
      <path id="Union_1" data-name="Union 1" d="M84.467,85.909c-43.27,0-68.991,17.723-69.815.864C6.008,82.073,0,71.689,0,59.634,0,43.167,11.21,29.817,25.037,29.817a21.285,21.285,0,0,1,5.413.7c4.066-9.921,12.619-16.755,22.513-16.755a21.459,21.459,0,0,1,8.781,1.885C65.978,6.328,74.257,0,83.777,0c9.785,0,18.258,6.683,22.377,16.428a21.629,21.629,0,0,1,10.364-2.667c10.068,0,18.748,7.077,22.723,17.282a21.345,21.345,0,0,1,7.128-1.226c13.828,0,25.037,13.35,25.037,29.817,0,13.416-7.439,24.762-17.674,28.507-.65,4.379-3.4,5.906-8.072,5.906C134.868,94.047,113.79,85.909,84.467,85.909Z" transform="translate(0 0)" fill="#c84848"/>
      <path id="Path_219" data-name="Path 219" d="M4.333,0C6.726,0,8.666,5.689,8.666,12.707S4.333,25.415,4.333,25.415,0,19.726,0,12.707,1.94,0,4.333,0Z" transform="translate(79.926 25.335)" fill="#fff"/>
      <path id="Path_221" data-name="Path 221" d="M4.333,0C6.726,0,8.666,4.434,8.666,9.9s-4.333,9.9-4.333,9.9S0,15.374,0,9.9,1.94,0,4.333,0Z" transform="matrix(0.848, 0.53, -0.53, 0.848, 110.87, 39.765)" fill="#fff"/>
      <path id="Path_224" data-name="Path 224" d="M4.333,19.809c2.393,0,4.333-4.434,4.333-9.9S4.333,0,4.333,0,0,4.434,0,9.9,1.94,19.809,4.333,19.809Z" transform="matrix(-0.848, 0.53, -0.53, -0.848, 68.098, 57.784)" fill="#fff"/>
      <path id="Path_222" data-name="Path 222" d="M4.333,0C6.726,0,8.666,4.434,8.666,9.9s-4.333,9.9-4.333,9.9S0,15.375,0,9.9,1.94,0,4.333,0Z" transform="matrix(0.438, 0.899, -0.899, 0.438, 131.706, 55.307)" fill="#fff"/>
      <path id="Path_223" data-name="Path 223" d="M4.333,19.809c2.393,0,4.333-4.434,4.333-9.9S4.333,0,4.333,0,0,4.434,0,9.9,1.94,19.809,4.333,19.809Z" transform="matrix(-0.438, 0.899, -0.899, -0.438, 54.569, 65.189)" fill="#fff"/>
    </g>
    <g id="leaf2" transform="translate(-106 -97)">
      <g id="leaf" transform="translate(229.606 461.212)">
        <path id="Path_227" data-name="Path 227" d="M16.936,0c9.245,0,16.74,28.264,16.74,63.13,0,18.967,3.6,38.407,0,51-2.851,9.968-12.524,14.727-16.74,14.727-4.077,0-15.083-6.181-18.082-16.2C-4.731,100.679.2,82.62.2,63.13.2,28.264,7.691,0,16.936,0Z" transform="translate(42.349 1.932)" fill="#38a154"/>
        <path id="Path_226" data-name="Path 226" d="M33.331,3.934c8.465,13.227-3.968,9.419-3.968,30.593s14.02,15.436,7.142,30.779S0,55.7,0,34.527,24.866-9.293,33.331,3.934Z" transform="translate(93.813 75.765) rotate(90)" fill="#38a154"/>
        <path id="Path_228" data-name="Path 228" d="M44.654,5.27c11.341,17.72-5.316,12.618-5.316,40.986S58.121,66.935,48.907,87.49,0,74.623,0,46.256,33.313-12.45,44.654,5.27Z" transform="translate(105.729 42.705) rotate(90)" fill="#38a154"/>
        <path id="Path_229" data-name="Path 229" d="M55.7,6.574c14.145,22.1-6.631,15.739-6.631,51.122S72.5,83.49,61,109.128,0,93.079,0,57.7,41.552-15.529,55.7,6.574Z" transform="translate(117.061 0) rotate(90)" fill="#38a154"/>
      </g>
      <g id="bone" transform="translate(252.237 467.347)">
        <path id="Path_205" data-name="Path 205" d="M6.189,0C7.673,0,7.725,20.8,7.725,46.452S6.189,92.9,6.189,92.9s-1.223-20.8-1.223-46.452S4.7,0,6.189,0Z" transform="translate(31.007 0)" fill="#fff"/>
        <path id="Path_206" data-name="Path 206" d="M37.185-74.285c19.964,0,35.112,28.056,35.112,30.66s-15.148-27.9-35.112-27.9S0-41.021,0-43.625,17.22-74.285,37.185-74.285Z" transform="translate(0 81.869)" fill="#fff"/>
        <path id="Path_207" data-name="Path 207" d="M24.519-74.285c13.164,0,23.152,18.5,23.152,20.216s-9.988-18.4-23.152-18.4S0-52.352,0-54.069,11.355-74.285,24.519-74.285Z" transform="translate(12.224 110.509)" fill="#fff"/>
        <path id="Path_208" data-name="Path 208" d="M14.52-74.285c7.8,0,13.711,10.955,13.711,11.972s-5.915-10.9-13.711-10.9S0-61.3,0-62.313,6.724-74.285,14.52-74.285Z" transform="translate(22.003 137.751)" fill="#fff"/>
      </g>
    </g>
    <rect id="box" width="350" height="520" transform="translate(12 29)" fill="none"/>
  </g>
</svg>
