<svg xmlns="http://www.w3.org/2000/svg" width="350" height="520" viewBox="0 0 350 520">
  <g id="summernightflower" transform="translate(-12 -29)">
    <g id="flower-3" transform="translate(192.054 239.255) rotate(23)">
      <path id="Union_1" data-name="Union 1" d="M66.554,61.934c-30.185,0-49.532,9.37-54.022,3.627C5.195,62.3,0,54.2,0,44.73,0,32.377,8.832,22.365,19.727,22.365a17.571,17.571,0,0,1,4.265.524c3.2-7.441,9.943-12.568,17.738-12.568a17.635,17.635,0,0,1,6.919,1.414C51.986,4.747,58.51,0,66.012,0,73.72,0,80.4,5.014,83.643,12.322a17.717,17.717,0,0,1,8.165-2c7.934,0,14.773,5.309,17.905,12.963a17.586,17.586,0,0,1,5.616-.919c10.9,0,19.728,10.012,19.728,22.365,0,11.053-7.074,20.234-16.368,22.042a9.636,9.636,0,0,1-3.918.651C106.266,67.423,89.659,61.934,66.554,61.934Z" transform="translate(0 0)" fill="#e2bd28"/>
      <path id="Path_219" data-name="Path 219" d="M3.414,0C5.3,0,6.829,4.483,6.829,10.013A18.463,18.463,0,0,1,3.414,20.025,18.463,18.463,0,0,1,0,10.013C0,4.483,1.529,0,3.414,0Z" transform="translate(62.976 18.625)" fill="#fff"/>
      <path id="Path_221" data-name="Path 221" d="M3.414,0C5.3,0,6.829,3.494,6.829,7.8s-3.414,7.8-3.414,7.8S0,12.114,0,7.8,1.529,0,3.414,0Z" transform="matrix(0.848, 0.53, -0.53, 0.848, 87.358, 29.356)" fill="#fff"/>
      <path id="Path_224" data-name="Path 224" d="M3.414,15.608c1.886,0,3.414-3.494,3.414-7.8S3.414,0,3.414,0,0,3.494,0,7.8,1.529,15.608,3.414,15.608Z" transform="matrix(-0.848, 0.53, -0.53, -0.848, 53.657, 43.493)" fill="#fff"/>
      <path id="Path_222" data-name="Path 222" d="M3.414,0C5.3,0,6.829,3.494,6.829,7.8s-3.414,7.8-3.414,7.8S0,12.114,0,7.8,1.529,0,3.414,0Z" transform="matrix(0.438, 0.899, -0.899, 0.438, 103.775, 41.014)" fill="#fff"/>
      <path id="Path_223" data-name="Path 223" d="M3.414,15.608c1.886,0,3.414-3.494,3.414-7.8S3.414,0,3.414,0,0,3.494,0,7.8,1.529,15.608,3.414,15.608Z" transform="matrix(-0.438, 0.899, -0.899, -0.438, 42.997, 48.745)" fill="#fff"/>
    </g>
    <g id="flower-1" transform="translate(34.864 301.565) rotate(-30)">
      <path id="Union_1-2" data-name="Union 1" d="M77.218,68.617c-32.091,0-58.091,4.957-63.88-2.345C5.538,63.022,0,54.8,0,45.173,0,32.7,9.3,22.587,20.764,22.587a19.234,19.234,0,0,1,4.489.529C28.626,15.6,35.719,10.424,43.925,10.424a19.238,19.238,0,0,1,7.282,1.428C54.718,4.794,61.585,0,69.48,0,77.6,0,84.623,5.063,88.039,12.444a19.29,19.29,0,0,1,8.6-2.02c8.349,0,15.548,5.36,18.845,13.091a19.221,19.221,0,0,1,5.912-.929c11.468,0,20.764,10.113,20.764,22.587,0,10.513-6.6,19.348-15.543,21.867-1.52,2.48-4.805,3.221-10.2,3.221C108.392,70.261,95.7,68.617,77.218,68.617Z" transform="translate(0 0)" fill="#a23a3a"/>
      <path id="Path_219-2" data-name="Path 219" d="M3.594,0C5.578,0,7.187,4.718,7.187,10.539A19.433,19.433,0,0,1,3.594,21.078,19.433,19.433,0,0,1,0,10.539C0,4.718,1.609,0,3.594,0Z" transform="translate(66.286 18.441)" fill="#fff"/>
      <path id="Path_221-2" data-name="Path 221" d="M3.594,0C5.578,0,7.187,3.678,7.187,8.214s-3.594,8.214-3.594,8.214S0,12.751,0,8.214,1.609,0,3.594,0Z" transform="matrix(0.848, 0.53, -0.53, 0.848, 91.95, 29.192)" fill="#fff"/>
      <path id="Path_224-2" data-name="Path 224" d="M3.594,16.428c1.985,0,3.594-3.678,3.594-8.214S3.594,0,3.594,0,0,3.678,0,8.214,1.609,16.428,3.594,16.428Z" transform="matrix(-0.848, 0.53, -0.53, -0.848, 56.477, 44.019)" fill="#fff"/>
      <path id="Path_222-2" data-name="Path 222" d="M3.594,0C5.578,0,7.187,3.678,7.187,8.214s-3.594,8.214-3.594,8.214S0,12.751,0,8.214,1.609,0,3.594,0Z" transform="matrix(0.438, 0.899, -0.899, 0.438, 109.23, 40.969)" fill="#fff"/>
      <path id="Path_223-2" data-name="Path 223" d="M3.594,16.428c1.985,0,3.594-3.678,3.594-8.214S3.594,0,3.594,0,0,3.678,0,8.214,1.609,16.428,3.594,16.428Z" transform="matrix(-0.438, 0.899, -0.899, -0.438, 45.257, 49.058)" fill="#fff"/>
    </g>
    <g id="leaf1" transform="matrix(0.985, 0.174, -0.174, 0.985, 51.231, 321.98)">
      <g id="leaf" transform="translate(57.157 0) rotate(30)">
        <path id="Path_227" data-name="Path 227" d="M16.7,0c7.964,0,14.42,24.544,14.42,54.82,0,16.47,3.1,33.351,0,44.287C28.665,107.763,20.333,111.9,16.7,111.9c-3.512,0-12.993-5.368-15.575-14.067-3.089-10.4,1.156-26.083,1.156-43.008C2.282,24.544,8.738,0,16.7,0Z" transform="translate(28.649 2.419)" fill="#338e4b"/>
        <path id="Path_226" data-name="Path 226" d="M28.711,3.01C36,13.13,25.293,10.216,25.293,26.417s12.077,11.81,6.152,23.55S0,42.618,0,26.417,21.42-7.11,28.711,3.01Z" transform="translate(71.74 66.918) rotate(90)" fill="#338e4b"/>
        <path id="Path_228" data-name="Path 228" d="M38.465,4.161c9.769,13.99-4.579,9.962-4.579,32.359s16.18,16.327,8.242,32.556S0,58.917,0,36.52,28.7-9.829,38.465,4.161Z" transform="translate(82.004 35.816) rotate(90)" fill="#338e4b"/>
        <path id="Path_229" data-name="Path 229" d="M52.991,5.715c12.185,17.765-10.725,9.019-10.725,37.46s20.181,20.733,10.281,41.34S0,71.615,0,43.174,40.807-12.051,52.991,5.715Z" transform="translate(90.89 0) rotate(90)" fill="#338e4b"/>
      </g>
      <g id="bone" transform="translate(66.426 10.741) rotate(30)">
        <path id="Path_205" data-name="Path 205" d="M7.736,0C9.015,0,2.46,24.363,2.46,46.461S7.841,87.63,7.226,87.591,0,68.4,0,46.3,6.458,0,7.736,0Z" transform="translate(24.814 0)" fill="#fff"/>
        <path id="Path_206" data-name="Path 206" d="M32.031,0c17.2,0,30.245,24.167,30.245,26.41S49.228,2.376,32.031,2.376,0,28.653,0,26.41,14.834,0,32.031,0Z" transform="translate(0 14.097)" fill="#fff"/>
        <path id="Path_207" data-name="Path 207" d="M21.12,0C32.459,0,41.063,15.935,41.063,17.414S32.459,1.567,21.12,1.567,0,18.893,0,17.414,9.781,0,21.12,0Z" transform="translate(10.53 38.767)" fill="#fff"/>
        <path id="Path_208" data-name="Path 208" d="M12.507,0c6.715,0,11.81,9.437,11.81,10.313S19.223.928,12.507.928,0,11.189,0,10.313,5.792,0,12.507,0Z" transform="translate(18.954 62.233)" fill="#fff"/>
      </g>
    </g>
    <g id="leaf3" transform="translate(173.047 362.63) rotate(-22)">
      <g id="leaf-2" data-name="leaf" transform="translate(135.871 98.999) rotate(150)">
        <path id="Path_227-2" data-name="Path 227" d="M16.7,111.9c7.964,0,14.42-24.544,14.42-54.82,0-16.47,3.1-33.351,0-44.287C28.666,4.133,20.333,0,16.7,0,13.19,0,3.709,5.368,1.126,14.067c-3.089,10.4,1.156,26.083,1.156,43.008C2.282,87.351,8.738,111.9,16.7,111.9Z" transform="translate(28.649 0)" fill="#338e4b"/>
        <path id="Path_226-2" data-name="Path 226" d="M28.711,50.589c7.292-10.12-3.418-7.206-3.418-23.408s12.077-11.81,6.152-23.55S0,10.98,0,27.182,21.42,60.709,28.711,50.589Z" transform="translate(18.141 47.397) rotate(-90)" fill="#338e4b"/>
        <path id="Path_228-2" data-name="Path 228" d="M38.465,69.936c9.769-13.99-4.579-9.962-4.579-32.359S50.065,21.25,42.128,5.021,0,15.18,0,37.577,28.7,83.927,38.465,69.936Z" transform="translate(7.907 78.499) rotate(-90)" fill="#338e4b"/>
        <path id="Path_229-2" data-name="Path 229" d="M52.991,85.176c12.185-17.766-10.725-9.019-10.725-37.46S62.447,26.984,52.547,6.376,0,19.276,0,47.716,40.807,102.942,52.991,85.176Z" transform="translate(0 114.315) rotate(-90)" fill="#338e4b"/>
      </g>
      <g id="bone-2" data-name="bone" transform="translate(113.24 86.597) rotate(150)">
        <path id="Path_205-2" data-name="Path 205" d="M7.736,87.591c1.279,0-5.276-24.363-5.276-46.461S7.841-.04,7.226,0,0,19.189,0,41.288,6.458,87.591,7.736,87.591Z" transform="translate(24.814 0)" fill="#fff"/>
        <path id="Path_206-2" data-name="Path 206" d="M32.031,26.546c17.2,0,30.245-24.167,30.245-26.41S49.228,24.17,32.031,24.17,0-2.107,0,.136,14.834,26.546,32.031,26.546Z" transform="translate(0 46.947)" fill="#fff"/>
        <path id="Path_207-2" data-name="Path 207" d="M21.12,17.5C32.459,17.5,41.063,1.569,41.063.09s-8.6,15.848-19.943,15.848S0-1.389,0,.09,9.781,17.5,21.12,17.5Z" transform="translate(10.53 31.32)" fill="#fff"/>
        <path id="Path_208-2" data-name="Path 208" d="M12.507,10.366c6.715,0,11.81-9.437,11.81-10.313s-5.1,9.385-11.81,9.385S0-.823,0,.053,5.792,10.366,12.507,10.366Z" transform="translate(18.954 14.992)" fill="#fff"/>
      </g>
    </g>
    <rect id="box" width="350" height="520" transform="translate(12 29)" fill="none"/>
  </g>
</svg>
