<svg xmlns="http://www.w3.org/2000/svg" width="548.604" height="539.645" viewBox="0 0 548.604 539.645">
  <g id="summernight" transform="translate(103.403 -74.829)">
    <path id="back-2" d="M201.438,0C333.521,0,440.6,82.671,440.6,184.651S333.521,369.3,201.438,369.3,30.8,286.632,30.8,184.651,69.356,0,201.438,0Z" transform="translate(-39.798 139)" fill="rgba(250,150,50,0.79)"/>
    <path id="back-1" d="M201.438,0C333.521,0,440.6,82.671,440.6,184.651S333.521,369.3,201.438,369.3,30.8,286.632,30.8,184.651,69.356,0,201.438,0Z" transform="matrix(-0.809, 0.588, -0.588, -0.809, 470.117, 355.498)" fill="rgba(50,114,149,0.79)"/>
    <g id="flower-3" transform="translate(190.891 235.808) rotate(23)">
      <path id="Union_1" data-name="Union 1" d="M68.1,65.55c-30.885,0-50.682,9.917-55.275,3.839C5.315,65.939,0,57.368,0,47.342,0,34.268,9.037,23.671,20.185,23.671a17.413,17.413,0,0,1,4.364.555c3.278-7.876,10.174-13.3,18.15-13.3a17.529,17.529,0,0,1,7.08,1.5C53.192,5.024,59.868,0,67.543,0c7.888,0,14.719,5.307,18.04,13.041a17.646,17.646,0,0,1,8.354-2.117c8.118,0,15.116,5.619,18.321,13.72a17.451,17.451,0,0,1,5.747-.973c11.148,0,20.186,10.6,20.186,23.671,0,11.7-7.238,21.416-16.748,23.329a9.568,9.568,0,0,1-4.009.689C108.732,71.36,91.74,65.55,68.1,65.55Z" transform="translate(0 0)" fill="#e2bd28"/>
      <path id="Path_219" data-name="Path 219" d="M3.493,0C5.423,0,6.987,4.587,6.987,10.245A18.891,18.891,0,0,1,3.493,20.49,18.891,18.891,0,0,1,0,10.245C0,4.587,1.564,0,3.493,0Z" transform="translate(64.438 19.989)" fill="#fff"/>
      <path id="Path_221" data-name="Path 221" d="M3.493,0C5.423,0,6.987,3.575,6.987,7.985S3.493,15.97,3.493,15.97,0,12.4,0,7.985,1.564,0,3.493,0Z" transform="matrix(0.848, 0.53, -0.53, 0.848, 89.385, 31.415)" fill="#fff"/>
      <path id="Path_224" data-name="Path 224" d="M3.493,15.97c1.929,0,3.493-3.575,3.493-7.985S3.493,0,3.493,0,0,3.575,0,7.985,1.564,15.97,3.493,15.97Z" transform="matrix(-0.848, 0.53, -0.53, -0.848, 54.902, 45.922)" fill="#fff"/>
      <path id="Path_222" data-name="Path 222" d="M3.493,0C5.423,0,6.987,3.575,6.987,7.985S3.493,15.97,3.493,15.97,0,12.4,0,7.985,1.564,0,3.493,0Z" transform="matrix(0.438, 0.899, -0.899, 0.438, 106.184, 43.753)" fill="#fff"/>
      <path id="Path_223" data-name="Path 223" d="M3.493,15.97c1.929,0,3.493-3.575,3.493-7.985S3.493,0,3.493,0,0,3.575,0,7.985,1.564,15.97,3.493,15.97Z" transform="matrix(-0.438, 0.899, -0.899, -0.438, 43.995, 51.702)" fill="#fff"/>
    </g>
    <g id="flower-1" transform="matrix(0.839, -0.545, 0.545, 0.839, 40.978, 319.107)">
      <path id="Union_1-2" data-name="Union 1" d="M71.677,58.835c-32.509,0-53.345,8.9-58.181,3.446A21.253,21.253,0,0,1,25.84,21.744,21.273,21.273,0,0,1,52.4,11.149a21.254,21.254,0,0,1,37.686.556A21.267,21.267,0,0,1,118.159,22.12a21.25,21.25,0,1,1,9.667,41.312,11.624,11.624,0,0,1-4.219.618C114.448,64.051,96.562,58.835,71.677,58.835Z" transform="translate(0 0)" fill="#a23a3a"/>
      <path id="Path_219-2" data-name="Path 219" d="M3.677,0C5.708,0,7.354,4.828,7.354,10.783A19.884,19.884,0,0,1,3.677,21.567,19.884,19.884,0,0,1,0,10.783C0,4.828,1.646,0,3.677,0Z" transform="translate(67.824 16.694)" fill="#fff"/>
      <path id="Path_221-2" data-name="Path 221" d="M3.677,0C5.708,0,7.354,3.763,7.354,8.4s-3.677,8.4-3.677,8.4S0,13.047,0,8.4,1.646,0,3.677,0Z" transform="matrix(0.848, 0.53, -0.53, 0.848, 94.083, 26.645)" fill="#fff"/>
      <path id="Path_224-2" data-name="Path 224" d="M3.677,16.81c2.031,0,3.677-3.763,3.677-8.4S3.677,0,3.677,0,0,3.763,0,8.4,1.646,16.81,3.677,16.81Z" transform="matrix(-0.848, 0.53, -0.53, -0.848, 57.788, 41.718)" fill="#fff"/>
      <path id="Path_222-2" data-name="Path 222" d="M3.677,0C5.708,0,7.354,3.763,7.354,8.4s-3.677,8.4-3.677,8.4S0,13.047,0,8.4,1.646,0,3.677,0Z" transform="matrix(0.438, 0.899, -0.899, 0.438, 111.765, 37.721)" fill="#fff"/>
      <path id="Path_223-2" data-name="Path 223" d="M3.677,16.81c2.031,0,3.677-3.763,3.677-8.4S3.677,0,3.677,0,0,3.763,0,8.4,1.646,16.81,3.677,16.81Z" transform="matrix(-0.438, 0.899, -0.899, -0.438, 46.307, 45.907)" fill="#fff"/>
    </g>
    <g id="flower-2" transform="translate(3 292)">
      <path id="Union_1-3" data-name="Union 1" d="M-6940.285,77c-39.782,0-65.281,10.893-71.2,4.216A26.008,26.008,0,0,1-7028,57a26,26,0,0,1,26-26,26.1,26.1,0,0,1,5.621.609A26,26,0,0,1-6973,17a25.942,25.942,0,0,1,9.119,1.644A26,26,0,0,1-6941,5a26,26,0,0,1,23.237,14.324A25.9,25.9,0,0,1-6907,17a26,26,0,0,1,23.6,15.07A26.014,26.014,0,0,1-6876,31a26,26,0,0,1,26,26,26.008,26.008,0,0,1-21.573,25.625,14.226,14.226,0,0,1-5.164.757C-6887.945,83.382-6909.833,77-6940.285,77Z" transform="translate(7124 5)" fill="#c84848"/>
      <path id="Path_219-3" data-name="Path 219" d="M4.5,0C6.985,0,9,5.908,9,13.2s-4.5,13.2-4.5,13.2S0,20.484,0,13.2,2.015,0,4.5,0Z" transform="translate(179 30.429)" fill="#fff"/>
      <path id="Path_221-3" data-name="Path 221" d="M4.5,0C6.985,0,9,4.6,9,10.285S4.5,20.571,4.5,20.571,0,15.966,0,10.285,2.015,0,4.5,0Z" transform="matrix(0.848, 0.53, -0.53, 0.848, 211.134, 42.607)" fill="#fff"/>
      <path id="Path_224-3" data-name="Path 224" d="M4.5,20.571c2.485,0,4.5-4.6,4.5-10.285S4.5,0,4.5,0,0,4.6,0,10.285,2.015,20.571,4.5,20.571Z" transform="matrix(-0.848, 0.53, -0.53, -0.848, 166.717, 61.052)" fill="#fff"/>
      <path id="Path_222-3" data-name="Path 222" d="M4.5,0C6.985,0,9,4.6,9,10.285S4.5,20.571,4.5,20.571,0,15.966,0,10.285,2.015,0,4.5,0Z" transform="matrix(0.438, 0.899, -0.899, 0.438, 232.772, 56.161)" fill="#fff"/>
      <path id="Path_223-3" data-name="Path 223" d="M4.5,20.571c2.485,0,4.5-4.6,4.5-10.285S4.5,0,4.5,0,0,4.6,0,10.285,2.015,20.571,4.5,20.571Z" transform="matrix(-0.438, 0.899, -0.899, -0.438, 152.668, 66.179)" fill="#fff"/>
    </g>
    <g id="leaf1" transform="translate(47.318 329.481) rotate(7)">
      <g id="leaf" transform="translate(57.157 0) rotate(30)">
        <path id="Path_227" data-name="Path 227" d="M16.7,0c7.964,0,14.42,24.544,14.42,54.82,0,16.47,3.1,33.351,0,44.287C28.665,107.763,20.333,111.9,16.7,111.9c-3.512,0-12.993-5.368-15.575-14.067-3.089-10.4,1.156-26.083,1.156-43.008C2.282,24.544,8.738,0,16.7,0Z" transform="translate(28.649 2.419)" fill="#338e4b"/>
        <path id="Path_226" data-name="Path 226" d="M28.711,3.01C36,13.13,25.293,10.216,25.293,26.417s12.077,11.81,6.152,23.55S0,42.618,0,26.417,21.42-7.11,28.711,3.01Z" transform="translate(71.74 66.918) rotate(90)" fill="#338e4b"/>
        <path id="Path_228" data-name="Path 228" d="M38.465,4.161c9.769,13.99-4.579,9.962-4.579,32.359s16.18,16.327,8.242,32.556S0,58.917,0,36.52,28.7-9.829,38.465,4.161Z" transform="translate(82.004 35.816) rotate(90)" fill="#338e4b"/>
        <path id="Path_229" data-name="Path 229" d="M52.991,5.715c12.185,17.765-10.725,9.019-10.725,37.46s20.181,20.733,10.281,41.34S0,71.615,0,43.174,40.807-12.051,52.991,5.715Z" transform="translate(90.89 0) rotate(90)" fill="#338e4b"/>
      </g>
      <g id="bone" transform="translate(66.426 10.741) rotate(30)">
        <path id="Path_205" data-name="Path 205" d="M7.736,0C9.015,0,2.46,24.363,2.46,46.461S7.841,87.63,7.226,87.591,0,68.4,0,46.3,6.458,0,7.736,0Z" transform="translate(24.814 0)" fill="#fff"/>
        <path id="Path_206" data-name="Path 206" d="M32.031,0c17.2,0,30.245,24.167,30.245,26.41S49.228,2.376,32.031,2.376,0,28.653,0,26.41,14.834,0,32.031,0Z" transform="translate(0 14.097)" fill="#fff"/>
        <path id="Path_207" data-name="Path 207" d="M21.12,0C32.459,0,41.063,15.935,41.063,17.414S32.459,1.567,21.12,1.567,0,18.893,0,17.414,9.781,0,21.12,0Z" transform="translate(10.53 38.767)" fill="#fff"/>
        <path id="Path_208" data-name="Path 208" d="M12.507,0c6.715,0,11.81,9.437,11.81,10.313S19.223.928,12.507.928,0,11.189,0,10.313,5.792,0,12.507,0Z" transform="translate(18.954 62.233)" fill="#fff"/>
      </g>
    </g>
    <g id="leaf3" transform="translate(171.095 363.7) rotate(-25)">
      <g id="leaf-2" data-name="leaf" transform="translate(135.871 98.999) rotate(150)">
        <path id="Path_227-2" data-name="Path 227" d="M16.7,111.9c7.964,0,14.42-24.544,14.42-54.82,0-16.47,3.1-33.351,0-44.287C28.666,4.133,20.333,0,16.7,0,13.19,0,3.709,5.368,1.126,14.067c-3.089,10.4,1.156,26.083,1.156,43.008C2.282,87.351,8.738,111.9,16.7,111.9Z" transform="translate(28.649 0)" fill="#338e4b"/>
        <path id="Path_226-2" data-name="Path 226" d="M28.711,50.589c7.292-10.12-3.418-7.206-3.418-23.408s12.077-11.81,6.152-23.55S0,10.98,0,27.182,21.42,60.709,28.711,50.589Z" transform="translate(18.141 47.397) rotate(-90)" fill="#338e4b"/>
        <path id="Path_228-2" data-name="Path 228" d="M38.465,69.936c9.769-13.99-4.579-9.962-4.579-32.359S50.065,21.25,42.128,5.021,0,15.18,0,37.577,28.7,83.927,38.465,69.936Z" transform="translate(7.907 78.499) rotate(-90)" fill="#338e4b"/>
        <path id="Path_229-2" data-name="Path 229" d="M52.991,85.176c12.185-17.766-10.725-9.019-10.725-37.46S62.447,26.984,52.547,6.376,0,19.276,0,47.716,40.807,102.942,52.991,85.176Z" transform="translate(0 114.315) rotate(-90)" fill="#338e4b"/>
      </g>
      <g id="bone-2" data-name="bone" transform="translate(113.24 86.597) rotate(150)">
        <path id="Path_205-2" data-name="Path 205" d="M7.736,87.591c1.279,0-5.276-24.363-5.276-46.461S7.841-.04,7.226,0,0,19.189,0,41.288,6.458,87.591,7.736,87.591Z" transform="translate(24.814 0)" fill="#fff"/>
        <path id="Path_206-2" data-name="Path 206" d="M32.031,26.546c17.2,0,30.245-24.167,30.245-26.41S49.228,24.17,32.031,24.17,0-2.107,0,.136,14.834,26.546,32.031,26.546Z" transform="translate(0 46.947)" fill="#fff"/>
        <path id="Path_207-2" data-name="Path 207" d="M21.12,17.5C32.459,17.5,41.063,1.569,41.063.09s-8.6,15.848-19.943,15.848S0-1.389,0,.09,9.781,17.5,21.12,17.5Z" transform="translate(10.53 31.32)" fill="#fff"/>
        <path id="Path_208-2" data-name="Path 208" d="M12.507,10.366c6.715,0,11.81-9.437,11.81-10.313s-5.1,9.385-11.81,9.385S0-.823,0,.053,5.792,10.366,12.507,10.366Z" transform="translate(18.954 14.992)" fill="#fff"/>
      </g>
    </g>
    <g id="leaf2" transform="translate(-106 -97)">
      <g id="leaf-3" data-name="leaf" transform="translate(229.606 461.212)">
        <path id="Path_227-3" data-name="Path 227" d="M16.936,0c9.245,0,16.74,28.264,16.74,63.13,0,18.967,3.6,38.407,0,51-2.851,9.968-12.524,14.727-16.74,14.727-4.077,0-15.083-6.181-18.082-16.2C-4.731,100.679.2,82.62.2,63.13.2,28.264,7.691,0,16.936,0Z" transform="translate(42.349 1.932)" fill="#38a154"/>
        <path id="Path_226-3" data-name="Path 226" d="M33.331,3.934c8.465,13.227-3.968,9.419-3.968,30.593s14.02,15.436,7.142,30.779S0,55.7,0,34.527,24.866-9.293,33.331,3.934Z" transform="translate(93.813 75.765) rotate(90)" fill="#38a154"/>
        <path id="Path_228-3" data-name="Path 228" d="M44.654,5.27c11.341,17.72-5.316,12.618-5.316,40.986S58.121,66.935,48.907,87.49,0,74.623,0,46.256,33.313-12.45,44.654,5.27Z" transform="translate(105.729 42.705) rotate(90)" fill="#38a154"/>
        <path id="Path_229-3" data-name="Path 229" d="M55.7,6.574c14.145,22.1-6.631,15.739-6.631,51.122S72.5,83.49,61,109.128,0,93.079,0,57.7,41.552-15.529,55.7,6.574Z" transform="translate(117.061 0) rotate(90)" fill="#38a154"/>
      </g>
      <g id="bone-3" data-name="bone" transform="translate(252.237 467.347)">
        <path id="Path_205-3" data-name="Path 205" d="M6.189,0C7.673,0,7.725,20.8,7.725,46.452S6.189,92.9,6.189,92.9s-1.223-20.8-1.223-46.452S4.7,0,6.189,0Z" transform="translate(31.007 0)" fill="#fff"/>
        <path id="Path_206-3" data-name="Path 206" d="M37.185-74.285c19.964,0,35.112,28.056,35.112,30.66s-15.148-27.9-35.112-27.9S0-41.021,0-43.625,17.22-74.285,37.185-74.285Z" transform="translate(0 81.869)" fill="#fff"/>
        <path id="Path_207-3" data-name="Path 207" d="M24.519-74.285c13.164,0,23.152,18.5,23.152,20.216s-9.988-18.4-23.152-18.4S0-52.352,0-54.069,11.355-74.285,24.519-74.285Z" transform="translate(12.224 110.509)" fill="#fff"/>
        <path id="Path_208-3" data-name="Path 208" d="M14.52-74.285c7.8,0,13.711,10.955,13.711,11.972s-5.915-10.9-13.711-10.9S0-61.3,0-62.313,6.724-74.285,14.52-74.285Z" transform="translate(22.003 137.751)" fill="#fff"/>
      </g>
    </g>
    <g id="fire-1" transform="translate(-97.665 301.497) rotate(-60)">
      <g id="Group_54" data-name="Group 54" transform="translate(123.664 72.018)">
        <path id="Path_234" data-name="Path 234" d="M1.453,0V7.961c0,4.4.8,7.961,0,7.961S0,12.357,0,7.961A23.413,23.413,0,0,1,1.453,0Z" transform="translate(17.706 8.334) rotate(21)" fill="#e57070"/>
        <path id="Path_235" data-name="Path 235" d="M2.1,0A14.293,14.293,0,0,0,1.13,5.52c0,3.419.624,6.19,0,6.19S0,8.939,0,5.52A8.309,8.309,0,0,1,2.1,0Z" transform="matrix(0.695, 0.719, -0.719, 0.695, 16.63, 4.011)" fill="#e57070"/>
        <path id="Path_236" data-name="Path 236" d="M4.056,0A12.3,12.3,0,0,0,1.049,8.212c0,5.176.579,9.371,0,9.371S0,13.387,0,8.212A11.006,11.006,0,0,1,4.056,0Z" transform="translate(17.516 0) rotate(85)" fill="#e57070"/>
      </g>
      <g id="Group_57" data-name="Group 57" transform="matrix(0.978, -0.208, 0.208, 0.978, 143.825, 70.998)">
        <path id="Path_234-2" data-name="Path 234" d="M1.453,15.921s0-3.564,0-7.961S2.255,0,1.453,0,0,3.564,0,7.961A23.413,23.413,0,0,0,1.453,15.921Z" transform="translate(7.395 23.197) rotate(159)" fill="#fff"/>
        <path id="Path_235-2" data-name="Path 235" d="M2.1,11.71A14.293,14.293,0,0,1,1.13,6.19c0-3.419.624-6.19,0-6.19S0,2.771,0,6.19A8.309,8.309,0,0,0,2.1,11.71Z" transform="matrix(-0.695, 0.719, -0.719, -0.695, 11.189, 12.146)" fill="#fbffbc"/>
        <path id="Path_236-2" data-name="Path 236" d="M4.056,17.583A12.3,12.3,0,0,1,1.049,9.371C1.049,4.2,1.628,0,1.049,0S0,4.2,0,9.371A11.006,11.006,0,0,0,4.056,17.583Z" transform="matrix(-0.087, 0.996, -0.996, -0.087, 19.395, 1.532)" fill="#e57070"/>
      </g>
      <g id="Group_55" data-name="Group 55" transform="translate(111.723 67.469)">
        <path id="Path_234-3" data-name="Path 234" d="M2.12,0V11.616c0,6.415,1.171,11.616,0,11.616S0,18.032,0,11.616A34.165,34.165,0,0,1,2.12,0Z" transform="translate(25.837 12.161) rotate(21)" fill="#fff"/>
        <path id="Path_235-3" data-name="Path 235" d="M3.061,0A20.856,20.856,0,0,0,1.648,8.055c0,4.989.91,9.033,0,9.033S0,13.043,0,8.055A12.124,12.124,0,0,1,3.061,0Z" transform="matrix(0.695, 0.719, -0.719, 0.695, 24.267, 5.853)" fill="#fff"/>
        <path id="Path_236-3" data-name="Path 236" d="M5.918,0A17.955,17.955,0,0,0,1.531,11.983c0,7.552.845,13.675,0,13.675S0,19.535,0,11.983,5.918,0,5.918,0Z" transform="translate(25.56 0) rotate(85)" fill="#fff"/>
      </g>
      <g id="Group_56" data-name="Group 56" transform="matrix(0.985, 0.174, -0.174, 0.985, 146.97, 68.951)">
        <path id="Path_234-4" data-name="Path 234" d="M2.12,23.233s0-5.2,0-11.616S3.291,0,2.12,0,0,5.2,0,11.616A34.165,34.165,0,0,0,2.12,23.233Z" transform="translate(10.791 33.85) rotate(159)" fill="#fff"/>
        <path id="Path_235-4" data-name="Path 235" d="M3.061,17.087A20.856,20.856,0,0,1,1.648,9.033c0-4.989.91-9.033,0-9.033S0,4.044,0,9.033A12.124,12.124,0,0,0,3.061,17.087Z" transform="matrix(-0.695, 0.719, -0.719, -0.695, 16.327, 17.723)" fill="#fff"/>
        <path id="Path_236-4" data-name="Path 236" d="M5.918,25.657A17.955,17.955,0,0,1,1.531,13.675C1.531,6.122,2.376,0,1.531,0S0,6.122,0,13.675,5.918,25.657,5.918,25.657Z" transform="matrix(-0.087, 0.996, -0.996, -0.087, 28.302, 2.236)" fill="#fff"/>
      </g>
      <path id="Path_237" data-name="Path 237" d="M1.99,0c1.1,0-.965,4.58-.965,8.506s.965,5.71.965,5.71A14.892,14.892,0,0,1,0,7.108C0,3.182.891,0,1.99,0Z" transform="matrix(0.883, 0.469, -0.469, 0.883, 149.47, 62.057)" fill="#e57070"/>
      <path id="Path_238" data-name="Path 238" d="M1.99,14.215c1.1,0-.964-4.58-.964-8.505S1.99,0,1.99,0A14.893,14.893,0,0,0,0,7.108C0,11.033.891,14.215,1.99,14.215Z" transform="matrix(-0.883, 0.469, -0.469, -0.883, 145.257, 76.883)" fill="#fff"/>
      <path id="Path_239" data-name="Path 239" d="M1.99,14.215c1.1,0-.964-4.58-.964-8.505S1.99,0,1.99,0A14.893,14.893,0,0,0,0,7.108C0,11.033.891,14.215,1.99,14.215Z" transform="matrix(-0.883, 0.469, -0.469, -0.883, 145.257, 70.06)" fill="#e57070"/>
      <path id="Path_241" data-name="Path 241" d="M1.99,0c1.1,0-.965,4.58-.965,8.505s.964,5.71.964,5.71A14.892,14.892,0,0,1,0,7.107C0,3.182.891,0,1.99,0Z" transform="translate(162.397 59.203) rotate(60)" fill="#fff"/>
      <path id="Path_240" data-name="Path 240" d="M1.99,14.215c1.1,0-.964-4.58-.964-8.505S1.99,0,1.99,0A14.893,14.893,0,0,0,0,7.108C0,11.033.891,14.215,1.99,14.215Z" transform="matrix(-0.629, 0.777, -0.777, -0.629, 138.052, 69.039)" fill="#fff"/>
      <path id="Path_242" data-name="Path 242" d="M.853,0V2.274c0,1.256.471,2.274,0,2.274S0,3.531,0,2.274A3.979,3.979,0,0,1,.853,0Z" transform="matrix(0.883, 0.469, -0.469, 0.883, 125.52, 89.079)" fill="#fff"/>
      <path id="Path_243" data-name="Path 243" d="M.853,0V2.274c0,1.256.471,2.274,0,2.274S0,3.531,0,2.274A3.979,3.979,0,0,1,.853,0Z" transform="matrix(0.695, 0.719, -0.719, 0.695, 122.776, 79.139)" fill="#fbffbc"/>
      <path id="Path_253" data-name="Path 253" d="M.853,0V2.274c0,1.256.471,2.274,0,2.274S0,3.531,0,2.274A3.979,3.979,0,0,1,.853,0Z" transform="translate(141.415 80.39) rotate(19)" fill="#fbffbc"/>
      <path id="Path_244" data-name="Path 244" d="M.853,0V2.274c0,1.256.471,2.274,0,2.274S0,3.531,0,2.274A3.979,3.979,0,0,1,.853,0Z" transform="translate(122.21 72.267) rotate(65)" fill="#fbffbc"/>
      <path id="Path_254" data-name="Path 254" d="M.853,0V2.274c0,1.256.471,2.274,0,2.274S0,3.531,0,2.274A3.979,3.979,0,0,1,.853,0Z" transform="translate(140.23 75.418) rotate(115)" fill="#fbffbc"/>
      <path id="Path_245" data-name="Path 245" d="M.853,0V2.274c0,1.256.471,2.274,0,2.274S0,3.531,0,2.274A3.979,3.979,0,0,1,.853,0Z" transform="matrix(-0.208, 0.978, -0.978, -0.208, 126.688, 65.133)" fill="#fff"/>
      <path id="Path_246" data-name="Path 246" d="M.853,0V2.274c0,1.256.471,2.274,0,2.274S0,3.531,0,2.274A3.979,3.979,0,0,1,.853,0Z" transform="matrix(-0.629, 0.777, -0.777, -0.629, 137.827, 62.218)" fill="#fff"/>
      <path id="Path_247" data-name="Path 247" d="M.853,4.549V2.274C.853,1.018,1.324,0,.853,0S0,1.018,0,2.274A3.979,3.979,0,0,0,.853,4.549Z" transform="translate(146.108 57.839) rotate(31)" fill="#fff"/>
      <path id="Path_248" data-name="Path 248" d="M.853,4.549V2.274C.853,1.018,1.324,0,.853,0S0,1.018,0,2.274A3.979,3.979,0,0,0,.853,4.549Z" transform="matrix(0.105, 0.995, -0.995, 0.105, 165.794, 64.982)" fill="#fff"/>
      <path id="Path_249" data-name="Path 249" d="M.853,4.549V2.274C.853,1.018,1.324,0,.853,0S0,1.018,0,2.274A3.979,3.979,0,0,0,.853,4.549Z" transform="translate(165.633 79.954) rotate(132)" fill="#fff"/>
      <path id="Path_250" data-name="Path 250" d="M.853,4.549V2.274C.853,1.018,1.324,0,.853,0S0,1.018,0,2.274A3.979,3.979,0,0,0,.853,4.549Z" transform="matrix(-0.97, 0.242, -0.242, -0.97, 163.516, 93.983)" fill="#fbffbc"/>
      <path id="Path_251" data-name="Path 251" d="M.853,4.549V2.274C.853,1.018,1.324,0,.853,0S0,1.018,0,2.274A3.979,3.979,0,0,0,.853,4.549Z" transform="matrix(-0.951, 0.309, -0.309, -0.951, 154.56, 98.453)" fill="#fbffbc"/>
      <path id="Path_252" data-name="Path 252" d="M.853,4.549V2.274C.853,1.018,1.324,0,.853,0S0,1.018,0,2.274A3.979,3.979,0,0,0,.853,4.549Z" transform="matrix(-0.883, -0.469, 0.469, -0.883, 144.793, 106.672)" fill="#fff"/>
    </g>
    <g id="fire-3" transform="translate(269.783 92.344) rotate(38)">
      <g id="Group_54-2" data-name="Group 54" transform="translate(123.664 72.018)">
        <path id="Path_234-5" data-name="Path 234" d="M1.453,0V7.961c0,4.4.8,7.961,0,7.961S0,12.357,0,7.961A23.413,23.413,0,0,1,1.453,0Z" transform="translate(17.706 8.334) rotate(21)" fill="#e57070"/>
        <path id="Path_235-5" data-name="Path 235" d="M2.1,0A14.293,14.293,0,0,0,1.13,5.52c0,3.419.624,6.19,0,6.19S0,8.939,0,5.52A8.309,8.309,0,0,1,2.1,0Z" transform="matrix(0.695, 0.719, -0.719, 0.695, 16.63, 4.011)" fill="#e57070"/>
        <path id="Path_236-5" data-name="Path 236" d="M4.056,0A12.3,12.3,0,0,0,1.049,8.212c0,5.176.579,9.371,0,9.371S0,13.387,0,8.212A11.006,11.006,0,0,1,4.056,0Z" transform="translate(17.516 0) rotate(85)" fill="#e57070"/>
      </g>
      <g id="Group_57-2" data-name="Group 57" transform="matrix(0.978, -0.208, 0.208, 0.978, 143.825, 70.998)">
        <path id="Path_234-6" data-name="Path 234" d="M1.453,15.921s0-3.564,0-7.961S2.255,0,1.453,0,0,3.564,0,7.961A23.413,23.413,0,0,0,1.453,15.921Z" transform="translate(7.395 23.197) rotate(159)" fill="#fff"/>
        <path id="Path_235-6" data-name="Path 235" d="M2.1,11.71A14.293,14.293,0,0,1,1.13,6.19c0-3.419.624-6.19,0-6.19S0,2.771,0,6.19A8.309,8.309,0,0,0,2.1,11.71Z" transform="matrix(-0.695, 0.719, -0.719, -0.695, 11.189, 12.146)" fill="#fbffbc"/>
        <path id="Path_236-6" data-name="Path 236" d="M4.056,17.583A12.3,12.3,0,0,1,1.049,9.371C1.049,4.2,1.628,0,1.049,0S0,4.2,0,9.371A11.006,11.006,0,0,0,4.056,17.583Z" transform="matrix(-0.087, 0.996, -0.996, -0.087, 19.395, 1.532)" fill="#e57070"/>
      </g>
      <g id="Group_55-2" data-name="Group 55" transform="translate(111.723 67.469)">
        <path id="Path_234-7" data-name="Path 234" d="M2.12,0V11.616c0,6.415,1.171,11.616,0,11.616S0,18.032,0,11.616A34.165,34.165,0,0,1,2.12,0Z" transform="translate(25.837 12.161) rotate(21)" fill="#fff"/>
        <path id="Path_235-7" data-name="Path 235" d="M3.061,0A20.856,20.856,0,0,0,1.648,8.055c0,4.989.91,9.033,0,9.033S0,13.043,0,8.055A12.124,12.124,0,0,1,3.061,0Z" transform="matrix(0.695, 0.719, -0.719, 0.695, 24.267, 5.853)" fill="#fff"/>
        <path id="Path_236-7" data-name="Path 236" d="M5.918,0A17.955,17.955,0,0,0,1.531,11.983c0,7.552.845,13.675,0,13.675S0,19.535,0,11.983,5.918,0,5.918,0Z" transform="translate(25.56 0) rotate(85)" fill="#fff"/>
      </g>
      <g id="Group_56-2" data-name="Group 56" transform="matrix(0.985, 0.174, -0.174, 0.985, 146.97, 68.951)">
        <path id="Path_234-8" data-name="Path 234" d="M2.12,23.233s0-5.2,0-11.616S3.291,0,2.12,0,0,5.2,0,11.616A34.165,34.165,0,0,0,2.12,23.233Z" transform="translate(10.791 33.85) rotate(159)" fill="#fff"/>
        <path id="Path_235-8" data-name="Path 235" d="M3.061,17.087A20.856,20.856,0,0,1,1.648,9.033c0-4.989.91-9.033,0-9.033S0,4.044,0,9.033A12.124,12.124,0,0,0,3.061,17.087Z" transform="matrix(-0.695, 0.719, -0.719, -0.695, 16.327, 17.723)" fill="#fff"/>
        <path id="Path_236-8" data-name="Path 236" d="M5.918,25.657A17.955,17.955,0,0,1,1.531,13.675C1.531,6.122,2.376,0,1.531,0S0,6.122,0,13.675,5.918,25.657,5.918,25.657Z" transform="matrix(-0.087, 0.996, -0.996, -0.087, 28.302, 2.236)" fill="#fff"/>
      </g>
      <path id="Path_237-2" data-name="Path 237" d="M1.99,0c1.1,0-.965,4.58-.965,8.506s.965,5.71.965,5.71A14.892,14.892,0,0,1,0,7.108C0,3.182.891,0,1.99,0Z" transform="matrix(0.883, 0.469, -0.469, 0.883, 149.47, 62.057)" fill="#e57070"/>
      <path id="Path_238-2" data-name="Path 238" d="M1.99,14.215c1.1,0-.964-4.58-.964-8.505S1.99,0,1.99,0A14.893,14.893,0,0,0,0,7.108C0,11.033.891,14.215,1.99,14.215Z" transform="matrix(-0.883, 0.469, -0.469, -0.883, 145.257, 76.883)" fill="#fff"/>
      <path id="Path_239-2" data-name="Path 239" d="M1.99,14.215c1.1,0-.964-4.58-.964-8.505S1.99,0,1.99,0A14.893,14.893,0,0,0,0,7.108C0,11.033.891,14.215,1.99,14.215Z" transform="matrix(-0.883, 0.469, -0.469, -0.883, 145.257, 70.06)" fill="#e57070"/>
      <path id="Path_241-2" data-name="Path 241" d="M1.99,0c1.1,0-.965,4.58-.965,8.505s.964,5.71.964,5.71A14.892,14.892,0,0,1,0,7.107C0,3.182.891,0,1.99,0Z" transform="translate(162.397 59.203) rotate(60)" fill="#fff"/>
      <path id="Path_240-2" data-name="Path 240" d="M1.99,14.215c1.1,0-.964-4.58-.964-8.505S1.99,0,1.99,0A14.893,14.893,0,0,0,0,7.108C0,11.033.891,14.215,1.99,14.215Z" transform="matrix(-0.629, 0.777, -0.777, -0.629, 138.052, 69.039)" fill="#fff"/>
      <path id="Path_242-2" data-name="Path 242" d="M.853,0V2.274c0,1.256.471,2.274,0,2.274S0,3.531,0,2.274A3.979,3.979,0,0,1,.853,0Z" transform="matrix(0.883, 0.469, -0.469, 0.883, 125.52, 89.079)" fill="#fff"/>
      <path id="Path_243-2" data-name="Path 243" d="M.853,0V2.274c0,1.256.471,2.274,0,2.274S0,3.531,0,2.274A3.979,3.979,0,0,1,.853,0Z" transform="matrix(0.695, 0.719, -0.719, 0.695, 122.776, 79.139)" fill="#fbffbc"/>
      <path id="Path_253-2" data-name="Path 253" d="M.853,0V2.274c0,1.256.471,2.274,0,2.274S0,3.531,0,2.274A3.979,3.979,0,0,1,.853,0Z" transform="translate(141.415 80.39) rotate(19)" fill="#fbffbc"/>
      <path id="Path_244-2" data-name="Path 244" d="M.853,0V2.274c0,1.256.471,2.274,0,2.274S0,3.531,0,2.274A3.979,3.979,0,0,1,.853,0Z" transform="translate(122.21 72.267) rotate(65)" fill="#fbffbc"/>
      <path id="Path_254-2" data-name="Path 254" d="M.853,0V2.274c0,1.256.471,2.274,0,2.274S0,3.531,0,2.274A3.979,3.979,0,0,1,.853,0Z" transform="translate(140.23 75.418) rotate(115)" fill="#fbffbc"/>
      <path id="Path_245-2" data-name="Path 245" d="M.853,0V2.274c0,1.256.471,2.274,0,2.274S0,3.531,0,2.274A3.979,3.979,0,0,1,.853,0Z" transform="matrix(-0.208, 0.978, -0.978, -0.208, 126.688, 65.133)" fill="#fff"/>
      <path id="Path_246-2" data-name="Path 246" d="M.853,0V2.274c0,1.256.471,2.274,0,2.274S0,3.531,0,2.274A3.979,3.979,0,0,1,.853,0Z" transform="matrix(-0.629, 0.777, -0.777, -0.629, 137.827, 62.218)" fill="#fff"/>
      <path id="Path_247-2" data-name="Path 247" d="M.853,4.549V2.274C.853,1.018,1.324,0,.853,0S0,1.018,0,2.274A3.979,3.979,0,0,0,.853,4.549Z" transform="translate(146.108 57.839) rotate(31)" fill="#fff"/>
      <path id="Path_248-2" data-name="Path 248" d="M.853,4.549V2.274C.853,1.018,1.324,0,.853,0S0,1.018,0,2.274A3.979,3.979,0,0,0,.853,4.549Z" transform="matrix(0.105, 0.995, -0.995, 0.105, 165.794, 64.982)" fill="#fff"/>
      <path id="Path_249-2" data-name="Path 249" d="M.853,4.549V2.274C.853,1.018,1.324,0,.853,0S0,1.018,0,2.274A3.979,3.979,0,0,0,.853,4.549Z" transform="translate(165.633 79.954) rotate(132)" fill="#fff"/>
      <path id="Path_250-2" data-name="Path 250" d="M.853,4.549V2.274C.853,1.018,1.324,0,.853,0S0,1.018,0,2.274A3.979,3.979,0,0,0,.853,4.549Z" transform="matrix(-0.97, 0.242, -0.242, -0.97, 163.516, 93.983)" fill="#fbffbc"/>
      <path id="Path_251-2" data-name="Path 251" d="M.853,4.549V2.274C.853,1.018,1.324,0,.853,0S0,1.018,0,2.274A3.979,3.979,0,0,0,.853,4.549Z" transform="matrix(-0.951, 0.309, -0.309, -0.951, 154.56, 98.453)" fill="#fbffbc"/>
      <path id="Path_252-2" data-name="Path 252" d="M.853,4.549V2.274C.853,1.018,1.324,0,.853,0S0,1.018,0,2.274A3.979,3.979,0,0,0,.853,4.549Z" transform="matrix(-0.883, -0.469, 0.469, -0.883, 144.793, 106.672)" fill="#fff"/>
    </g>
    <g id="fire-2" transform="matrix(0.985, -0.174, 0.174, 0.985, -43.317, 81.284)">
      <g id="Group_54-3" data-name="Group 54" transform="translate(149.123 102.954)">
        <path id="Path_234-9" data-name="Path 234" d="M4.55,0V24.933c0,13.77,2.513,24.933,0,24.933S0,38.7,0,24.933A73.333,73.333,0,0,1,4.55,0Z" transform="translate(55.457 26.102) rotate(21)" fill="#e57070"/>
        <path id="Path_235-9" data-name="Path 235" d="M6.571,0S3.538,6.582,3.538,17.289s1.954,19.388,0,19.388S0,28,0,17.289A26.024,26.024,0,0,1,6.571,0Z" transform="matrix(0.695, 0.719, -0.719, 0.695, 52.086, 12.563)" fill="#e57070"/>
        <path id="Path_236-9" data-name="Path 236" d="M12.7,0A38.54,38.54,0,0,0,3.285,25.72c0,16.21,1.814,29.352,0,29.352S0,41.93,0,25.72,12.7,0,12.7,0Z" transform="translate(54.862 0) rotate(85)" fill="#e57070"/>
      </g>
      <g id="Group_57-3" data-name="Group 57" transform="matrix(0.978, -0.208, 0.208, 0.978, 212.268, 99.759)">
        <path id="Path_234-10" data-name="Path 234" d="M4.55,49.867s0-11.163,0-24.933S7.064,0,4.55,0,0,11.163,0,24.933A73.333,73.333,0,0,0,4.55,49.867Z" transform="translate(23.162 72.656) rotate(159)" fill="#fff"/>
        <path id="Path_235-10" data-name="Path 235" d="M6.571,36.677S3.538,30.1,3.538,19.388,5.493,0,3.538,0,0,8.68,0,19.388A26.023,26.023,0,0,0,6.571,36.677Z" transform="matrix(-0.695, 0.719, -0.719, -0.695, 35.045, 38.041)" fill="#fbffbc"/>
        <path id="Path_236-10" data-name="Path 236" d="M12.7,55.071A38.539,38.539,0,0,1,3.285,29.351C3.285,13.141,5.1,0,3.285,0S0,13.141,0,29.351,12.7,55.071,12.7,55.071Z" transform="matrix(-0.087, 0.996, -0.996, -0.087, 60.748, 4.8)" fill="#e57070"/>
      </g>
      <g id="Group_55-3" data-name="Group 55" transform="translate(111.723 88.707)">
        <path id="Path_234-11" data-name="Path 234" d="M6.64,0V36.383c0,20.094,3.667,36.383,0,36.383S0,56.477,0,36.383A107.009,107.009,0,0,1,6.64,0Z" transform="translate(80.924 38.088) rotate(21)" fill="#fff"/>
        <path id="Path_235-11" data-name="Path 235" d="M9.588,0S5.163,9.6,5.163,25.229s2.852,28.291,0,28.291S0,40.853,0,25.229A37.974,37.974,0,0,1,9.588,0Z" transform="matrix(0.695, 0.719, -0.719, 0.695, 76.005, 18.332)" fill="#fff"/>
        <path id="Path_236-11" data-name="Path 236" d="M18.536,0S4.794,13.876,4.794,37.531s2.647,42.83,0,42.83S0,61.185,0,37.531,18.536,0,18.536,0Z" transform="translate(80.055 0) rotate(85)" fill="#fff"/>
      </g>
      <g id="Group_56-3" data-name="Group 56" transform="matrix(0.985, 0.174, -0.174, 0.985, 222.118, 93.349)">
        <path id="Path_234-12" data-name="Path 234" d="M6.64,72.766s0-16.289,0-36.383S10.307,0,6.64,0,0,16.289,0,36.383A107.009,107.009,0,0,0,6.64,72.766Z" transform="translate(33.798 106.022) rotate(159)" fill="#fff"/>
        <path id="Path_235-12" data-name="Path 235" d="M9.588,53.519s-4.425-9.6-4.425-25.229S8.015,0,5.163,0,0,12.666,0,28.291A37.974,37.974,0,0,0,9.588,53.519Z" transform="matrix(-0.695, 0.719, -0.719, -0.695, 51.138, 55.51)" fill="#fff"/>
        <path id="Path_236-12" data-name="Path 236" d="M18.536,80.36S4.794,66.484,4.794,42.83,7.441,0,4.794,0,0,19.176,0,42.83,18.536,80.36,18.536,80.36Z" transform="matrix(-0.087, 0.996, -0.996, -0.087, 88.644, 7.004)" fill="#fff"/>
      </g>
      <path id="Path_237-3" data-name="Path 237" d="M6.233,0C9.676,0,3.212,14.345,3.212,26.64S6.233,44.524,6.233,44.524A46.644,46.644,0,0,1,0,22.262C0,9.967,2.791,0,6.233,0Z" transform="matrix(0.883, 0.469, -0.469, 0.883, 229.949, 71.756)" fill="#e57070"/>
      <path id="Path_238-3" data-name="Path 238" d="M6.233,44.523c3.442,0-3.021-14.345-3.02-26.64S6.234,0,6.234,0A46.646,46.646,0,0,0,0,22.262C0,34.557,2.79,44.524,6.233,44.523Z" transform="matrix(-0.883, 0.469, -0.469, -0.883, 216.753, 118.192)" fill="#fff"/>
      <path id="Path_239-3" data-name="Path 239" d="M6.233,44.523c3.442,0-3.021-14.345-3.02-26.64S6.234,0,6.234,0A46.646,46.646,0,0,0,0,22.262C0,34.557,2.79,44.524,6.233,44.523Z" transform="matrix(-0.883, 0.469, -0.469, -0.883, 216.753, 96.82)" fill="#e57070"/>
      <path id="Path_241-3" data-name="Path 241" d="M6.233,0C9.676,0,3.212,14.345,3.212,26.639S6.233,44.522,6.233,44.522A46.643,46.643,0,0,1,0,22.261C0,9.967,2.791,0,6.233,0Z" transform="translate(270.438 62.816) rotate(60)" fill="#fff"/>
      <path id="Path_240-3" data-name="Path 240" d="M6.233,44.523c3.442,0-3.021-14.345-3.02-26.64S6.234,0,6.234,0A46.646,46.646,0,0,0,0,22.262C0,34.557,2.79,44.524,6.233,44.523Z" transform="matrix(-0.629, 0.777, -0.777, -0.629, 194.188, 93.622)" fill="#fff"/>
      <path id="Path_242-3" data-name="Path 242" d="M2.671,0V7.124c0,3.934,1.475,7.124,0,7.124S0,11.058,0,7.124A12.461,12.461,0,0,1,2.671,0Z" transform="matrix(0.883, 0.469, -0.469, 0.883, 154.936, 156.389)" fill="#fff"/>
      <path id="Path_243-3" data-name="Path 243" d="M2.671,0V7.124c0,3.934,1.475,7.124,0,7.124S0,11.058,0,7.124A12.461,12.461,0,0,1,2.671,0Z" transform="matrix(0.695, 0.719, -0.719, 0.695, 146.343, 125.258)" fill="#fbffbc"/>
      <path id="Path_253-3" data-name="Path 253" d="M2.671,0V7.124c0,3.934,1.475,7.124,0,7.124S0,11.058,0,7.124A12.461,12.461,0,0,1,2.671,0Z" transform="translate(204.72 129.175) rotate(19)" fill="#fbffbc"/>
      <path id="Path_244-3" data-name="Path 244" d="M2.671,0V7.124c0,3.934,1.475,7.124,0,7.124S0,11.058,0,7.124A12.461,12.461,0,0,1,2.671,0Z" transform="translate(144.567 103.732) rotate(65)" fill="#fbffbc"/>
      <path id="Path_254-3" data-name="Path 254" d="M2.671,0V7.124c0,3.934,1.475,7.124,0,7.124S0,11.058,0,7.124A12.461,12.461,0,0,1,2.671,0Z" transform="translate(201.01 113.601) rotate(115)" fill="#fbffbc"/>
      <path id="Path_245-3" data-name="Path 245" d="M2.671,0V7.124c0,3.934,1.475,7.124,0,7.124S0,11.058,0,7.124A12.461,12.461,0,0,1,2.671,0Z" transform="matrix(-0.208, 0.978, -0.978, -0.208, 158.594, 81.39)" fill="#fff"/>
      <path id="Path_246-3" data-name="Path 246" d="M2.671,0V7.124c0,3.934,1.475,7.124,0,7.124S0,11.058,0,7.124A12.461,12.461,0,0,1,2.671,0Z" transform="matrix(-0.629, 0.777, -0.777, -0.629, 193.483, 72.26)" fill="#fff"/>
      <path id="Path_247-3" data-name="Path 247" d="M2.672,14.248s0-3.189,0-7.124S4.147,0,2.671,0,0,3.189,0,7.124A12.462,12.462,0,0,0,2.672,14.248Z" transform="translate(219.419 58.544) rotate(31)" fill="#fff"/>
      <path id="Path_248-3" data-name="Path 248" d="M2.672,14.248s0-3.189,0-7.124S4.147,0,2.671,0,0,3.189,0,7.124A12.462,12.462,0,0,0,2.672,14.248Z" transform="matrix(0.105, 0.995, -0.995, 0.105, 281.078, 80.917)" fill="#fff"/>
      <path id="Path_249-3" data-name="Path 249" d="M2.672,14.248s0-3.189,0-7.124S4.147,0,2.671,0,0,3.189,0,7.124A12.462,12.462,0,0,0,2.672,14.248Z" transform="translate(280.574 127.809) rotate(132)" fill="#fff"/>
      <path id="Path_250-3" data-name="Path 250" d="M2.672,14.248s0-3.189,0-7.124S4.147,0,2.671,0,0,3.189,0,7.124A12.462,12.462,0,0,0,2.672,14.248Z" transform="matrix(-0.97, 0.242, -0.242, -0.97, 273.942, 171.75)" fill="#fbffbc"/>
      <path id="Path_251-3" data-name="Path 251" d="M2.672,14.248s0-3.189,0-7.124S4.147,0,2.671,0,0,3.189,0,7.124A12.462,12.462,0,0,0,2.672,14.248Z" transform="matrix(-0.951, 0.309, -0.309, -0.951, 245.892, 185.749)" fill="#fbffbc"/>
      <path id="Path_252-3" data-name="Path 252" d="M2.672,14.248s0-3.189,0-7.124S4.147,0,2.671,0,0,3.189,0,7.124A12.462,12.462,0,0,0,2.672,14.248Z" transform="matrix(-0.883, -0.469, 0.469, -0.883, 215.299, 211.492)" fill="#fff"/>
    </g>
  </g>
</svg>
