<svg id="twice" xmlns="http://www.w3.org/2000/svg" width="200" height="200" viewBox="0 0 200 200">
  <g id="pngegg" transform="translate(-6.901)">
    <g id="Sizing_Rectangle" data-name="Sizing Rectangle" transform="translate(6.901)" fill="rgba(0,0,0,0)" stroke="rgba(0,0,0,0)" stroke-width="1">
      <rect width="100" height="100" stroke="none"/>
      <rect x="0.5" y="0.5" width="99" height="99" fill="none"/>
    </g>
    <g id="cloud" transform="translate(19.206 11.507)">
      <path id="red-08" d="M142.779,88l2.615.124,1.7.5,1.438.744,2.027,1.674.785,1.364.262.992v3.1a7.378,7.378,0,0,1-1.569,3.1l1.438,1.116.523.868.131,1.736q-.353.223-.131.992l-.392.744-.131.868-.915,1.612v.372l-.327.31q-.288-.087-.2.186l-.981,1.3q-.288-.087-.2.186l-.523.372-.2.31-.523.248-.2-.062-.131.434-.915.124.131.558-.131.434-1.438.372-.2-.5-.065.62-.327-.124-.719.558.327.062a.859.859,0,0,1,.981-.372l-.458.62q-.432-.136-.327.186l-1.9,1.054-1.438.248-.523.372h-.654l-.262.248-.915.124-.654.372-.2-.31,1.7-.62-.719-.062-.654.248-.262-.124-.85.248.065.372.588-.124v.372h-.392q.222.508-.327.372l-.588.124.2-.372.327-.186-.2-.062-.85.434q.484.223.065.434l-.588.124.2-.372.327-.062q-.157-.335-.327-.062l-1.242.558.262.062-.2.372q-.8.161-.719-.186l-.2.062-1.831.5-3.269,1.488-.392.372-1.308.5-.654.62-.915.248-.915.744-.523.124-1.635,1.054-.588.682q-.34-.1-.2.31l-1.438,1.054-.131.62-.654.248-1.635,2.108q-.288-.087-.2.186l-.131.31q-.353-.136-.262.186l-.523.992-.654.62-.131.62-1.308,2.108-.392,1.24.131.372-.392.372-.392,2.108v.248l-.131,2.108-.131.124v2.232l.131.248v1.488l.392,1.488v.248l.523,2.48.785,2.108.458.682.065-.31-.131-.62-.392-.62v-.62l-.262-.248-.523-4.464.131-.372-.131-.248.262-1.364-.131-.372.131-.124v-1.736l.262-1.116-.131-.248.523-2.232.262-.248.131-.992.523-1.178.262-.062-.262-.062.785-1.55,1.765-2.542q.34-.087.2.248h.262l.262-.434-.392-.248.523-.31.065.372.2-.434-.131-.372.785-.434q-.157.372.327.248.392-.186,0-.372-.288.1-.2-.186l.719-1.054q.3-.087.2.186h.131l.458-.558.588-.434.327-.434.588-.248v-.248h.523q-.157-.372.327-.248.17-.372.719-.248l.065.248.131-.248q.17.285.327-.062-.092-.707.458-.806l.065.248.458.124.262-.372h.262l.392-.124h.262l.327-.062-.392-.124.785-.31q-.144-.335.2-.248l.458.31.065.186.262-.5.262.124.654-.248.588.124q.144.335-.2.248l-.262.124H129.7l-.392-.124-.065.248-1.177.248q.144-.335-.2-.248l.065.186q.17.471-.327.31l.131.248.654-.124.262-.248h.915q.183-.322.785-.248l.327.186.065-.186.262.124a1.2,1.2,0,0,1,.981-.31l-.719-.186-.262.124-.458-.124q-.144-.335.2-.248l.262-.124.392.124.785-.124,2.615.62a8.993,8.993,0,0,1,3.073,2.17l.785,1.364.131,1.612-.262.868-.262.248,1.242.186.85.5.915,1.55.262,1.364v1.488l-.262,1.364-.915,1.8q-.353-.136-.262.186l-.523.682-1.765,1.116-1.7.248-.588-.124-.262,1.178-1.373,1.426-.915.5-1.308.372h-3.269l-.654-.248-1.7-.248-1.9-.868q.144-.335-.2-.248a5.388,5.388,0,0,1-1.9-2.418l-.262-.992V135.8l.262-1.116.981-1.426q.3.1.2-.186l1.635-1.054,1.177-.248h.915l1.308.372,1.242,1.054.523,1.24v.992l-.588.93-.85.248.065.248h1.308l.719-.248q-.144-.335.2-.248l.588-.682.523-1.116V132.7l-.523-1.55q-.392.161-.262-.31l-.654-.93h-.327l-.719-.434.065-.186q-.889.087-1.177-.372h-1.831l-.654.372-.785.124-.392-.124-.85.682-.2.31-.719.248-.2.5q-.34-.1-.2.31l-.523.372q.1.285-.2.186l-.458.62q-.353-.136-.262.186l-.392.372-.523,1.364-1.438,1.86.131.248-.523,1.116-.262,1.24-.262.372-.131,1.116-.262.5-.392,4.464.131.124v2.232l.523,2.728,1.046,2.852.915,1.736.458.434.065-.186-.654-1.86-.131-2.232.131-.124.131-1.86.785-1.736.523-.682q.353.136.262-.186l1.5-.93,1.046-.124.654.124.523.372a2.344,2.344,0,0,1,1.177-1.364l.915-.248h1.308q.17.285.785.124l1.242.806q-.092.322.262.186v.31a1.468,1.468,0,0,1,.392,1.116l-.131.434h.719l.981.806.392.992v1.24a5.554,5.554,0,0,1-1.308,2.666l-1.635.868-1.7.124-.915-.248-.588-.434-.262-.372a1.652,1.652,0,0,1-.523-1.736l.719-1.054A1.393,1.393,0,0,1,128,150l.719.372.131.5q.523.174.262-.682l-.458-.682q-.34.087-.2-.248h-.327a2.54,2.54,0,0,0-1.961-.248l-.654.248-1.373,1.178-.654,1.364-.131,1.984.131.124v1.116l.654,1.116.262,1.116,1.831,2.914.392.186q-.092.285.2.186l.654.744.392.248.588.744,2.158,1.612,1.635.868q-.144.335.2.248l.981.5q-.144.335.2.248.392.186,0,.372l-1.308-.62-.654-.124-.523-.372-1.177-.248L128,164.011h-.262l-2.288-.992q.17-.372-.327-.248l-1.765-.992-.588-.744-3.008-1.364-2.027-1.55q.1-.273-.2-.186l-1.308-1.364-.327-.186-.2-.31q-.34.1-.2-.31l-.131-.31q-.392.124-.262-.248h-.392v-.186l-.262-.558-.392-.186-.2-.434q-.288-.087-.2.186l1.7,2.356q-.2.372-.392,0,.1-.273-.2-.186l-1.242-1.054q.1-.273-.2-.186l-.327-.5q-.353.136-.262-.186l-.654-1.054q-.353.136-.262-.186l-.654-.868v-.31q-.353.136-.262-.186l-2.877-4.836-1.438-3.6v-.5l-.262-.372-.262-1.86-.262-.62v-3.6l.262-.868.131-2.728a1.462,1.462,0,0,0-.85-1.054l-1.177-.124-.719.558-.262.806q.392.161.262-.31a1.6,1.6,0,0,1,1.242-.434l.981.434a1.717,1.717,0,0,1,.262,1.364,2.34,2.34,0,0,1-1.111,1.674,1.958,1.958,0,0,1-1.569.248,3.466,3.466,0,0,1-1.765-1.3L101,133.2v-1.612l.654-1.3.981-.5h.85v-.93l.523-.806a3.491,3.491,0,0,1,2.55-.62l.523.124.588.434.392.868v.5l-.262.682a1.26,1.26,0,0,1,1.308.434q-.092.322.262.186v.31l.131.124v1.116l-.785,1.488-.262,1.736-.262.62-.131,4.092.131.124v1.116l.262.62.262,1.86.262.372.131.868.915,2.48,1.831,3.6,1.5,2.294.065-.186-.458-1.054-.327-.186-1.7-3.348-.523-1.922q.5.186.392-.186l-.392-.868.131-.248a1.652,1.652,0,0,1-.262-1.3q-.484.186-.392-.186l-.262-.372q.366-.223.131-.992l-.131-.248.131-.31q-.353.136-.262-.186l.131-.62-.131-.124V138.9l.131-.124v-1.364l-.131-.62.392-1.984v-1.984l.131-.31q.432.161.262-.434l.654-2.108.392-.5-.131-.372.262-.868.327-.31.2-.062q-.327-.186.131-.372l1.046-1.86.131-.62.915-1.116v-.372l.262-.434h.523q-.144-.335.2-.248l.327-.186-.131-.5v-.248q-.092-.273.2-.186l.262-.124h.262q.34.1.2-.31l1.046-1.55.523-.062-.065-.186.458.124V119h.2l.2.062q-.092-.322.262-.186-.2.459.2.372l.327-.124q.17-.372-.327-.248l-.2-.372q.353.136.262-.186.157-.31.654-.186l.2-.372q.3-.087.2.186l-.131.31h.327l1.111-.744.2-.372.719-.434-.2-.062-1.046.744h-.327q.17.372-.327.248l.2-.31q-.092-.273.2-.186l.458-.124.2-.372.719-.124v-.248q.5.186.392-.186l.2-.434.262.124.2-.062q-.157.471.327.31l.327-.124-.065-.248h-.262q-.392.087-.2-.372l1.111-.124.981.248q-.144-.335.2-.248h.262l.2-.062-.131-.31q.5.186.392-.186l2.484-1.116-.2-.062-2.288.744q.144.335-.2.248l-.458.124q.144.409-.392.248l.327-.5.719-.124q-.144-.335.2-.248l.654-.5.981-.248v-.248h.392q-.144-.335.2-.248l.262-.124.327.124q-.144-.335.2-.248l.785-.372h.392l4.054-2.108h.392l.915-.744.131.124,1.046-.744.392-.248.588-.248,2.354-2.914.915-2.976v-.992a5.359,5.359,0,0,0-1.5-2.666l-.392-.248-1.831-.868-1.569-.124-1.7.5-1.635,1.3-.523.992-.131,1.488.2.434a3.255,3.255,0,0,1,1.177-1.984l1.177-.5h.915l1.177.372.719.682q-.092.322.262.186v.31l.523,1.364v.992l-.523,1.736-1.635,1.922a6.758,6.758,0,0,1-2.484,1.24l-.915.248-2.354.124-2.223-.5-1.5-.868q.144-.335-.2-.248a6.549,6.549,0,0,1-2.027-2.914l-.131-1.116-.262-.62V99.47l.262-.62.262-1.86.654-1.24.131-.62a11.539,11.539,0,0,1,2.027-2.79q.3.1.2-.186l1.046-.682q-.144-.335.2-.248l1.961-1.116,1.961-.62.654-.124H136.5l1.046.372.785.744,1.046-1.24,1.308-.744Zm.588,10.292-.131.248.785.992.523,1.116.131,1.364.131.124-.131,1.488-.262.868a9.155,9.155,0,0,1-1.7,2.6,16.855,16.855,0,0,1-4.315,3.348l-.262.372,1.046-.5,3.008-2.108.131-.372.915-.62q-.131-.372.262-.248l1.569-2.356.392-1.488-.131-1.612-.392-.992Zm-5.754,12.648-.392.248v.124q.523,0,.523-.248Zm-.654.372-.654.372v.124l.785-.372Zm-.915.5-.262.124-.131.248.523-.248Zm-1.046.5-.131.248.392-.124Zm-.785.372-1.961.992.131.248,2.092-1.116Zm-4.315.124-.262.372.523-.248Zm-.523.372-.262.124v.124l.392-.124Zm13.207,0-.262.248q.131.248-.262.124l-.392.5.523-.124q.131-.5.392-.124l.915-.248v-.372Zm-1.7.868-.131.372.523.124.262-.124v-.248Zm-.392.5-.262.248q-.915-.124-.785.248v.124h.523q-.131-.372.523-.248Zm-17.13,1.488-.392.248h.392Zm-3.531,2.232v.248l-.392.124.131.248.262-.124.262-.372Zm-1.177.992q-.131.372.262.248Q119.045,119.124,118.653,119.248Zm1.569,1.736v.248l.262-.124Zm-.785.62v.248l.262-.124Zm-1.831,1.612-.262.248h.262Zm9.415.372.131.248Q127.283,123.463,127.022,123.587Zm1.046,2.852-.131.124H126.76l-1.046.248-1.046.5q-.523-.124-.392.248l-.523.124-.262.372,2.092-.868a2.858,2.858,0,0,0,1.438-.372h2.354l1.046.248,1.177.5,1.046.744a4.183,4.183,0,0,1,1.7,2.356h.131a3.219,3.219,0,0,0-.654-1.736l-1.438-1.364q-.392.124-.261-.248l-1.569-.62Zm-7.061.5-.262.248h.392Q121.268,126.811,121.007,126.935Zm6.538.992v.248l.262-.124Zm-4.315.124-.262.124-.262.372.654-.372Zm-3.923.124v.248l.262-.124Zm-7.453.372-.131.372h.131Zm10.2.372-.262.248h.262Zm-10.461.5q-.131.5.262.372Q111.984,129.291,111.592,129.415Zm6.669.248-.131.372h.131Zm-.262.248-.131.5H118Zm2.484.62-.262.372.262-.124Zm-7.453.124-.262.5.262-.124Zm4.446.372-.262.372.262-.124Zm2.484.248-.262.248h.262Zm-.392.5-.262.372.262-.124Zm-3.138.868-.262.372.262-.124Zm-1.046,1.736-.131.62.131.248.262-.744Zm.785,5.084-.131.372h.131Zm-.392.372-.131.62h.131Zm-.523,4.712-.131.372h.131Zm0,6.7-.262.248q-.131.372.392.124Zm21.968.744-.261.372h.261Zm-21.445.62-.131.372h.131Zm19.614.372-.131.372h.131Zm9.284.248-.131.124-2.615.248-2.223.868a4.545,4.545,0,0,0-1.569,1.984v1.984l.262.5.131-1.736.785-1.24,1.831-1.24,2.615-.744q.654.248.915-.124H150.3l-1.438-.372-1.961-.124-.131-.124Zm6.146.62v.124h.262Zm-30.468,1.612-.131.372.262.124Z" transform="translate(-101 -88)" fill="#7f0000"/>
      <path id="red-07" d="M473,97l2.027.262.392.262,2.615.785,1.046.654h.392l1.438,1.177.981.523.2.392.719.392.2.392.85.719q-.092.3.2.2l.2.523.458.131-.2-.327-.719-1.111-.327-.2.065-.2,1.242.981q-.092.3.2.2l.2.392h.2l1.635,1.635.392.719q.353-.144.262.2l1.438,2.223,1.308,3.269.915,4.184.131,4.184.131.131v.915l.262.654.131,1.438.523,1.7.981,1.111.915.523,1.046.131.523-.131.719-.719q.1-.288-.2-.2l-.392.262-.915.131-1.308-.392-.588-.588a2.982,2.982,0,0,1-.523-2.615,5.012,5.012,0,0,1,1.046-2.027l1.5-.915,1.831-.131,1.046.262,1.112.719.915,1.831v1.7l-.392,1.5,1.046.262q-.144.353.2.262l.719.981.262,1.046v1.046l-.392,1.569-1.111,1.5a2.757,2.757,0,0,1-2.484.654l-1.308-.392a1.782,1.782,0,0,0-1.373-1.046l-.458.785-1.438.785-1.308.131-1.308-.523-.85-.719q.1-.288-.2-.2l-1.5-2.288-.262-1.438-.262-.392-.131-1.961.131-.262-.131-.654.131-.262-.131-.262v-.262l.131-.262-.131-.392.523-1.961-.131-.262.654-1.831.131-2.877.262-.654-.131-.523.131-.392-.262-.523v-.262l-.131-2.092q-.392-.262-.262-1.046a12.936,12.936,0,0,0-1.635-3.6l-.065.327.915,1.961.262,1.438.261.523.131,3.792-.131.131v1.308l-.261.523-.131,1.046a4.2,4.2,0,0,1-1.373,1.765l-1.765.392a2.615,2.615,0,0,1-1.242,2.092l-.785.392H480.65l-1.046-.392-1.242-1.111-.654-1.177v-1.438l.654-1.373a3.1,3.1,0,0,1-1.7-1.242l-.785-1.831V112.1a2.349,2.349,0,0,0,.392-1.438l.981-1.373,1.177-.785,1.831-.131,1.9.915.654,1.373v1.569a1.683,1.683,0,0,1-.981,1.242l-1.177.131-.458-.131.261.785.588.392,1.046.131a2,2,0,0,0,1.5-.981l.523-1.046.131-2.484-.131-.131-.131-1.569-.261-.392-.262-1.308-.654-1.046V105.3l-.261-.458-.392-.2v-.262l-.915-1.177v-.327l-.523-.327-.2-.327-.588-.262-.719-.915-2.158-1.635q.1-.288-.2-.2l-1.242-.654q.17-.432-.458-.262L473,97.2Zm13.076,8.238q-.262.392.131.262Zm.131,1.831-.131.392h.131Zm.523,3.923-.262,1.961-.654,1.438-.262.392a2.761,2.761,0,0,1-1.308.915v.131q.785.131,1.046-.392l.915-1.046.523-1.7Zm-3.138,4.838v.131h.392Z" transform="translate(-428.369 -95.823)" fill="#7f0000"/>
      <path id="red-06" d="M195.58,113.565q.575-.2.458.2l-2.419,1.5-1.569,1.308-.458.131v.392q-.353-.144-.262.2l-.588.719q-.288-.092-.2.2l-.588.719-.458.327a1.827,1.827,0,0,0-.785,1.242l-.785.588a16.143,16.143,0,0,0-3.269,5.623l-.523,2.484v2.484a5.651,5.651,0,0,0,1.046,2.55l.392.2q-.092.3.2.2l.785.523L188,135.4l1.046-.262,1.111-.85a4.229,4.229,0,0,0,.785-2.223,1.67,1.67,0,0,0-.719-1.111l-1.046-.262-.327.2a1.1,1.1,0,0,1,1.046.523l.131,1.046-.981,1.242-.785.131a2.127,2.127,0,0,1-1.5-.85,3.6,3.6,0,0,1-.523-2.877,3.093,3.093,0,0,1,.981-1.9,2.1,2.1,0,0,1,1.961-.523l.523.131,1.177-.915h1.7l1.373.981.392.654.131,1.308-.392.915.785.392q-.092.3.2.2l.588,1.242v1.177a8.63,8.63,0,0,1-2.55,4.119l-1.177.915-2.092.915-.654.131H186.95l-2.354-.915-1.373-1.046-1.046-1.373-.785-1.7-.392-3.4.262-.654.131-2.158q.392.17.262-.327l-.131-.327q.431.17.262-.458l.392-.654.131-.785.262-.262.262-.981.327.131.065-.915q.353.144.262-.2l.981-1.242.131.262,1.308-1.7q.3.1.2-.2l.392-.523-.262-.131.327-.458.327-.2.065-.2.2.065.131-.458,1.046-.654.458-.654,1.177-.654,1.569-1.308.458-.131q-.144-.353.2-.262l1.7-1.046h.719l.2-.523Zm-2.027,25.5v.262l.523-.131Z" transform="translate(-170.543 -110.166)" fill="#7f0000"/>
      <path id="red-05" d="M573,145l1.308.523q-.144.353.2.262l.588.262q-.144.353.2.262l.981.654q-.144.353.2.262l.981.981.131.458.392.2,1.177,1.7v.327h.262v.523h.2l.719,1.635.523,2.027q.353-.144.261.2l.719.85.654.392h.915l.85-.523.262-1.242-.262-.85-.588-.392H583l-.261.392q.654-.065.719.458.2.785-.2.981-.3.418-1.177.262l-.719-.392-.523-1.111v-1.177l.392-.981,1.242-.785,1.831-.131.523.131,1.373.981q.667.575.392,2.092l-.392.719-.262.065.392.262a1.874,1.874,0,0,1,.262,1.569l-.981,1.765-.392.262q-.562.811-2.223.523l-.523-.392q-.5.615-1.831.392l-.981-.588-.392-.523-.523-1.569-.262-3.138-.392-1.177q.327-.2-.131-.392l-.785-1.961-1.7-2.55q-.353.144-.262-.2l-1.373-1.373h-.2q.144-.353-.2-.262Zm.523,2.877-.131.262.261.131Zm0,2.877-.131.392h.131Zm.131.392-.131,1.177h.131Z" transform="translate(-515.291 -137.601)" fill="#7f0000"/>
      <path id="red-04" d="M118.1,186l.2.2-.458.458-1.242,1.111-1.308,1.961-.392.785-.131.785-.392.523-.131,2.484v.262l.392,3.008.785,2.354q-.327.2.131.392l1.177,2.942q.392-.157.262.327l.523.915.131.915.262.392.131,1.831-.523,1.438-.588.588-.327.2.262,1.177a3.886,3.886,0,0,1-1.373,2.55l-1.569.915h-1.438l-.392-.131-.981-.981-.131-.588-1.111.392h-.785l-1.373-.654q.144-.353-.2-.262l-1.111-1.765A2.349,2.349,0,0,0,106,209.08v-1.7l.523-1.438,1.111-1.242,1.046-.392h1.046l1.177.392.719.588a2.307,2.307,0,0,1,.392,2.223l-.458.588q-.379.471-1.438.262l-.327-.2.719.981.915.131.588-.458.523-.915.262-1.961-.262-.915-.131-2.615-.131-.262v-.262l-.131-2.877v-.262l.131-1.177-.131-.523v-.262l.262-1.438-.131-.262.262-1.308.262-.392.131-1.177.392-.523V191.3l1.765-2.681h.2v-.523h.2l.458-.327.2-.327q.3.1.2-.2a1.65,1.65,0,0,1,1.177-.719q-.157-.392.327-.262Zm-4.119,11.376v1.7l.262.523,1.046,5.1v2.484q-.262.131-.131.785l-.785,1.569a2.586,2.586,0,0,1-2.484,1.177v.131h1.046l1.177-.523.915-1.046.654-1.961-.131-3.4-.262-.523v-.654a8.049,8.049,0,0,1-.654-2.484l-.262-.392Zm3.269,16.607q-.262.392.131.262Z" transform="translate(-105.346 -174.214)" fill="#7f0000"/>
      <path id="red-03" d="M414,298h1.438l1.569.392a3.969,3.969,0,0,1,2.027,1.5l.2.327,1.177-.262h1.7l1.7.654,1.112,1.111.262.392.915,1.569.523,1.831.131,4.184-.131.131v6.407l.131.131.131,1.831.262.915.392.523.262,1.177.523,1.046,1.373,1.634h.327v.262q.353-.144.261.2l.131.327.523.2q-.1.34.327.2l.2.392.719.131.654.523,1.308.392,1.438.131.915.262.654-.131.654.131a1.426,1.426,0,0,1,1.242-.262l-.065-.262-.131.131h-1.569l-.262.131-.131-.131h-1.046l-.262-.262h-.915l-1.046-.262-2.615-1.7-1.112-1.111-.327-.458-.458-.327-.262-.85q-.392.17-.262-.327l-.523-.785a1.738,1.738,0,0,0-.262-1.308v-.915l-.131-.327.262-.065v-2.484l.262-1.308.915-1.765q.353.144.262-.2l.981-.719,1.373-.131a2.1,2.1,0,0,1,.85-2.223l1.308-.654,2.615-.131,1.308.262.785.392,1.112.981.785,1.438v.85l1.242.131,1.111.981.523.915.392,1.569v1.961l-.523,1.569a6.134,6.134,0,0,1-1.635,2.158l-1.308.654-1.961.131-1.438-.392-1.112-.981-.261-.392-.392-.654-.131-1.831.588-1.242q.445-.667,1.831-.392l.392.131-.065-.2q.1-.288-.2-.2l-.785-.523L435.7,315l-1.831.654-.85.85-.654,1.177v1.7l1.438,2.419,2.55,1.438,1.046.261h1.308l1.308-.261a.913.913,0,0,1,.915-.392,10.453,10.453,0,0,0,2.811-2.158l.392-.719q.353.144.262-.2l.392-.654v-.262l.523-1.438.262-.262v-.523l.392-.915v-.654l.262-.785v-.262l.131-2.484-.131-.523v-.262q-.222-.941.262-1.177v-.262l-.262-1.438.131-.261-1.046-4.642h.392q-.17.536.262.392v.458l.262.262.131.785-.131.262.392.392.131,1.308.392.523v1.177l.261.915v4.184l.131.131-.131.131v1.569l-.261.523-.131,1.308-.915,2.354-.785,1.438v.981q-.353-.144-.262.2.458.2.131.392l-.262,1.242q-.353-.144-.262.2l-.065.327q-.288-.092-.2.2l-.262.719h-.327l-.588.588q.1.3-.2.2l-1.177,1.046-1.438.785-1.046.262-.262.262h-.523l-.915.392-.915.131-.392-.131q-.222.366-1.046.131h-.262l-1.438-.262h-.262l-2.354-.392a2.935,2.935,0,0,0-1.961-.785l-1.111-.719-.2-.458-.262.131a.561.561,0,0,0-.719-.392l-.262-.785q-.353.144-.261-.2l-.915-1.177-.131-.458h-.262v-.523h-.2l-.588-1.438h-.262v-.392q-.392.17-.261-.327l-.915-2.223.131-.262-.261-.654v-.262q.235-.811-.131-1.046v-.262q.131-.785-.262-1.046l-.262-2.615-.785-2.484-.523-.981q-.353.144-.261-.2a4.634,4.634,0,0,0-1.9-1.5l-1.7-.262-1.438.262-.981.523q.144.353-.2.262l-.719.981-.131,1.308.131.523.458.588a1.644,1.644,0,0,0,1.308.392l-.131-.262-.719-.588-.131-.915.719-1.112.915-.523,1.7-.131a3.191,3.191,0,0,1,2.288,1.373,4.7,4.7,0,0,1,.654,3.138l-.262,1.177-.915,1.635h-.262q.144.353-.2.262-1.7,1.961-5.492,1.831l-2.615-.915a9.835,9.835,0,0,1-2.55-2.158L407,312.449v-2.484l.915-2.223.785-.915-.785-1.046-.131-1.569.523-2.092.523-1.111q.353.144.262-.2l.981-1.111,2.223-1.308Zm6.473,6.015q0,.392.654.523l.915,1.046.915,1.569.523,1.961.131,2.092.261.785v1.177l.262,1.438h.131v-.785l-.262-.785-.131-2.877-.261-.785-.131-1.569a4.087,4.087,0,0,0-1.046-2.223q.131-.392-.131-.262l-.262-.262A3.136,3.136,0,0,0,420.469,304.015Zm3.923,10.723-.131.523h.131Zm.131.785-.131.392h.131Zm.131.392v.785h.131Zm8.5,7.061v.262l.785.392h.261Zm-7.453.785.131.523q.261-.131,0-.262Q425.96,323.629,425.7,323.76Zm9.023.131.131.262h.523Zm.785.262v.131h.654Zm4.184,1.7v.131h.261Z" transform="translate(-371 -272.808)" fill="#7f0000"/>
      <path id="red-02" d="M283.2,303.853q.3-.092.2.2l-.392.2Z" transform="translate(-260.394 -277.08)" fill="#7f0000"/>
      <path id="red-01" d="M348.2,471l1.438.131.785.262,1.5,1.111.262.392.262.85.981-.392h1.046l1.438.523,1.111.981,1.046,2.092.131,1.7-.131.392-.262,1.308-1.111,1.373-.392.261-.785.523-1.569.131-1.046-.392-.719-.719-.262-.654v-.654a1.636,1.636,0,0,1,.719-1.242,1.7,1.7,0,0,1,1.308-.131l.327.131a.5.5,0,0,0-.327-.654l-.523-.262h-.785l-1.242.719-.785,1.569v.915l.981,1.765q.3-.092.2.2a7.515,7.515,0,0,0,2.419,1.5l2.877.915,1.7.131.131.131h4.707l3.792-.654.262-.262a2.523,2.523,0,0,0,1.7-.654h.523a3.172,3.172,0,0,1,1.765-.915q-.144-.353.2-.262l2.419-1.7.2-.392.85-.523.2-.392.458-.131q-.157-.392.327-.261l-.065.2-2.223,4.838-2.354,3.465q-.353-.144-.262.2l-.523.327-.2.392q-.288-.092-.2.2l-1.9,1.5-.458.131q.144.353-.2.262l-1.831,1.177-2.746,1.308-6.146,1.7a4.551,4.551,0,0,0-2.027,1.5l-.392.654-.131.915a1.683,1.683,0,0,0,.981,1.242,1.918,1.918,0,0,0,1.765-.327l-.915-.327-.392-.719v-.915l.719-.981a2.618,2.618,0,0,1,2.223-.392l1.111.85a2.39,2.39,0,0,1,.392,2.092l-.981,1.765-.392.262-.327.131q.144.353-.2.261l-2.092.915h-1.569l-.85-.392q.144-.353-.2-.261l-.458-.785-.85.262h-1.569l-.981-.719a2.829,2.829,0,0,1-.523-2.484l.523-.981.785-.392-.262-.719v-1.046l.392-.719,1.373-.785,3.6-.588-10.788-.2-.131.131-2.092.131-1.308.523-1.373.981a4.273,4.273,0,0,0-.915,1.961v1.831a2.265,2.265,0,0,0,.85,1.373l1.177.523h.654a1.63,1.63,0,0,0,1.111-.719l.262-.654-.2.065-1.177.131-.981-.719-.131-1.177a2.32,2.32,0,0,1,1.112-1.5,2.982,2.982,0,0,1,2.615-.523l1.242.719a3.82,3.82,0,0,1,1.046,3.138q-.327.2-.131.915l-.523,1.177-1.111,1.242-1.177.785-1.046.392-1.569.131-.131.131h-1.177l-.131-.131-1.438-.131-1.177-.654-.719-.719-.392-.654-.131-1.111-2.288-.131a3.3,3.3,0,0,1-1.9-1.373l-.785-1.831-.131-1.7q.353-.222.131-1.046a4.956,4.956,0,0,1,1.242-1.9l.392-.262,1.634-.719-.261-.915.261-1.046.915-1.112.523-.131q-.157-.392.327-.262l.785-.523,1.046-.131.262-.262h1.111l.065.262.065-.262.719-.131h2.223q.2.327.915.131l.392.262,2.354.262.392.262,1.177.131.392.262h.523l2.484.654h.785l.654.262,3.531.131.131.131h4.446a2.645,2.645,0,0,1,1.7-.262l.85-.327-.719-.065-2.223.392h-3.269l-.131-.131-2.223-.131-1.569-.392-1.569-.131-3.661-1.046-.262-.262-.654-.131-1.9-.915q.144-.353-.2-.262l-1.9-1.635-1.177-2.223a5.32,5.32,0,0,1-.131-2.354l.85-1.373,1.111-.719-.131-.131v-2.092l.262-.915,1.046-1.635h.262q-.144-.353.2-.262l1.177-.785Zm1.9,6.015-.654.392-.654.654-.523,1.177V481.2q.392.262.392,1.177l.785,1.308a7.721,7.721,0,0,0,2.615,2.092q.262.131.131-.262l-.392-.131-2.223-2.354-.785-2.092v-1.177l.654-1.569,1.177-1.046h.392Zm21.968,8.892-.262.262h.262Zm-.392.392-.262.262h.262Zm-.654.523-.523.523q-.392-.131-.262.262l-1.308.523-.523.523-3.269,1.7-2.354.915-3.269.915-3.4.392v.131h1.569l1.046-.261,1.831-.131,1.7-.523,1.046-.131.262-.262h.392l1.7-.654,1.831-.915,1.831-1.177,1.177-1.046q.262.131.131-.131l.523-.392Q371.275,486.691,371.013,486.822Zm-7.323,1.438-.392.131v.131a.78.78,0,0,0,.785-.131Zm-.785.785v.131h.262Zm-4.838,1.7v.131h.785Zm-2.354.262.131.262h1.046Z" transform="translate(-304.934 -425.18)" fill="#7f0000"/>
    </g>
  </g>
  <g id="pngegg-2" data-name="pngegg" transform="translate(93.099 100)">
    <g id="Sizing_Rectangle-2" data-name="Sizing Rectangle" transform="translate(6.901)" fill="rgba(0,0,0,0)" stroke="rgba(0,0,0,0)" stroke-width="1">
      <rect width="100" height="100" stroke="none"/>
      <rect x="0.5" y="0.5" width="99" height="99" fill="none"/>
    </g>
    <g id="cloud-2" data-name="cloud" transform="translate(19.206 11.507)">
      <path id="red-08-2" data-name="red-08" d="M142.779,88l2.615.124,1.7.5,1.438.744,2.027,1.674.785,1.364.262.992v3.1a7.378,7.378,0,0,1-1.569,3.1l1.438,1.116.523.868.131,1.736q-.353.223-.131.992l-.392.744-.131.868-.915,1.612v.372l-.327.31q-.288-.087-.2.186l-.981,1.3q-.288-.087-.2.186l-.523.372-.2.31-.523.248-.2-.062-.131.434-.915.124.131.558-.131.434-1.438.372-.2-.5-.065.62-.327-.124-.719.558.327.062a.859.859,0,0,1,.981-.372l-.458.62q-.432-.136-.327.186l-1.9,1.054-1.438.248-.523.372h-.654l-.262.248-.915.124-.654.372-.2-.31,1.7-.62-.719-.062-.654.248-.262-.124-.85.248.065.372.588-.124v.372h-.392q.222.508-.327.372l-.588.124.2-.372.327-.186-.2-.062-.85.434q.484.223.065.434l-.588.124.2-.372.327-.062q-.157-.335-.327-.062l-1.242.558.262.062-.2.372q-.8.161-.719-.186l-.2.062-1.831.5-3.269,1.488-.392.372-1.308.5-.654.62-.915.248-.915.744-.523.124-1.635,1.054-.588.682q-.34-.1-.2.31l-1.438,1.054-.131.62-.654.248-1.635,2.108q-.288-.087-.2.186l-.131.31q-.353-.136-.262.186l-.523.992-.654.62-.131.62-1.308,2.108-.392,1.24.131.372-.392.372-.392,2.108v.248l-.131,2.108-.131.124v2.232l.131.248v1.488l.392,1.488v.248l.523,2.48.785,2.108.458.682.065-.31-.131-.62-.392-.62v-.62l-.262-.248-.523-4.464.131-.372-.131-.248.262-1.364-.131-.372.131-.124v-1.736l.262-1.116-.131-.248.523-2.232.262-.248.131-.992.523-1.178.262-.062-.262-.062.785-1.55,1.765-2.542q.34-.087.2.248h.262l.262-.434-.392-.248.523-.31.065.372.2-.434-.131-.372.785-.434q-.157.372.327.248.392-.186,0-.372-.288.1-.2-.186l.719-1.054q.3-.087.2.186h.131l.458-.558.588-.434.327-.434.588-.248v-.248h.523q-.157-.372.327-.248.17-.372.719-.248l.065.248.131-.248q.17.285.327-.062-.092-.707.458-.806l.065.248.458.124.262-.372h.262l.392-.124h.262l.327-.062-.392-.124.785-.31q-.144-.335.2-.248l.458.31.065.186.262-.5.262.124.654-.248.588.124q.144.335-.2.248l-.262.124H129.7l-.392-.124-.065.248-1.177.248q.144-.335-.2-.248l.065.186q.17.471-.327.31l.131.248.654-.124.262-.248h.915q.183-.322.785-.248l.327.186.065-.186.262.124a1.2,1.2,0,0,1,.981-.31l-.719-.186-.262.124-.458-.124q-.144-.335.2-.248l.262-.124.392.124.785-.124,2.615.62a8.993,8.993,0,0,1,3.073,2.17l.785,1.364.131,1.612-.262.868-.262.248,1.242.186.85.5.915,1.55.262,1.364v1.488l-.262,1.364-.915,1.8q-.353-.136-.262.186l-.523.682-1.765,1.116-1.7.248-.588-.124-.262,1.178-1.373,1.426-.915.5-1.308.372h-3.269l-.654-.248-1.7-.248-1.9-.868q.144-.335-.2-.248a5.388,5.388,0,0,1-1.9-2.418l-.262-.992V135.8l.262-1.116.981-1.426q.3.1.2-.186l1.635-1.054,1.177-.248h.915l1.308.372,1.242,1.054.523,1.24v.992l-.588.93-.85.248.065.248h1.308l.719-.248q-.144-.335.2-.248l.588-.682.523-1.116V132.7l-.523-1.55q-.392.161-.262-.31l-.654-.93h-.327l-.719-.434.065-.186q-.889.087-1.177-.372h-1.831l-.654.372-.785.124-.392-.124-.85.682-.2.31-.719.248-.2.5q-.34-.1-.2.31l-.523.372q.1.285-.2.186l-.458.62q-.353-.136-.262.186l-.392.372-.523,1.364-1.438,1.86.131.248-.523,1.116-.262,1.24-.262.372-.131,1.116-.262.5-.392,4.464.131.124v2.232l.523,2.728,1.046,2.852.915,1.736.458.434.065-.186-.654-1.86-.131-2.232.131-.124.131-1.86.785-1.736.523-.682q.353.136.262-.186l1.5-.93,1.046-.124.654.124.523.372a2.344,2.344,0,0,1,1.177-1.364l.915-.248h1.308q.17.285.785.124l1.242.806q-.092.322.262.186v.31a1.468,1.468,0,0,1,.392,1.116l-.131.434h.719l.981.806.392.992v1.24a5.554,5.554,0,0,1-1.308,2.666l-1.635.868-1.7.124-.915-.248-.588-.434-.262-.372a1.652,1.652,0,0,1-.523-1.736l.719-1.054A1.393,1.393,0,0,1,128,150l.719.372.131.5q.523.174.262-.682l-.458-.682q-.34.087-.2-.248h-.327a2.54,2.54,0,0,0-1.961-.248l-.654.248-1.373,1.178-.654,1.364-.131,1.984.131.124v1.116l.654,1.116.262,1.116,1.831,2.914.392.186q-.092.285.2.186l.654.744.392.248.588.744,2.158,1.612,1.635.868q-.144.335.2.248l.981.5q-.144.335.2.248.392.186,0,.372l-1.308-.62-.654-.124-.523-.372-1.177-.248L128,164.011h-.262l-2.288-.992q.17-.372-.327-.248l-1.765-.992-.588-.744-3.008-1.364-2.027-1.55q.1-.273-.2-.186l-1.308-1.364-.327-.186-.2-.31q-.34.1-.2-.31l-.131-.31q-.392.124-.262-.248h-.392v-.186l-.262-.558-.392-.186-.2-.434q-.288-.087-.2.186l1.7,2.356q-.2.372-.392,0,.1-.273-.2-.186l-1.242-1.054q.1-.273-.2-.186l-.327-.5q-.353.136-.262-.186l-.654-1.054q-.353.136-.262-.186l-.654-.868v-.31q-.353.136-.262-.186l-2.877-4.836-1.438-3.6v-.5l-.262-.372-.262-1.86-.262-.62v-3.6l.262-.868.131-2.728a1.462,1.462,0,0,0-.85-1.054l-1.177-.124-.719.558-.262.806q.392.161.262-.31a1.6,1.6,0,0,1,1.242-.434l.981.434a1.717,1.717,0,0,1,.262,1.364,2.34,2.34,0,0,1-1.111,1.674,1.958,1.958,0,0,1-1.569.248,3.466,3.466,0,0,1-1.765-1.3L101,133.2v-1.612l.654-1.3.981-.5h.85v-.93l.523-.806a3.491,3.491,0,0,1,2.55-.62l.523.124.588.434.392.868v.5l-.262.682a1.26,1.26,0,0,1,1.308.434q-.092.322.262.186v.31l.131.124v1.116l-.785,1.488-.262,1.736-.262.62-.131,4.092.131.124v1.116l.262.62.262,1.86.262.372.131.868.915,2.48,1.831,3.6,1.5,2.294.065-.186-.458-1.054-.327-.186-1.7-3.348-.523-1.922q.5.186.392-.186l-.392-.868.131-.248a1.652,1.652,0,0,1-.262-1.3q-.484.186-.392-.186l-.262-.372q.366-.223.131-.992l-.131-.248.131-.31q-.353.136-.262-.186l.131-.62-.131-.124V138.9l.131-.124v-1.364l-.131-.62.392-1.984v-1.984l.131-.31q.432.161.262-.434l.654-2.108.392-.5-.131-.372.262-.868.327-.31.2-.062q-.327-.186.131-.372l1.046-1.86.131-.62.915-1.116v-.372l.262-.434h.523q-.144-.335.2-.248l.327-.186-.131-.5v-.248q-.092-.273.2-.186l.262-.124h.262q.34.1.2-.31l1.046-1.55.523-.062-.065-.186.458.124V119h.2l.2.062q-.092-.322.262-.186-.2.459.2.372l.327-.124q.17-.372-.327-.248l-.2-.372q.353.136.262-.186.157-.31.654-.186l.2-.372q.3-.087.2.186l-.131.31h.327l1.111-.744.2-.372.719-.434-.2-.062-1.046.744h-.327q.17.372-.327.248l.2-.31q-.092-.273.2-.186l.458-.124.2-.372.719-.124v-.248q.5.186.392-.186l.2-.434.262.124.2-.062q-.157.471.327.31l.327-.124-.065-.248h-.262q-.392.087-.2-.372l1.111-.124.981.248q-.144-.335.2-.248h.262l.2-.062-.131-.31q.5.186.392-.186l2.484-1.116-.2-.062-2.288.744q.144.335-.2.248l-.458.124q.144.409-.392.248l.327-.5.719-.124q-.144-.335.2-.248l.654-.5.981-.248v-.248h.392q-.144-.335.2-.248l.262-.124.327.124q-.144-.335.2-.248l.785-.372h.392l4.054-2.108h.392l.915-.744.131.124,1.046-.744.392-.248.588-.248,2.354-2.914.915-2.976v-.992a5.359,5.359,0,0,0-1.5-2.666l-.392-.248-1.831-.868-1.569-.124-1.7.5-1.635,1.3-.523.992-.131,1.488.2.434a3.255,3.255,0,0,1,1.177-1.984l1.177-.5h.915l1.177.372.719.682q-.092.322.262.186v.31l.523,1.364v.992l-.523,1.736-1.635,1.922a6.758,6.758,0,0,1-2.484,1.24l-.915.248-2.354.124-2.223-.5-1.5-.868q.144-.335-.2-.248a6.549,6.549,0,0,1-2.027-2.914l-.131-1.116-.262-.62V99.47l.262-.62.262-1.86.654-1.24.131-.62a11.539,11.539,0,0,1,2.027-2.79q.3.1.2-.186l1.046-.682q-.144-.335.2-.248l1.961-1.116,1.961-.62.654-.124H136.5l1.046.372.785.744,1.046-1.24,1.308-.744Zm.588,10.292-.131.248.785.992.523,1.116.131,1.364.131.124-.131,1.488-.262.868a9.155,9.155,0,0,1-1.7,2.6,16.855,16.855,0,0,1-4.315,3.348l-.262.372,1.046-.5,3.008-2.108.131-.372.915-.62q-.131-.372.262-.248l1.569-2.356.392-1.488-.131-1.612-.392-.992Zm-5.754,12.648-.392.248v.124q.523,0,.523-.248Zm-.654.372-.654.372v.124l.785-.372Zm-.915.5-.262.124-.131.248.523-.248Zm-1.046.5-.131.248.392-.124Zm-.785.372-1.961.992.131.248,2.092-1.116Zm-4.315.124-.262.372.523-.248Zm-.523.372-.262.124v.124l.392-.124Zm13.207,0-.262.248q.131.248-.262.124l-.392.5.523-.124q.131-.5.392-.124l.915-.248v-.372Zm-1.7.868-.131.372.523.124.262-.124v-.248Zm-.392.5-.262.248q-.915-.124-.785.248v.124h.523q-.131-.372.523-.248Zm-17.13,1.488-.392.248h.392Zm-3.531,2.232v.248l-.392.124.131.248.262-.124.262-.372Zm-1.177.992q-.131.372.262.248Q119.045,119.124,118.653,119.248Zm1.569,1.736v.248l.262-.124Zm-.785.62v.248l.262-.124Zm-1.831,1.612-.262.248h.262Zm9.415.372.131.248Q127.283,123.463,127.022,123.587Zm1.046,2.852-.131.124H126.76l-1.046.248-1.046.5q-.523-.124-.392.248l-.523.124-.262.372,2.092-.868a2.858,2.858,0,0,0,1.438-.372h2.354l1.046.248,1.177.5,1.046.744a4.183,4.183,0,0,1,1.7,2.356h.131a3.219,3.219,0,0,0-.654-1.736l-1.438-1.364q-.392.124-.261-.248l-1.569-.62Zm-7.061.5-.262.248h.392Q121.268,126.811,121.007,126.935Zm6.538.992v.248l.262-.124Zm-4.315.124-.262.124-.262.372.654-.372Zm-3.923.124v.248l.262-.124Zm-7.453.372-.131.372h.131Zm10.2.372-.262.248h.262Zm-10.461.5q-.131.5.262.372Q111.984,129.291,111.592,129.415Zm6.669.248-.131.372h.131Zm-.262.248-.131.5H118Zm2.484.62-.262.372.262-.124Zm-7.453.124-.262.5.262-.124Zm4.446.372-.262.372.262-.124Zm2.484.248-.262.248h.262Zm-.392.5-.262.372.262-.124Zm-3.138.868-.262.372.262-.124Zm-1.046,1.736-.131.62.131.248.262-.744Zm.785,5.084-.131.372h.131Zm-.392.372-.131.62h.131Zm-.523,4.712-.131.372h.131Zm0,6.7-.262.248q-.131.372.392.124Zm21.968.744-.261.372h.261Zm-21.445.62-.131.372h.131Zm19.614.372-.131.372h.131Zm9.284.248-.131.124-2.615.248-2.223.868a4.545,4.545,0,0,0-1.569,1.984v1.984l.262.5.131-1.736.785-1.24,1.831-1.24,2.615-.744q.654.248.915-.124H150.3l-1.438-.372-1.961-.124-.131-.124Zm6.146.62v.124h.262Zm-30.468,1.612-.131.372.262.124Z" transform="translate(-101 -88)" fill="#7f0000"/>
      <path id="red-07-2" data-name="red-07" d="M473,97l2.027.262.392.262,2.615.785,1.046.654h.392l1.438,1.177.981.523.2.392.719.392.2.392.85.719q-.092.3.2.2l.2.523.458.131-.2-.327-.719-1.111-.327-.2.065-.2,1.242.981q-.092.3.2.2l.2.392h.2l1.635,1.635.392.719q.353-.144.262.2l1.438,2.223,1.308,3.269.915,4.184.131,4.184.131.131v.915l.262.654.131,1.438.523,1.7.981,1.111.915.523,1.046.131.523-.131.719-.719q.1-.288-.2-.2l-.392.262-.915.131-1.308-.392-.588-.588a2.982,2.982,0,0,1-.523-2.615,5.012,5.012,0,0,1,1.046-2.027l1.5-.915,1.831-.131,1.046.262,1.112.719.915,1.831v1.7l-.392,1.5,1.046.262q-.144.353.2.262l.719.981.262,1.046v1.046l-.392,1.569-1.111,1.5a2.757,2.757,0,0,1-2.484.654l-1.308-.392a1.782,1.782,0,0,0-1.373-1.046l-.458.785-1.438.785-1.308.131-1.308-.523-.85-.719q.1-.288-.2-.2l-1.5-2.288-.262-1.438-.262-.392-.131-1.961.131-.262-.131-.654.131-.262-.131-.262v-.262l.131-.262-.131-.392.523-1.961-.131-.262.654-1.831.131-2.877.262-.654-.131-.523.131-.392-.262-.523v-.262l-.131-2.092q-.392-.262-.262-1.046a12.936,12.936,0,0,0-1.635-3.6l-.065.327.915,1.961.262,1.438.261.523.131,3.792-.131.131v1.308l-.261.523-.131,1.046a4.2,4.2,0,0,1-1.373,1.765l-1.765.392a2.615,2.615,0,0,1-1.242,2.092l-.785.392H480.65l-1.046-.392-1.242-1.111-.654-1.177v-1.438l.654-1.373a3.1,3.1,0,0,1-1.7-1.242l-.785-1.831V112.1a2.349,2.349,0,0,0,.392-1.438l.981-1.373,1.177-.785,1.831-.131,1.9.915.654,1.373v1.569a1.683,1.683,0,0,1-.981,1.242l-1.177.131-.458-.131.261.785.588.392,1.046.131a2,2,0,0,0,1.5-.981l.523-1.046.131-2.484-.131-.131-.131-1.569-.261-.392-.262-1.308-.654-1.046V105.3l-.261-.458-.392-.2v-.262l-.915-1.177v-.327l-.523-.327-.2-.327-.588-.262-.719-.915-2.158-1.635q.1-.288-.2-.2l-1.242-.654q.17-.432-.458-.262L473,97.2Zm13.076,8.238q-.262.392.131.262Zm.131,1.831-.131.392h.131Zm.523,3.923-.262,1.961-.654,1.438-.262.392a2.761,2.761,0,0,1-1.308.915v.131q.785.131,1.046-.392l.915-1.046.523-1.7Zm-3.138,4.838v.131h.392Z" transform="translate(-428.369 -95.823)" fill="#7f0000"/>
      <path id="red-06-2" data-name="red-06" d="M195.58,113.565q.575-.2.458.2l-2.419,1.5-1.569,1.308-.458.131v.392q-.353-.144-.262.2l-.588.719q-.288-.092-.2.2l-.588.719-.458.327a1.827,1.827,0,0,0-.785,1.242l-.785.588a16.143,16.143,0,0,0-3.269,5.623l-.523,2.484v2.484a5.651,5.651,0,0,0,1.046,2.55l.392.2q-.092.3.2.2l.785.523L188,135.4l1.046-.262,1.111-.85a4.229,4.229,0,0,0,.785-2.223,1.67,1.67,0,0,0-.719-1.111l-1.046-.262-.327.2a1.1,1.1,0,0,1,1.046.523l.131,1.046-.981,1.242-.785.131a2.127,2.127,0,0,1-1.5-.85,3.6,3.6,0,0,1-.523-2.877,3.093,3.093,0,0,1,.981-1.9,2.1,2.1,0,0,1,1.961-.523l.523.131,1.177-.915h1.7l1.373.981.392.654.131,1.308-.392.915.785.392q-.092.3.2.2l.588,1.242v1.177a8.63,8.63,0,0,1-2.55,4.119l-1.177.915-2.092.915-.654.131H186.95l-2.354-.915-1.373-1.046-1.046-1.373-.785-1.7-.392-3.4.262-.654.131-2.158q.392.17.262-.327l-.131-.327q.431.17.262-.458l.392-.654.131-.785.262-.262.262-.981.327.131.065-.915q.353.144.262-.2l.981-1.242.131.262,1.308-1.7q.3.1.2-.2l.392-.523-.262-.131.327-.458.327-.2.065-.2.2.065.131-.458,1.046-.654.458-.654,1.177-.654,1.569-1.308.458-.131q-.144-.353.2-.262l1.7-1.046h.719l.2-.523Zm-2.027,25.5v.262l.523-.131Z" transform="translate(-170.543 -110.166)" fill="#7f0000"/>
      <path id="red-05-2" data-name="red-05" d="M573,145l1.308.523q-.144.353.2.262l.588.262q-.144.353.2.262l.981.654q-.144.353.2.262l.981.981.131.458.392.2,1.177,1.7v.327h.262v.523h.2l.719,1.635.523,2.027q.353-.144.261.2l.719.85.654.392h.915l.85-.523.262-1.242-.262-.85-.588-.392H583l-.261.392q.654-.065.719.458.2.785-.2.981-.3.418-1.177.262l-.719-.392-.523-1.111v-1.177l.392-.981,1.242-.785,1.831-.131.523.131,1.373.981q.667.575.392,2.092l-.392.719-.262.065.392.262a1.874,1.874,0,0,1,.262,1.569l-.981,1.765-.392.262q-.562.811-2.223.523l-.523-.392q-.5.615-1.831.392l-.981-.588-.392-.523-.523-1.569-.262-3.138-.392-1.177q.327-.2-.131-.392l-.785-1.961-1.7-2.55q-.353.144-.262-.2l-1.373-1.373h-.2q.144-.353-.2-.262Zm.523,2.877-.131.262.261.131Zm0,2.877-.131.392h.131Zm.131.392-.131,1.177h.131Z" transform="translate(-515.291 -137.601)" fill="#7f0000"/>
      <path id="red-04-2" data-name="red-04" d="M118.1,186l.2.2-.458.458-1.242,1.111-1.308,1.961-.392.785-.131.785-.392.523-.131,2.484v.262l.392,3.008.785,2.354q-.327.2.131.392l1.177,2.942q.392-.157.262.327l.523.915.131.915.262.392.131,1.831-.523,1.438-.588.588-.327.2.262,1.177a3.886,3.886,0,0,1-1.373,2.55l-1.569.915h-1.438l-.392-.131-.981-.981-.131-.588-1.111.392h-.785l-1.373-.654q.144-.353-.2-.262l-1.111-1.765A2.349,2.349,0,0,0,106,209.08v-1.7l.523-1.438,1.111-1.242,1.046-.392h1.046l1.177.392.719.588a2.307,2.307,0,0,1,.392,2.223l-.458.588q-.379.471-1.438.262l-.327-.2.719.981.915.131.588-.458.523-.915.262-1.961-.262-.915-.131-2.615-.131-.262v-.262l-.131-2.877v-.262l.131-1.177-.131-.523v-.262l.262-1.438-.131-.262.262-1.308.262-.392.131-1.177.392-.523V191.3l1.765-2.681h.2v-.523h.2l.458-.327.2-.327q.3.1.2-.2a1.65,1.65,0,0,1,1.177-.719q-.157-.392.327-.262Zm-4.119,11.376v1.7l.262.523,1.046,5.1v2.484q-.262.131-.131.785l-.785,1.569a2.586,2.586,0,0,1-2.484,1.177v.131h1.046l1.177-.523.915-1.046.654-1.961-.131-3.4-.262-.523v-.654a8.049,8.049,0,0,1-.654-2.484l-.262-.392Zm3.269,16.607q-.262.392.131.262Z" transform="translate(-105.346 -174.214)" fill="#7f0000"/>
      <path id="red-03-2" data-name="red-03" d="M414,298h1.438l1.569.392a3.969,3.969,0,0,1,2.027,1.5l.2.327,1.177-.262h1.7l1.7.654,1.112,1.111.262.392.915,1.569.523,1.831.131,4.184-.131.131v6.407l.131.131.131,1.831.262.915.392.523.262,1.177.523,1.046,1.373,1.634h.327v.262q.353-.144.261.2l.131.327.523.2q-.1.34.327.2l.2.392.719.131.654.523,1.308.392,1.438.131.915.262.654-.131.654.131a1.426,1.426,0,0,1,1.242-.262l-.065-.262-.131.131h-1.569l-.262.131-.131-.131h-1.046l-.262-.262h-.915l-1.046-.262-2.615-1.7-1.112-1.111-.327-.458-.458-.327-.262-.85q-.392.17-.262-.327l-.523-.785a1.738,1.738,0,0,0-.262-1.308v-.915l-.131-.327.262-.065v-2.484l.262-1.308.915-1.765q.353.144.262-.2l.981-.719,1.373-.131a2.1,2.1,0,0,1,.85-2.223l1.308-.654,2.615-.131,1.308.262.785.392,1.112.981.785,1.438v.85l1.242.131,1.111.981.523.915.392,1.569v1.961l-.523,1.569a6.134,6.134,0,0,1-1.635,2.158l-1.308.654-1.961.131-1.438-.392-1.112-.981-.261-.392-.392-.654-.131-1.831.588-1.242q.445-.667,1.831-.392l.392.131-.065-.2q.1-.288-.2-.2l-.785-.523L435.7,315l-1.831.654-.85.85-.654,1.177v1.7l1.438,2.419,2.55,1.438,1.046.261h1.308l1.308-.261a.913.913,0,0,1,.915-.392,10.453,10.453,0,0,0,2.811-2.158l.392-.719q.353.144.262-.2l.392-.654v-.262l.523-1.438.262-.262v-.523l.392-.915v-.654l.262-.785v-.262l.131-2.484-.131-.523v-.262q-.222-.941.262-1.177v-.262l-.262-1.438.131-.261-1.046-4.642h.392q-.17.536.262.392v.458l.262.262.131.785-.131.262.392.392.131,1.308.392.523v1.177l.261.915v4.184l.131.131-.131.131v1.569l-.261.523-.131,1.308-.915,2.354-.785,1.438v.981q-.353-.144-.262.2.458.2.131.392l-.262,1.242q-.353-.144-.262.2l-.065.327q-.288-.092-.2.2l-.262.719h-.327l-.588.588q.1.3-.2.2l-1.177,1.046-1.438.785-1.046.262-.262.262h-.523l-.915.392-.915.131-.392-.131q-.222.366-1.046.131h-.262l-1.438-.262h-.262l-2.354-.392a2.935,2.935,0,0,0-1.961-.785l-1.111-.719-.2-.458-.262.131a.561.561,0,0,0-.719-.392l-.262-.785q-.353.144-.261-.2l-.915-1.177-.131-.458h-.262v-.523h-.2l-.588-1.438h-.262v-.392q-.392.17-.261-.327l-.915-2.223.131-.262-.261-.654v-.262q.235-.811-.131-1.046v-.262q.131-.785-.262-1.046l-.262-2.615-.785-2.484-.523-.981q-.353.144-.261-.2a4.634,4.634,0,0,0-1.9-1.5l-1.7-.262-1.438.262-.981.523q.144.353-.2.262l-.719.981-.131,1.308.131.523.458.588a1.644,1.644,0,0,0,1.308.392l-.131-.262-.719-.588-.131-.915.719-1.112.915-.523,1.7-.131a3.191,3.191,0,0,1,2.288,1.373,4.7,4.7,0,0,1,.654,3.138l-.262,1.177-.915,1.635h-.262q.144.353-.2.262-1.7,1.961-5.492,1.831l-2.615-.915a9.835,9.835,0,0,1-2.55-2.158L407,312.449v-2.484l.915-2.223.785-.915-.785-1.046-.131-1.569.523-2.092.523-1.111q.353.144.262-.2l.981-1.111,2.223-1.308Zm6.473,6.015q0,.392.654.523l.915,1.046.915,1.569.523,1.961.131,2.092.261.785v1.177l.262,1.438h.131v-.785l-.262-.785-.131-2.877-.261-.785-.131-1.569a4.087,4.087,0,0,0-1.046-2.223q.131-.392-.131-.262l-.262-.262A3.136,3.136,0,0,0,420.469,304.015Zm3.923,10.723-.131.523h.131Zm.131.785-.131.392h.131Zm.131.392v.785h.131Zm8.5,7.061v.262l.785.392h.261Zm-7.453.785.131.523q.261-.131,0-.262Q425.96,323.629,425.7,323.76Zm9.023.131.131.262h.523Zm.785.262v.131h.654Zm4.184,1.7v.131h.261Z" transform="translate(-371 -272.808)" fill="#7f0000"/>
      <path id="red-02-2" data-name="red-02" d="M283.2,303.853q.3-.092.2.2l-.392.2Z" transform="translate(-260.394 -277.08)" fill="#7f0000"/>
      <path id="red-01-2" data-name="red-01" d="M348.2,471l1.438.131.785.262,1.5,1.111.262.392.262.85.981-.392h1.046l1.438.523,1.111.981,1.046,2.092.131,1.7-.131.392-.262,1.308-1.111,1.373-.392.261-.785.523-1.569.131-1.046-.392-.719-.719-.262-.654v-.654a1.636,1.636,0,0,1,.719-1.242,1.7,1.7,0,0,1,1.308-.131l.327.131a.5.5,0,0,0-.327-.654l-.523-.262h-.785l-1.242.719-.785,1.569v.915l.981,1.765q.3-.092.2.2a7.515,7.515,0,0,0,2.419,1.5l2.877.915,1.7.131.131.131h4.707l3.792-.654.262-.262a2.523,2.523,0,0,0,1.7-.654h.523a3.172,3.172,0,0,1,1.765-.915q-.144-.353.2-.262l2.419-1.7.2-.392.85-.523.2-.392.458-.131q-.157-.392.327-.261l-.065.2-2.223,4.838-2.354,3.465q-.353-.144-.262.2l-.523.327-.2.392q-.288-.092-.2.2l-1.9,1.5-.458.131q.144.353-.2.262l-1.831,1.177-2.746,1.308-6.146,1.7a4.551,4.551,0,0,0-2.027,1.5l-.392.654-.131.915a1.683,1.683,0,0,0,.981,1.242,1.918,1.918,0,0,0,1.765-.327l-.915-.327-.392-.719v-.915l.719-.981a2.618,2.618,0,0,1,2.223-.392l1.111.85a2.39,2.39,0,0,1,.392,2.092l-.981,1.765-.392.262-.327.131q.144.353-.2.261l-2.092.915h-1.569l-.85-.392q.144-.353-.2-.261l-.458-.785-.85.262h-1.569l-.981-.719a2.829,2.829,0,0,1-.523-2.484l.523-.981.785-.392-.262-.719v-1.046l.392-.719,1.373-.785,3.6-.588-10.788-.2-.131.131-2.092.131-1.308.523-1.373.981a4.273,4.273,0,0,0-.915,1.961v1.831a2.265,2.265,0,0,0,.85,1.373l1.177.523h.654a1.63,1.63,0,0,0,1.111-.719l.262-.654-.2.065-1.177.131-.981-.719-.131-1.177a2.32,2.32,0,0,1,1.112-1.5,2.982,2.982,0,0,1,2.615-.523l1.242.719a3.82,3.82,0,0,1,1.046,3.138q-.327.2-.131.915l-.523,1.177-1.111,1.242-1.177.785-1.046.392-1.569.131-.131.131h-1.177l-.131-.131-1.438-.131-1.177-.654-.719-.719-.392-.654-.131-1.111-2.288-.131a3.3,3.3,0,0,1-1.9-1.373l-.785-1.831-.131-1.7q.353-.222.131-1.046a4.956,4.956,0,0,1,1.242-1.9l.392-.262,1.634-.719-.261-.915.261-1.046.915-1.112.523-.131q-.157-.392.327-.262l.785-.523,1.046-.131.262-.262h1.111l.065.262.065-.262.719-.131h2.223q.2.327.915.131l.392.262,2.354.262.392.262,1.177.131.392.262h.523l2.484.654h.785l.654.262,3.531.131.131.131h4.446a2.645,2.645,0,0,1,1.7-.262l.85-.327-.719-.065-2.223.392h-3.269l-.131-.131-2.223-.131-1.569-.392-1.569-.131-3.661-1.046-.262-.262-.654-.131-1.9-.915q.144-.353-.2-.262l-1.9-1.635-1.177-2.223a5.32,5.32,0,0,1-.131-2.354l.85-1.373,1.111-.719-.131-.131v-2.092l.262-.915,1.046-1.635h.262q-.144-.353.2-.262l1.177-.785Zm1.9,6.015-.654.392-.654.654-.523,1.177V481.2q.392.262.392,1.177l.785,1.308a7.721,7.721,0,0,0,2.615,2.092q.262.131.131-.262l-.392-.131-2.223-2.354-.785-2.092v-1.177l.654-1.569,1.177-1.046h.392Zm21.968,8.892-.262.262h.262Zm-.392.392-.262.262h.262Zm-.654.523-.523.523q-.392-.131-.262.262l-1.308.523-.523.523-3.269,1.7-2.354.915-3.269.915-3.4.392v.131h1.569l1.046-.261,1.831-.131,1.7-.523,1.046-.131.262-.262h.392l1.7-.654,1.831-.915,1.831-1.177,1.177-1.046q.262.131.131-.131l.523-.392Q371.275,486.691,371.013,486.822Zm-7.323,1.438-.392.131v.131a.78.78,0,0,0,.785-.131Zm-.785.785v.131h.262Zm-4.838,1.7v.131h.785Zm-2.354.262.131.262h1.046Z" transform="translate(-304.934 -425.18)" fill="#7f0000"/>
    </g>
  </g>
</svg>
