<svg xmlns="http://www.w3.org/2000/svg" width="350" height="520" viewBox="0 0 350 520">
  <g id="winterday1" transform="translate(-41 -43)">
    <g id="sun">
      <circle id="Ellipse_105" data-name="Ellipse 105" cx="24" cy="24" r="24" transform="translate(254 128)" fill="#fff"/>
    </g>
    <g id="tree-2" transform="translate(-5529 2931)">
      <g id="tree" transform="translate(5635.299 -2745.112) rotate(11)">
        <path id="Path_135" data-name="Path 135" d="M2.145,191.949s35.893.221,35.893-52.784S12.453,0,2.145,0s19.9,52.529,19.9,105.534S2.145,191.949,2.145,191.949Z" transform="matrix(0.995, 0.105, -0.105, 0.995, 118.303, 80.712)" fill="#6d5b5b"/>
        <path id="Path_136" data-name="Path 136" d="M1.07,95.756s17.906.11,17.906-26.332S6.213,0,1.07,0s9.925,26.2,9.925,52.647S1.07,95.756,1.07,95.756Z" transform="matrix(0.899, -0.438, 0.438, 0.899, 86.425, 97.994)" fill="#6d5b5b"/>
        <path id="Path_137" data-name="Path 137" d="M1.16,103.841s19.418.12,19.418-28.555S6.737,0,1.16,0,11.923,28.417,11.923,57.092,1.16,103.841,1.16,103.841Z" transform="matrix(0.407, -0.914, 0.914, 0.407, 27.12, 57.817)" fill="#6d5b5b"/>
        <path id="Path_138" data-name="Path 138" d="M.5,44.931s8.4.052,8.4-12.356S2.915,0,.5,0,5.159,12.3,5.159,24.7.5,44.931.5,44.931Z" transform="matrix(0.407, -0.914, 0.914, 0.407, 79.843, 123.102)" fill="#6d5b5b"/>
        <path id="Path_139" data-name="Path 139" d="M.5,0S8.9-.052,8.9,12.356,2.915,44.931.5,44.931s4.657-12.3,4.657-24.7S.5,0,.5,0Z" transform="translate(93.974 46.466) rotate(-149)" fill="#6d5b5b"/>
        <path id="Path_140" data-name="Path 140" d="M1.07,95.756s17.906.11,17.906-26.332S6.213,0,1.07,0s9.925,26.2,9.925,52.647S1.07,95.756,1.07,95.756Z" transform="matrix(0.899, -0.438, 0.438, 0.899, 80.582, 33.729)" fill="#6d5b5b"/>
        <path id="Path_141" data-name="Path 141" d="M1.07,0S18.976-.11,18.976,26.332,6.213,95.756,1.07,95.756s9.925-26.2,9.925-52.647S1.07,0,1.07,0Z" transform="matrix(-0.899, -0.438, 0.438, -0.899, 141.09, 214.731)" fill="#6d5b5b"/>
        <path id="Path_142" data-name="Path 142" d="M.807,0s13.5-.083,13.5,19.855S4.684,72.2.807,72.2,8.29,52.442,8.29,32.5.807,0,.807,0Z" transform="matrix(0.07, -0.998, 0.998, 0.07, 136.168, 99.05)" fill="#6d5b5b"/>
        <path id="Path_143" data-name="Path 143" d="M.807,0s13.5-.083,13.5,19.855S4.684,72.2.807,72.2,8.29,52.442,8.29,32.5.807,0,.807,0Z" transform="matrix(0.174, -0.985, 0.985, 0.174, 143.085, 176.604)" fill="#6d5b5b"/>
        <path id="Path_130" data-name="Path 130" d="M1.07,0S18.976-.11,18.976,26.332,6.213,95.756,1.07,95.756s9.925-26.2,9.925-52.647S1.07,0,1.07,0Z" transform="matrix(-0.899, -0.438, 0.438, -0.899, 136.708, 128.557)" fill="#6d5b5b"/>
        <path id="Path_144" data-name="Path 144" d="M.878,0S15.569-.09,15.569,21.6,5.1,78.563.878,78.563s8.143-21.5,8.143-43.194S.878,0,.878,0Z" transform="matrix(-0.899, -0.438, 0.438, -0.899, 120.5, 77.436)" fill="#6d5b5b"/>
        <path id="Path_131" data-name="Path 131" d="M1.07,0S18.976-.11,18.976,26.332,6.213,95.756,1.07,95.756s9.925-26.2,9.925-52.647S1.07,0,1.07,0Z" transform="matrix(-0.391, -0.921, 0.921, -0.391, 137.799, 107.891)" fill="#6d5b5b"/>
        <path id="Path_145" data-name="Path 145" d="M.593,0s9.924-.061,9.924,14.593S3.443,53.069.593,53.069s5.5-14.523,5.5-29.177S.593,0,.593,0Z" transform="matrix(-0.616, 0.788, -0.788, -0.616, 139.941, 194.467)" fill="#6d5b5b"/>
        <path id="Path_146" data-name="Path 146" d="M.593,0s9.924-.061,9.924,14.593S3.443,53.069.593,53.069s5.5-14.523,5.5-29.177S.593,0,.593,0Z" transform="matrix(-0.616, 0.788, -0.788, -0.616, 91.742, 42.566)" fill="#6d5b5b"/>
        <path id="Path_147" data-name="Path 147" d="M.7,62.357s11.66.072,11.66-17.148S4.046,0,.7,0,7.16,17.065,7.16,34.284.7,62.357.7,62.357Z" transform="translate(52.466 106.132) rotate(-70)" fill="#6d5b5b"/>
        <path id="Path_148" data-name="Path 148" d="M.755,67.623S13.4,67.7,13.4,49.027,4.387,0,.756,0,7.765,18.506,7.765,37.179.755,67.623.755,67.623Z" transform="translate(4.583 88.249) rotate(-110)" fill="#6d5b5b"/>
        <path id="Path_149" data-name="Path 149" d="M.327,29.26S5.8,29.294,5.8,21.214,1.9,0,.327,0,3.36,8.007,3.36,16.087A27.683,27.683,0,0,1,.327,29.26Z" transform="translate(70.092 136.27) rotate(-110)" fill="#6d5b5b"/>
        <path id="Path_150" data-name="Path 150" d="M.327,0S5.8-.034,5.8,8.046,1.9,29.26.327,29.26,3.36,21.253,3.36,13.173A27.683,27.683,0,0,0,.327,0Z" transform="matrix(-0.259, -0.966, 0.966, -0.259, 104.393, 20.718)" fill="#6d5b5b"/>
        <path id="Path_151" data-name="Path 151" d="M.7,62.357s11.66.072,11.66-17.148S4.046,0,.7,0,7.16,17.065,7.16,34.284.7,62.357.7,62.357Z" transform="translate(46.624 41.867) rotate(-70)" fill="#6d5b5b"/>
        <path id="Path_152" data-name="Path 152" d="M.7,0s11.66-.072,11.66,17.148S4.046,62.357.7,62.357,7.16,45.293,7.16,28.073.7,0,.7,0Z" transform="translate(158.428 158.132) rotate(-110)" fill="#6d5b5b"/>
        <path id="Path_153" data-name="Path 153" d="M.525,0S9.317-.054,9.317,12.93,3.051,47.018.525,47.018,5.4,34.151,5.4,21.167.525,0,.525,0Z" transform="translate(180.634 95.185) rotate(-42)" fill="#6d5b5b"/>
        <path id="Path_154" data-name="Path 154" d="M.525,0S9.317-.054,9.317,12.93,3.051,47.018.525,47.018,5.4,34.151,5.4,21.167.525,0,.525,0Z" transform="matrix(0.809, -0.588, 0.588, 0.809, 187.712, 177.408)" fill="#6d5b5b"/>
        <path id="Path_133" data-name="Path 133" d="M.7,0s11.66-.072,11.66,17.148S4.046,62.357.7,62.357,7.16,45.293,7.16,28.073.7,0,.7,0Z" transform="translate(154.046 71.958) rotate(-110)" fill="#6d5b5b"/>
        <path id="Path_134" data-name="Path 134" d="M.572,0s9.567-.059,9.567,14.069S3.319,51.161.572,51.161s5.3-14,5.3-28.129S.572,0,.572,0Z" transform="translate(123.04 49.987) rotate(-110)" fill="#6d5b5b"/>
        <path id="Path_155" data-name="Path 155" d="M.7,0s11.66-.072,11.66,17.148S4.046,62.357.7,62.357,7.16,45.293,7.16,28.073.7,0,.7,0Z" transform="translate(188.016 76.55) rotate(-69)" fill="#6d5b5b"/>
      </g>
      <g id="snow" transform="translate(5635.299 -2748) rotate(11)">
        <path id="Path_136-2" data-name="Path 136" d="M1.07,95.756s17.906.11,17.906-26.332S6.213,0,1.07,0s9.925,26.2,9.925,52.647S1.07,95.756,1.07,95.756Z" transform="matrix(0.899, -0.438, 0.438, 0.899, 86.425, 97.994)" fill="#fff"/>
        <path id="Path_137-2" data-name="Path 137" d="M1.16,103.841s19.418.12,19.418-28.555S6.737,0,1.16,0,11.923,28.417,11.923,57.092,1.16,103.841,1.16,103.841Z" transform="matrix(0.407, -0.914, 0.914, 0.407, 27.12, 57.817)" fill="#fff"/>
        <path id="Path_138-2" data-name="Path 138" d="M.5,44.931s8.4.052,8.4-12.356S2.915,0,.5,0,5.159,12.3,5.159,24.7.5,44.931.5,44.931Z" transform="matrix(0.407, -0.914, 0.914, 0.407, 79.843, 123.102)" fill="#fff"/>
        <path id="Path_139-2" data-name="Path 139" d="M.5,0S8.9-.052,8.9,12.356,2.915,44.931.5,44.931s4.657-12.3,4.657-24.7S.5,0,.5,0Z" transform="translate(93.974 46.466) rotate(-149)" fill="#fff"/>
        <path id="Path_140-2" data-name="Path 140" d="M1.07,0c-5.143,0,9.925,26.2,9.925,52.647S6.213,0,1.07,0Z" transform="matrix(0.899, -0.438, 0.438, 0.899, 80.582, 33.729)" fill="#fff"/>
        <path id="Path_141-2" data-name="Path 141" d="M1.07,0S18.976-.11,18.976,26.332,6.213,95.756,1.07,95.756s9.925-26.2,9.925-52.647S1.07,0,1.07,0Z" transform="matrix(-0.899, -0.438, 0.438, -0.899, 141.09, 214.731)" fill="#fff"/>
        <path id="Path_142-2" data-name="Path 142" d="M.807,0s13.5-.083,13.5,19.855S4.684,72.2.807,72.2,8.29,52.442,8.29,32.5.807,0,.807,0Z" transform="matrix(0.07, -0.998, 0.998, 0.07, 136.168, 99.05)" fill="#fff"/>
        <path id="Path_143-2" data-name="Path 143" d="M.807,0s13.5-.083,13.5,19.855S4.684,72.2.807,72.2,8.29,52.442,8.29,32.5.807,0,.807,0Z" transform="matrix(0.174, -0.985, 0.985, 0.174, 143.085, 176.604)" fill="#fff"/>
        <path id="Path_130-2" data-name="Path 130" d="M18.976,13.335c0,26.442-12.763,69.424-17.906,69.424s9.925-26.2,9.925-52.647c0-3.305.125-6.46.357-9.59C12.865.151,18.976-9.8,18.976,13.335Z" transform="matrix(-0.899, -0.438, 0.438, -0.899, 142.405, 116.875)" fill="#fff"/>
        <path id="Path_144-2" data-name="Path 144" d="M.878,0S15.569-.09,15.569,21.6,5.1,78.563.878,78.563s8.143-21.5,8.143-43.194S.878,0,.878,0Z" transform="matrix(-0.899, -0.438, 0.438, -0.899, 120.5, 77.436)" fill="#fff"/>
        <path id="Path_131-2" data-name="Path 131" d="M18.976,13.322c0,26.442-12.763,69.424-17.906,69.424s9.925-26.2,9.925-52.647S18.976-13.12,18.976,13.322Z" transform="matrix(-0.391, -0.921, 0.921, -0.391, 149.774, 102.808)" fill="#fff"/>
        <path id="Path_145-2" data-name="Path 145" d="M.593,0s9.924-.061,9.924,14.593S3.443,53.069.593,53.069s5.5-14.523,5.5-29.177S.593,0,.593,0Z" transform="matrix(-0.616, 0.788, -0.788, -0.616, 139.941, 194.467)" fill="#fff"/>
        <path id="Path_146-2" data-name="Path 146" d="M.593,0s9.924-.061,9.924,14.593S3.443,53.069.593,53.069s5.5-14.523,5.5-29.177S.593,0,.593,0Z" transform="matrix(-0.616, 0.788, -0.788, -0.616, 91.742, 42.566)" fill="#fff"/>
        <path id="Path_147-2" data-name="Path 147" d="M.7,62.357s11.66.072,11.66-17.148S4.046,0,.7,0,7.16,17.065,7.16,34.284.7,62.357.7,62.357Z" transform="translate(52.466 106.132) rotate(-70)" fill="#fff"/>
        <path id="Path_148-2" data-name="Path 148" d="M.755,67.623S13.4,67.7,13.4,49.027,4.387,0,.756,0,7.765,18.506,7.765,37.179.755,67.623.755,67.623Z" transform="translate(4.583 88.249) rotate(-110)" fill="#fff"/>
        <path id="Path_149-2" data-name="Path 149" d="M.327,29.26S5.8,29.294,5.8,21.214,1.9,0,.327,0,3.36,8.007,3.36,16.087A27.683,27.683,0,0,1,.327,29.26Z" transform="translate(70.092 136.27) rotate(-110)" fill="#fff"/>
        <path id="Path_150-2" data-name="Path 150" d="M.327,0S5.8-.034,5.8,8.046,1.9,29.26.327,29.26,3.36,21.253,3.36,13.173A27.683,27.683,0,0,0,.327,0Z" transform="matrix(-0.259, -0.966, 0.966, -0.259, 104.393, 20.718)" fill="#fff"/>
        <path id="Path_151-2" data-name="Path 151" d="M.7,62.357s11.66.072,11.66-17.148S4.046,0,.7,0,7.16,17.065,7.16,34.284.7,62.357.7,62.357Z" transform="translate(46.624 41.867) rotate(-70)" fill="#fff"/>
        <path id="Path_152-2" data-name="Path 152" d="M.7,0s11.66-.072,11.66,17.148S4.046,62.357.7,62.357,7.16,45.293,7.16,28.073.7,0,.7,0Z" transform="translate(158.428 158.132) rotate(-110)" fill="#fff"/>
        <path id="Path_153-2" data-name="Path 153" d="M.525,0S9.317-.054,9.317,12.93,3.051,47.018.525,47.018,5.4,34.151,5.4,21.167.525,0,.525,0Z" transform="translate(180.634 95.185) rotate(-42)" fill="#fff"/>
        <path id="Path_154-2" data-name="Path 154" d="M.525,0S9.317-.054,9.317,12.93,3.051,47.018.525,47.018,5.4,34.151,5.4,21.167.525,0,.525,0Z" transform="matrix(0.809, -0.588, 0.588, 0.809, 187.712, 177.408)" fill="#fff"/>
        <path id="Path_133-2" data-name="Path 133" d="M.7,0s11.66-.072,11.66,17.148S4.046,62.357.7,62.357,7.16,45.293,7.16,28.073.7,0,.7,0Z" transform="translate(154.046 71.958) rotate(-110)" fill="#fff"/>
        <path id="Path_134-2" data-name="Path 134" d="M.572,0s9.567-.059,9.567,14.069S3.319,51.161.572,51.161s5.3-14,5.3-28.129S.572,0,.572,0Z" transform="translate(123.04 49.987) rotate(-110)" fill="#fff"/>
        <path id="Path_155-2" data-name="Path 155" d="M.7,0s11.66-.072,11.66,17.148S4.046,62.357.7,62.357,7.16,45.293,7.16,28.073.7,0,.7,0Z" transform="translate(188.016 76.55) rotate(-69)" fill="#fff"/>
      </g>
    </g>
    <g id="tree-1" transform="translate(-10 -1)">
      <g id="tree-2-2" data-name="tree" transform="translate(212.295 454.456) rotate(169)">
        <path id="Path_135-2" data-name="Path 135" d="M1.156,0S20.5-.119,20.5,28.442,6.71,103.428,1.156,103.428s10.72-28.3,10.72-56.865S1.156,0,1.156,0Z" transform="matrix(0.995, -0.105, 0.105, 0.995, 52.934, 2.142)" fill="#6d5b5b"/>
        <path id="Path_136-3" data-name="Path 136" d="M.576,0s9.648-.059,9.648,14.188S3.348,51.6.576,51.6s5.348-14.12,5.348-28.368S.576,0,.576,0Z" transform="matrix(0.899, 0.438, -0.438, 0.899, 69.187, 49.317)" fill="#6d5b5b"/>
        <path id="Path_137-3" data-name="Path 137" d="M.625,0S11.088-.064,11.088,15.387,3.63,55.953.625,55.953s5.8-15.312,5.8-30.763S.625,0,.625,0Z" transform="matrix(0.407, 0.914, -0.914, 0.407, 65.729, 94.582)" fill="#6d5b5b"/>
        <path id="Path_138-3" data-name="Path 138" d="M.271,0S4.8-.028,4.8,6.658,1.571,24.21.27,24.21,2.78,17.585,2.78,10.9A22.905,22.905,0,0,0,.271,0Z" transform="matrix(0.407, 0.914, -0.914, 0.407, 65.139, 72.315)" fill="#6d5b5b"/>
        <path id="Path_139-3" data-name="Path 139" d="M.271,24.21S4.8,24.238,4.8,17.553,1.571,0,.27,0,2.78,6.625,2.78,13.311A22.905,22.905,0,0,1,.271,24.21Z" transform="translate(63.105 144.209) rotate(149)" fill="#6d5b5b"/>
        <path id="Path_140-3" data-name="Path 140" d="M.576,0s9.648-.059,9.648,14.188S3.348,51.6.576,51.6s5.348-14.12,5.348-28.368S.576,0,.576,0Z" transform="matrix(0.899, 0.438, -0.438, 0.899, 66.039, 83.946)" fill="#6d5b5b"/>
        <path id="Path_141-3" data-name="Path 141" d="M.577,51.6s9.648.059,9.648-14.188S3.348,0,.576,0,5.924,14.12,5.924,28.368.577,51.6.577,51.6Z" transform="matrix(-0.899, 0.438, -0.438, -0.899, 98.642, 79.165)" fill="#6d5b5b"/>
        <path id="Path_142-3" data-name="Path 142" d="M.435,38.9s7.275.045,7.275-10.7S2.524,0,.435,0,4.467,10.647,4.467,21.39.435,38.9.435,38.9Z" transform="matrix(0.07, 0.998, -0.998, 0.07, 112.181, 92.409)" fill="#6d5b5b"/>
        <path id="Path_143-3" data-name="Path 143" d="M.435,38.9s7.275.045,7.275-10.7S2.524,0,.435,0,4.467,10.647,4.467,21.39.435,38.9.435,38.9Z" transform="matrix(0.174, 0.985, -0.985, 0.174, 115.412, 46.578)" fill="#6d5b5b"/>
        <path id="Path_130-3" data-name="Path 130" d="M.577,51.6s9.648.059,9.648-14.188S3.348,0,.576,0,5.924,14.12,5.924,28.368.577,51.6.577,51.6Z" transform="matrix(-0.899, 0.438, -0.438, -0.899, 96.281, 125.598)" fill="#6d5b5b"/>
        <path id="Path_144-3" data-name="Path 144" d="M.473,42.332s7.916.049,7.916-11.641S2.746,0,.473,0,4.861,11.585,4.861,23.274.473,42.332.473,42.332Z" transform="matrix(-0.899, 0.438, -0.438, -0.899, 83.487, 144.817)" fill="#6d5b5b"/>
        <path id="Path_131-3" data-name="Path 131" d="M.577,51.6s9.648.059,9.648-14.188S3.348,0,.576,0,5.924,14.12,5.924,28.368.577,51.6.577,51.6Z" transform="matrix(-0.391, 0.921, -0.921, -0.391, 121.745, 110.519)" fill="#6d5b5b"/>
        <path id="Path_145-3" data-name="Path 145" d="M.319,28.6s5.347.033,5.347-7.863S1.855,0,.319,0,3.283,7.825,3.283,15.722A27.054,27.054,0,0,1,.319,28.6Z" transform="matrix(-0.616, -0.788, 0.788, -0.616, 52.871, 61.314)" fill="#6d5b5b"/>
        <path id="Path_146-3" data-name="Path 146" d="M.319,28.6s5.347.033,5.347-7.863S1.855,0,.319,0,3.283,7.825,3.283,15.722A27.054,27.054,0,0,1,.319,28.6Z" transform="matrix(-0.616, -0.788, 0.788, -0.616, 26.9, 143.163)" fill="#6d5b5b"/>
        <path id="Path_147-3" data-name="Path 147" d="M.375,0S6.658-.039,6.658,9.24,2.18,33.6.375,33.6s3.483-9.2,3.483-18.473A31.789,31.789,0,0,0,.375,0Z" transform="translate(59.844 79.815) rotate(70)" fill="#6d5b5b"/>
        <path id="Path_148-3" data-name="Path 148" d="M.407,0S7.221-.042,7.221,10.02,2.364,36.437.407,36.437,4.184,26.466,4.184,16.4.407,0,.407,0Z" transform="translate(36.71 113.405) rotate(110)" fill="#6d5b5b"/>
        <path id="Path_149-3" data-name="Path 149" d="M.176,0S3.124-.018,3.124,4.336,1.023,15.766.176,15.766,1.81,11.452,1.81,7.1A14.916,14.916,0,0,0,.176,0Z" transform="translate(52.583 80.46) rotate(110)" fill="#6d5b5b"/>
        <path id="Path_150-3" data-name="Path 150" d="M.176,15.766s2.948.018,2.948-4.336S1.023,0,.176,0,1.81,4.315,1.81,8.668A14.916,14.916,0,0,1,.176,15.766Z" transform="matrix(-0.259, 0.966, -0.966, -0.259, 71.479, 141.411)" fill="#6d5b5b"/>
        <path id="Path_151-3" data-name="Path 151" d="M.375,0S6.658-.039,6.658,9.24,2.18,33.6.375,33.6s3.483-9.2,3.483-18.473A31.789,31.789,0,0,0,.375,0Z" transform="translate(56.696 114.443) rotate(70)" fill="#6d5b5b"/>
        <path id="Path_152-3" data-name="Path 152" d="M.375,33.6s6.283.039,6.283-9.24S2.18,0,.375,0,3.858,9.2,3.858,18.474A31.789,31.789,0,0,1,.375,33.6Z" transform="translate(116.94 74.78) rotate(110)" fill="#6d5b5b"/>
        <path id="Path_153-3" data-name="Path 153" d="M.283,25.335s4.737.029,4.737-6.967S1.644,0,.283,0,2.909,6.933,2.909,13.929A23.969,23.969,0,0,1,.283,25.335Z" transform="translate(114.284 78.378) rotate(42)" fill="#6d5b5b"/>
        <path id="Path_154-3" data-name="Path 154" d="M.283,25.335s4.737.029,4.737-6.967S1.644,0,.283,0,2.909,6.933,2.909,13.929A23.969,23.969,0,0,1,.283,25.335Z" transform="matrix(0.809, 0.588, -0.588, 0.809, 116.037, 32.405)" fill="#6d5b5b"/>
        <path id="Path_133-3" data-name="Path 133" d="M.375,33.6s6.283.039,6.283-9.24S2.18,0,.375,0,3.858,9.2,3.858,18.474A31.789,31.789,0,0,1,.375,33.6Z" transform="translate(114.579 121.213) rotate(110)" fill="#6d5b5b"/>
        <path id="Path_134-3" data-name="Path 134" d="M.308,27.567s5.155.032,5.155-7.581S1.789,0,.308,0,3.165,7.544,3.165,15.157A26.081,26.081,0,0,1,.308,27.567Z" transform="translate(92.203 130.988) rotate(110)" fill="#6d5b5b"/>
        <path id="Path_155-3" data-name="Path 155" d="M.375,33.6s6.283.039,6.283-9.24S2.18,0,.375,0,3.858,9.2,3.858,18.474A31.789,31.789,0,0,1,.375,33.6Z" transform="translate(132.678 95.205) rotate(69)" fill="#6d5b5b"/>
      </g>
      <g id="snow-2" data-name="snow" transform="translate(206.112 421.091) rotate(169)">
        <path id="Path_136-4" data-name="Path 136" d="M.576,0s9.648-.059,9.648,14.188S3.348,51.6.576,51.6s5.348-14.12,5.348-28.368S.576,0,.576,0Z" transform="matrix(0.899, 0.438, -0.438, 0.899, 69.187, 16.913)" fill="#fff"/>
        <path id="Path_137-4" data-name="Path 137" d="M.625,0S11.088-.064,11.088,15.387,3.63,55.953.625,55.953s5.8-15.312,5.8-30.763S.625,0,.625,0Z" transform="matrix(0.407, 0.914, -0.914, 0.407, 65.729, 62.178)" fill="#fff"/>
        <path id="Path_138-4" data-name="Path 138" d="M.271,0S4.8-.028,4.8,6.658,1.571,24.21.27,24.21,2.78,17.585,2.78,10.9A22.905,22.905,0,0,0,.271,0Z" transform="matrix(0.407, 0.914, -0.914, 0.407, 65.139, 39.911)" fill="#fff"/>
        <path id="Path_139-4" data-name="Path 139" d="M.271,24.21S4.8,24.238,4.8,17.553,1.571,0,.27,0,2.78,6.625,2.78,13.311A22.905,22.905,0,0,1,.271,24.21Z" transform="translate(63.105 111.805) rotate(149)" fill="#fff"/>
        <path id="Path_140-4" data-name="Path 140" d="M.576,31.283c-2.771,0,5.348-14.12,5.348-28.368S3.348,31.283.576,31.283Z" transform="matrix(0.899, 0.438, -0.438, 0.899, 57.134, 69.799)" fill="#fff"/>
        <path id="Path_141-4" data-name="Path 141" d="M.577,51.6s9.648.059,9.648-14.188S3.348,0,.576,0,5.924,14.12,5.924,28.368.577,51.6.577,51.6Z" transform="matrix(-0.899, 0.438, -0.438, -0.899, 98.642, 46.76)" fill="#fff"/>
        <path id="Path_142-4" data-name="Path 142" d="M.435,38.9s7.275.045,7.275-10.7S2.524,0,.435,0,4.467,10.647,4.467,21.39.435,38.9.435,38.9Z" transform="matrix(0.07, 0.998, -0.998, 0.07, 112.181, 60.004)" fill="#fff"/>
        <path id="Path_143-4" data-name="Path 143" d="M.435,38.9s7.275.045,7.275-10.7S2.524,0,.435,0,4.467,10.647,4.467,21.39.435,38.9.435,38.9Z" transform="matrix(0.174, 0.985, -0.985, 0.174, 115.412, 14.174)" fill="#fff"/>
        <path id="Path_130-4" data-name="Path 130" d="M10.225,37.408C10.225,23.16,3.348,0,.576,0S5.924,14.12,5.924,28.368c0,1.781.067,3.481.193,5.167C6.932,44.512,10.225,49.875,10.225,37.408Z" transform="matrix(-0.899, 0.438, -0.438, -0.899, 96.281, 93.193)" fill="#fff"/>
        <path id="Path_144-4" data-name="Path 144" d="M.473,42.332s7.916.049,7.916-11.641S2.746,0,.473,0,4.861,11.585,4.861,23.274.473,42.332.473,42.332Z" transform="matrix(-0.899, 0.438, -0.438, -0.899, 83.487, 112.412)" fill="#fff"/>
        <path id="Path_131-4" data-name="Path 131" d="M10.225,37.408C10.225,23.16,3.348,0,.576,0S5.924,14.12,5.924,28.368,10.225,51.656,10.225,37.408Z" transform="matrix(-0.391, 0.921, -0.921, -0.391, 121.745, 78.115)" fill="#fff"/>
        <path id="Path_145-4" data-name="Path 145" d="M.319,28.6s5.347.033,5.347-7.863S1.855,0,.319,0,3.283,7.825,3.283,15.722A27.054,27.054,0,0,1,.319,28.6Z" transform="matrix(-0.616, -0.788, 0.788, -0.616, 52.871, 28.91)" fill="#fff"/>
        <path id="Path_146-4" data-name="Path 146" d="M.319,28.6s5.347.033,5.347-7.863S1.855,0,.319,0,3.283,7.825,3.283,15.722A27.054,27.054,0,0,1,.319,28.6Z" transform="matrix(-0.616, -0.788, 0.788, -0.616, 26.9, 110.758)" fill="#fff"/>
        <path id="Path_147-4" data-name="Path 147" d="M.375,0S6.658-.039,6.658,9.24,2.18,33.6.375,33.6s3.483-9.2,3.483-18.473A31.789,31.789,0,0,0,.375,0Z" transform="translate(59.844 47.41) rotate(70)" fill="#fff"/>
        <path id="Path_148-4" data-name="Path 148" d="M.407,0S7.221-.042,7.221,10.02,2.364,36.437.407,36.437,4.184,26.466,4.184,16.4.407,0,.407,0Z" transform="translate(36.71 81.001) rotate(110)" fill="#fff"/>
        <path id="Path_149-4" data-name="Path 149" d="M.176,0S3.124-.018,3.124,4.336,1.023,15.766.176,15.766,1.81,11.452,1.81,7.1A14.916,14.916,0,0,0,.176,0Z" transform="translate(52.583 48.055) rotate(110)" fill="#fff"/>
        <path id="Path_150-4" data-name="Path 150" d="M.176,15.766s2.948.018,2.948-4.336S1.023,0,.176,0,1.81,4.315,1.81,8.668A14.916,14.916,0,0,1,.176,15.766Z" transform="matrix(-0.259, 0.966, -0.966, -0.259, 71.479, 109.007)" fill="#fff"/>
        <path id="Path_151-4" data-name="Path 151" d="M.375,0S6.658-.039,6.658,9.24,2.18,33.6.375,33.6s3.483-9.2,3.483-18.473A31.789,31.789,0,0,0,.375,0Z" transform="translate(56.696 82.038) rotate(70)" fill="#fff"/>
        <path id="Path_152-4" data-name="Path 152" d="M.375,33.6s6.283.039,6.283-9.24S2.18,0,.375,0,3.858,9.2,3.858,18.474A31.789,31.789,0,0,1,.375,33.6Z" transform="translate(116.94 42.375) rotate(110)" fill="#fff"/>
        <path id="Path_153-4" data-name="Path 153" d="M.283,25.335s4.737.029,4.737-6.967S1.644,0,.283,0,2.909,6.933,2.909,13.929A23.969,23.969,0,0,1,.283,25.335Z" transform="translate(114.284 45.973) rotate(42)" fill="#fff"/>
        <path id="Path_154-4" data-name="Path 154" d="M.283,25.335s4.737.029,4.737-6.967S1.644,0,.283,0,2.909,6.933,2.909,13.929A23.969,23.969,0,0,1,.283,25.335Z" transform="matrix(0.809, 0.588, -0.588, 0.809, 116.037, 0)" fill="#fff"/>
        <path id="Path_133-4" data-name="Path 133" d="M.375,33.6s6.283.039,6.283-9.24S2.18,0,.375,0,3.858,9.2,3.858,18.474A31.789,31.789,0,0,1,.375,33.6Z" transform="translate(114.579 88.808) rotate(110)" fill="#fff"/>
        <path id="Path_134-4" data-name="Path 134" d="M.308,27.567s5.155.032,5.155-7.581S1.789,0,.308,0,3.165,7.544,3.165,15.157A26.081,26.081,0,0,1,.308,27.567Z" transform="translate(92.203 98.583) rotate(110)" fill="#fff"/>
        <path id="Path_155-4" data-name="Path 155" d="M.375,33.6s6.283.039,6.283-9.24S2.18,0,.375,0,3.858,9.2,3.858,18.474A31.789,31.789,0,0,1,.375,33.6Z" transform="translate(132.678 62.801) rotate(69)" fill="#fff"/>
      </g>
    </g>
    <rect id="box" width="350" height="520" transform="translate(41 43)" fill="none"/>
  </g>
</svg>
