<svg xmlns="http://www.w3.org/2000/svg" width="350" height="522.025" viewBox="0 0 350 522.025">
  <g id="winterdayfl" transform="translate(-41 -43)">
    <g id="floor">
      <path id="Path_260" data-name="Path 260" d="M91.676,0C181.9,0,282.743,1.989,282.743,23.083c0,11.644-7.1,18.978-28.9,23.265-17.211,3.384-44.2,4.78-84.62,4.78C78.995,51.128,0,85.771,0,64.677S1.45,0,91.676,0Z" transform="translate(111.426 435.218) rotate(11)" fill="#f4f6f9"/>
      <path id="Path_261" data-name="Path 261" d="M83.843-13.223c90.116,0,188.853,40.732,188.853,61.8S259.13,58.7,169.014,58.7C113.233,58.7,32.537,31.373-21.093,5.441c-32.629-15.777-42.978-20.98-42.978-29.007C-64.071-44.635-6.272-13.223,83.843-13.223Z" transform="matrix(-0.998, 0.07, -0.07, -0.998, 320.332, 515.239)" fill="#fff"/>
    </g>
    <rect id="box" width="350" height="520" transform="translate(41 43)" fill="none"/>
  </g>
</svg>
